SplineFontDB: 1.0
FontName: DejaVuSerifCondensed-Bold
FullName: DejaVu Serif Condensed Bold
FamilyName: DejaVu Serif Condensed
Weight: Bold
Copyright: Copyright (c) 2003 by Bitstream, Inc. All Rights Reserved.\nDejaVu changes are in public domain\n
Version: 2.2
ItalicAngle: 0
UnderlinePosition: -217
UnderlineWidth: 240
Ascent: 1556
Descent: 492
Order2: 1
NeedsXUIDChange: 1
FSType: 0
PfmFamily: 17
TTFWeight: 700
TTFWidth: 5
LineGap: 0
VLineGap: 0
Panose: 2 6 8 6 5 6 5 2 2 4
OS2TypoAscent: 1556
OS2TypoAOffset: 0
OS2TypoDescent: -492
OS2TypoDOffset: 0
OS2TypoLinegap: 410
OS2WinAscent: 1923
OS2WinAOffset: 0
OS2WinDescent: 483
OS2WinDOffset: 0
HheadAscent: 1923
HheadAOffset: 0
HheadDescent: -483
HheadDOffset: 0
OS2Vendor: 'PfEd'
ScriptLang: 2
 1 latn 1 dflt 
 1 DFLT 1 dflt 
TtfTable: prep 1407
\,q1GjNmf-c:\8arWC@O"3D#Ta>*k<]*$'b"3(*=`0LMBrWC"9"2MZA"i,Ng^IJC?0E]":"2#!D
]D_oDrWB_1"1SjD[L*,E'a(fi"1&=:ZTnZ!Yo3eN)?[4I)?m>d"0WUFY+H.,Xu?HbT+(t++Tnf)
"02e3Wi6R6W\O[U&Hf"_"K3pTVj\Y1Vu?dqV%Ns/*<W,N"/M\B"f/a4UN@L[UFQG@F<(OZ]*"b"
)?li6"/$P7T+(moS\#&srWA^]>m6e2".arFS=:f.S6Z5e5QmRF*X/#Z".GVi"e$J7R^iC55lUtT
&HeC/".2=VQQ60o$NlZ["-a5sP8OIcO^nWYrWA:)*<hR9"-AQO"csE#Nsc&N5Qm+,%0_b+"-!`l
N/J#HN%tKn$3Q/+",Vh^"c<3\LiaX@Lj]A[$Nl)(",(b:"b\W5K7Xa?KDkt)E=W5)'*Ec7%0_:]
"+La^Im=-cF<(O6rW@Rr*sI)l"+20mH[<:-Hi=+nH!LT"]*!A0"F55<"aOAUGsDLW,m/?M"*Sc,
"a4Y`F`\W-Fnu2^*<UB^"*/Al"`jSEE=W.kJ-9h0/d64n")fdoDZ0`TrW?sJ")CO3C'k&VrW?d?
"(sk%Ag%7fI04$Z"$hiUCBJ%X"(?T[@/^77('@hM%g?8<"'Z?>=]c[J=Y0_X*<T@u"',d3<)X\=
<0dVb)?WkU"&Vl1"]6QJ:_"$?:_j./%M/e>(B[E,*!K)c"&2>r"\fs=9gAhT%ibaH0`t&Y&-Y]^
"%l,o"\O1F8IYbm7g]DjI02tH"%G]g"\(6L777Of71B>f\Gs?0rrb^u"%,Bl"[eRX65Tej5Rmr`
I02_m#mER("$hA>5<UG!5J%"]4XgOu>m!5#*!JJS"$AX^"[!D"4$!uX3uA&\3=5pN&d(-$"#r4M
"ZUo42`:sG2\-!LJ-7b:"#`CI2)H-R23n>$.gZA9(]uQ#*<e6b"#;;7"Z$&Z0b+:>$k!4m*Wn&@
.0V@`""k`("YLhu/M%J;/X?Ji.gZA1&HaRL"=jc\.OGE).NJU?%0J%E"=PW0"XoZ=-RK*&-P6G.
5QiD>"!o3A"XUb_,SM=),Uig?'-RN(rW=>f$3_W>"!Jcm"X+3T+b0\<#Ql27"<S:#"Wo2r5dVRE

StartChar: .notdef
Encoding: 0 -1 0
AltUni: 0
Width: 1167
Flags: W
Fore
153.2 -362 m 1,0,-1
 153.2 1444 l 1,1,-1
 1074.8 1444 l 1,2,-1
 1074.8 -362 l 1,3,-1
 153.2 -362 l 1,0,-1
256.7 -248 m 1,4,-1
 972.2 -248 l 1,5,-1
 972.2 1329 l 1,6,-1
 256.7 1329 l 1,7,-1
 256.7 -248 l 1,4,-1
EndSplineSet
EndChar
StartChar: exclam
Encoding: 33 33 33
Width: 854
Flags: W
Fore
278.95 162 m 0,0,1
 278.95 240 278.95 240 328.9 296 c 128,-1,2
 378.85 352 378.85 352 449.05 352 c 0,3,4
 519.25 352 519.25 352 569.65 296 c 128,-1,5
 620.05 240 620.05 240 620.05 162 c 0,6,7
 620.05 83 620.05 83 569.65 27 c 128,-1,8
 519.25 -29 519.25 -29 449.05 -29 c 0,9,10
 378.85 -29 378.85 -29 328.9 27 c 128,-1,11
 278.95 83 278.95 83 278.95 162 c 0,0,1
280.75 1493 m 1,12,-1
 618.25 1493 l 1,13,-1
 511.15 651 l 1,14,-1
 511.15 461 l 1,15,-1
 386.05 461 l 1,16,-1
 386.05 651 l 1,17,-1
 280.75 1493 l 1,12,-1
EndSplineSet
EndChar
StartChar: quotedbl
Encoding: 34 34 34
Width: 1013
Flags: W
Fore
442.15 1493 m 1,0,-1
 442.15 938 l 1,1,-1
 228.85 938 l 1,2,-1
 228.85 1493 l 1,3,-1
 442.15 1493 l 1,0,-1
838.15 1493 m 1,4,-1
 838.15 938 l 1,5,-1
 624.85 938 l 1,6,-1
 624.85 1493 l 1,7,-1
 838.15 1493 l 1,4,-1
EndSplineSet
EndChar
StartChar: numbersign
Encoding: 35 35 35
Width: 1630
Flags: W
Fore
1007.4 872 m 1,0,-1
 769.8 872 l 1,1,-1
 706.8 598 l 1,2,-1
 944.4 598 l 1,3,-1
 1007.4 872 l 1,0,-1
905.7 1470 m 1,4,-1
 819.3 1085 l 1,5,-1
 1056.9 1085 l 1,6,-1
 1144.2 1470 l 1,7,-1
 1343.1 1470 l 1,8,-1
 1255.8 1085 l 1,9,-1
 1505.1 1085 l 1,10,-1
 1505.1 872 l 1,11,-1
 1208.1 872 l 1,12,-1
 1146 598 l 1,13,-1
 1401.6 598 l 1,14,-1
 1401.6 383 l 1,15,-1
 1099.2 383 l 1,16,-1
 1012.8 0 l 1,17,-1
 813.9 0 l 1,18,-1
 900.3 383 l 1,19,-1
 662.7 383 l 1,20,-1
 576.3 0 l 1,21,-1
 375.6 0 l 1,22,-1
 462 383 l 1,23,-1
 210.9 383 l 1,24,-1
 210.9 598 l 1,25,-1
 506.1 598 l 1,26,-1
 569.1 872 l 1,27,-1
 314.4 872 l 1,28,-1
 314.4 1085 l 1,29,-1
 618.6 1085 l 1,30,-1
 705 1470 l 1,31,-1
 905.7 1470 l 1,4,-1
EndSplineSet
EndChar
StartChar: dollar
Encoding: 36 36 36
Width: 1354
Flags: W
Fore
247.35 59 m 1,0,-1
 247.35 350 l 1,1,-1
 355.35 350 l 1,2,3
 370.65 216 370.65 216 441.3 150 c 128,-1,4
 511.95 84 511.95 84 641.55 84 c 2,5,-1
 654.15 84 l 1,6,-1
 654.15 489 l 1,7,8
 430.05 544 430.05 544 332.85 639 c 128,-1,9
 235.65 734 235.65 734 235.65 897 c 0,10,11
 235.65 1077 235.65 1077 345.9 1180.5 c 128,-1,12
 456.15 1284 456.15 1284 654.15 1290 c 1,13,-1
 654.15 1559 l 1,14,-1
 763.05 1559 l 1,15,-1
 763.05 1290 l 1,16,17
 863.85 1284 863.85 1284 956.1 1262.5 c 128,-1,18
 1048.35 1241 1048.35 1241 1135.65 1202 c 1,19,-1
 1135.65 930 l 1,20,-1
 1026.75 930 l 1,21,22
 1012.35 1046 1012.35 1046 943.5 1110.5 c 128,-1,23
 874.65 1175 874.65 1175 763.05 1177 c 1,24,-1
 763.05 805 l 1,25,26
 1005.15 746 1005.15 746 1103.25 646.5 c 128,-1,27
 1201.35 547 1201.35 547 1201.35 367 c 0,28,29
 1201.35 182 1201.35 182 1087.5 79.5 c 128,-1,30
 973.65 -23 973.65 -23 763.05 -29 c 1,31,-1
 763.05 -299 l 1,32,-1
 654.15 -299 l 1,33,-1
 654.15 -29 l 1,34,35
 555.15 -27 555.15 -27 453.45 -5 c 128,-1,36
 351.75 17 351.75 17 247.35 59 c 1,0,-1
654.15 1178 m 1,37,38
 577.65 1167 577.65 1167 533.1 1125 c 128,-1,39
 488.55 1083 488.55 1083 488.55 1022 c 0,40,41
 488.55 952 488.55 952 526.8 909 c 128,-1,42
 565.05 866 565.05 866 654.15 838 c 1,43,-1
 654.15 1178 l 1,37,38
763.05 84 m 1,44,45
 853.95 95 853.95 95 900.75 138.5 c 128,-1,46
 947.55 182 947.55 182 947.55 256 c 0,47,48
 947.55 330 947.55 330 903.9 378 c 128,-1,49
 860.25 426 860.25 426 763.05 457 c 1,50,-1
 763.05 84 l 1,44,45
EndSplineSet
EndChar
StartChar: percent
Encoding: 37 37 37
Width: 1848
Flags: W
Fore
495.05 1419 m 0,0,1
 437.45 1419 437.45 1419 412.25 1349.5 c 128,-1,2
 387.05 1280 387.05 1280 387.05 1114 c 0,3,4
 387.05 947 387.05 947 412.25 877 c 128,-1,5
 437.45 807 437.45 807 495.05 807 c 0,6,7
 553.55 807 553.55 807 578.75 877 c 128,-1,8
 603.95 947 603.95 947 603.95 1114 c 0,9,10
 603.95 1280 603.95 1280 578.75 1349.5 c 128,-1,11
 553.55 1419 553.55 1419 495.05 1419 c 0,0,1
495.05 1520 m 0,12,13
 666.95 1520 666.95 1520 758.3 1415.5 c 128,-1,14
 849.65 1311 849.65 1311 849.65 1114 c 0,15,16
 849.65 917 849.65 917 758.3 812 c 128,-1,17
 666.95 707 666.95 707 495.05 707 c 0,18,19
 324.05 707 324.05 707 232.7 812 c 128,-1,20
 141.35 917 141.35 917 141.35 1114 c 0,21,22
 141.35 1311 141.35 1311 232.7 1415.5 c 128,-1,23
 324.05 1520 324.05 1520 495.05 1520 c 0,12,13
1315.85 1520 m 1,24,-1
 1470.65 1520 l 1,25,-1
 630.05 -29 l 1,26,-1
 475.25 -29 l 1,27,-1
 1315.85 1520 l 1,24,-1
1449.95 784 m 0,28,29
 1621.85 784 1621.85 784 1712.75 679.5 c 128,-1,30
 1803.65 575 1803.65 575 1803.65 379 c 0,31,32
 1803.65 182 1803.65 182 1712.75 76.5 c 128,-1,33
 1621.85 -29 1621.85 -29 1449.95 -29 c 0,34,35
 1278.95 -29 1278.95 -29 1187.6 76.5 c 128,-1,36
 1096.25 182 1096.25 182 1096.25 379 c 0,37,38
 1096.25 575 1096.25 575 1187.6 679.5 c 128,-1,39
 1278.95 784 1278.95 784 1449.95 784 c 0,28,29
1449.95 684 m 0,40,41
 1391.45 684 1391.45 684 1366.25 614.5 c 128,-1,42
 1341.05 545 1341.05 545 1341.05 379 c 0,43,44
 1341.05 212 1341.05 212 1366.7 142 c 128,-1,45
 1392.35 72 1392.35 72 1449.95 72 c 0,46,47
 1508.45 72 1508.45 72 1533.65 142 c 128,-1,48
 1558.85 212 1558.85 212 1558.85 379 c 0,49,50
 1558.85 545 1558.85 545 1533.65 614.5 c 128,-1,51
 1508.45 684 1508.45 684 1449.95 684 c 0,40,41
EndSplineSet
EndChar
StartChar: ampersand
Encoding: 38 38 38
Width: 1758
Flags: W
Fore
1725.5 0 m 1,0,-1
 1294.4 0 l 1,1,-1
 1180.1 131 l 1,2,3
 1090.1 51 1090.1 51 981.2 11 c 128,-1,4
 872.3 -29 872.3 -29 743.6 -29 c 0,5,6
 473.6 -29 473.6 -29 321.05 99 c 128,-1,7
 168.5 227 168.5 227 168.5 451 c 0,8,9
 168.5 614 168.5 614 246.35 729.5 c 128,-1,10
 324.2 845 324.2 845 490.7 928 c 1,11,12
 444.8 995 444.8 995 421.85 1056 c 128,-1,13
 398.9 1117 398.9 1117 398.9 1174 c 0,14,15
 398.9 1338 398.9 1338 522.65 1429 c 128,-1,16
 646.4 1520 646.4 1520 870.5 1520 c 0,17,18
 937.1 1520 937.1 1520 1025.75 1508 c 128,-1,19
 1114.4 1496 1114.4 1496 1226 1473 c 1,20,-1
 1226 1161 l 1,21,-1
 1109.9 1161 l 1,22,23
 1093.7 1285 1093.7 1285 1041.5 1342 c 128,-1,24
 989.3 1399 989.3 1399 893 1399 c 0,25,26
 802.1 1399 802.1 1399 749.9 1351 c 128,-1,27
 697.7 1303 697.7 1303 697.7 1221 c 0,28,29
 697.7 1129 697.7 1129 858.8 947 c 0,30,31
 876.8 927 876.8 927 885.8 918 c 1,32,-1
 1299.8 436 l 1,33,34
 1353.8 504 1353.8 504 1384.4 593 c 128,-1,35
 1415 682 1415 682 1423.1 795 c 1,36,-1
 1259.3 795 l 1,37,-1
 1259.3 915 l 1,38,-1
 1709.3 915 l 1,39,-1
 1709.3 795 l 1,40,-1
 1550.9 795 l 1,41,42
 1535.6 649 1535.6 649 1494.65 536 c 128,-1,43
 1453.7 423 1453.7 423 1387.1 336 c 1,44,-1
 1572.5 121 l 1,45,-1
 1725.5 121 l 1,46,-1
 1725.5 0 l 1,0,-1
1095.5 229 m 1,47,-1
 587 817 l 1,48,49
 537.5 750 537.5 750 512.3 674.5 c 128,-1,50
 487.1 599 487.1 599 487.1 516 c 0,51,52
 487.1 347 487.1 347 582.95 238 c 128,-1,53
 678.8 129 678.8 129 826.4 129 c 0,54,55
 896.6 129 896.6 129 962.75 153.5 c 128,-1,56
 1028.9 178 1028.9 178 1095.5 229 c 1,47,-1
EndSplineSet
EndChar
StartChar: quotesingle
Encoding: 39 39 39
Width: 595
Flags: W
Fore
420.15 1493 m 1,0,-1
 420.15 938 l 1,1,-1
 206.85 938 l 1,2,-1
 206.85 1493 l 1,3,-1
 420.15 1493 l 1,0,-1
EndSplineSet
EndChar
StartChar: parenleft
Encoding: 40 40 40
Width: 924
Flags: W
Fore
828.55 -319 m 1,0,1
 525.25 -194 525.25 -194 375.85 39 c 128,-1,2
 226.45 272 226.45 272 226.45 618 c 0,3,4
 226.45 964 226.45 964 374.05 1194 c 128,-1,5
 521.65 1424 521.65 1424 828.55 1556 c 1,6,-1
 828.55 1436 l 1,7,8
 686.35 1340 686.35 1340 623.8 1151.5 c 128,-1,9
 561.25 963 561.25 963 561.25 618 c 0,10,11
 561.25 274 561.25 274 623.8 85.5 c 128,-1,12
 686.35 -103 686.35 -103 828.55 -199 c 1,13,-1
 828.55 -319 l 1,0,1
EndSplineSet
EndChar
StartChar: parenright
Encoding: 41 41 41
Width: 916
Flags: W
Fore
137.5 -319 m 1,0,-1
 137.5 -199 l 1,1,2
 279.7 -103 279.7 -103 342.25 85.5 c 128,-1,3
 404.8 274 404.8 274 404.8 618 c 0,4,5
 404.8 963 404.8 963 342.25 1151.5 c 128,-1,6
 279.7 1340 279.7 1340 137.5 1436 c 1,7,-1
 137.5 1556 l 1,8,9
 444.4 1424 444.4 1424 592.45 1194 c 128,-1,10
 740.5 964 740.5 964 740.5 618 c 0,11,12
 740.5 272 740.5 272 590.65 39 c 128,-1,13
 440.8 -194 440.8 -194 137.5 -319 c 1,0,-1
EndSplineSet
EndChar
StartChar: asterisk
Encoding: 42 42 42
Width: 1017
Flags: W
Fore
976.95 1212 m 1,0,-1
 652.95 1044 l 1,1,-1
 976.95 874 l 1,2,-1
 888.75 719 l 1,3,-1
 593.55 958 l 1,4,-1
 617.85 569 l 1,5,-1
 453.15 569 l 1,6,-1
 477.45 958 l 1,7,-1
 182.25 719 l 1,8,-1
 94.0498 874 l 1,9,-1
 418.95 1044 l 1,10,-1
 94.0498 1212 l 1,11,-1
 182.25 1370 l 1,12,-1
 477.45 1128 l 1,13,-1
 453.15 1520 l 1,14,-1
 617.85 1520 l 1,15,-1
 593.55 1128 l 1,16,-1
 888.75 1370 l 1,17,-1
 976.95 1212 l 1,0,-1
EndSplineSet
EndChar
StartChar: plus
Encoding: 43 43 43
Width: 1630
Flags: W
Fore
961.5 1284 m 1,0,-1
 961.5 758 l 1,1,-1
 1434.9 758 l 1,2,-1
 1434.9 528 l 1,3,-1
 961.5 528 l 1,4,-1
 961.5 2 l 1,5,-1
 754.5 2 l 1,6,-1
 754.5 528 l 1,7,-1
 281.1 528 l 1,8,-1
 281.1 758 l 1,9,-1
 754.5 758 l 1,10,-1
 754.5 1284 l 1,11,-1
 961.5 1284 l 1,0,-1
EndSplineSet
EndChar
StartChar: comma
Encoding: 44 44 44
Width: 668
Flags: W
Fore
51.3496 -197 m 1,0,1
 144.95 -113 144.95 -113 189.05 -9 c 128,-1,2
 233.15 95 233.15 95 233.15 233 c 2,3,-1
 233.15 319 l 1,4,-1
 489.65 319 l 1,5,-1
 489.65 311 l 2,6,7
 489.65 90 489.65 90 406.4 -69.5 c 128,-1,8
 323.15 -229 323.15 -229 150.35 -338 c 1,9,-1
 51.3496 -197 l 1,0,1
EndSplineSet
EndChar
StartChar: hyphen
Encoding: 45 45 45
Width: 807
Flags: W
Fore
142.4 684 m 1,0,-1
 707.6 684 l 1,1,-1
 707.6 414 l 1,2,-1
 142.4 414 l 1,3,-1
 142.4 684 l 1,0,-1
EndSplineSet
KernsSLIFO: 356 -339 0 0 221 -225 0 0 376 -225 0 0 89 -225 0 0 88 -149 0 0 87 -112 0 0 86 -149 0 0 84 -339 0 0
EndChar
StartChar: period
Encoding: 46 46 46
Width: 677
Flags: W
Fore
185.05 162 m 0,0,1
 185.05 240 185.05 240 235.45 296 c 128,-1,2
 285.85 352 285.85 352 356.05 352 c 0,3,4
 427.15 352 427.15 352 477.55 296 c 128,-1,5
 527.95 240 527.95 240 527.95 162 c 0,6,7
 527.95 83 527.95 83 477.55 27 c 128,-1,8
 427.15 -29 427.15 -29 356.05 -29 c 0,9,10
 285.85 -29 285.85 -29 235.45 27 c 128,-1,11
 185.05 83 185.05 83 185.05 162 c 0,0,1
EndSplineSet
EndChar
StartChar: slash
Encoding: 47 47 47
Width: 710
Flags: W
Fore
510.8 1493 m 1,0,-1
 710.6 1493 l 1,1,-1
 236.3 -190 l 1,2,-1
 37.4004 -190 l 1,3,-1
 510.8 1493 l 1,0,-1
EndSplineSet
EndChar
StartChar: zero
Encoding: 48 48 48
Width: 1353
Flags: W
Fore
712.95 88 m 0,0,1
 820.95 88 820.95 88 861 197 c 128,-1,2
 901.05 306 901.05 306 901.05 745 c 0,3,4
 901.05 1181 901.05 1181 861 1292 c 128,-1,5
 820.95 1403 820.95 1403 712.95 1403 c 0,6,7
 604.95 1403 604.95 1403 564.9 1294 c 128,-1,8
 524.85 1185 524.85 1185 524.85 745 c 0,9,10
 524.85 306 524.85 306 564.9 197 c 128,-1,11
 604.95 88 604.95 88 712.95 88 c 0,0,1
712.95 -29 m 0,12,13
 443.85 -29 443.85 -29 300.75 170.5 c 128,-1,14
 157.65 370 157.65 370 157.65 745 c 0,15,16
 157.65 1120 157.65 1120 300.75 1320 c 128,-1,17
 443.85 1520 443.85 1520 712.95 1520 c 0,18,19
 981.15 1520 981.15 1520 1124.25 1320 c 128,-1,20
 1267.35 1120 1267.35 1120 1267.35 745 c 0,21,22
 1267.35 370 1267.35 370 1124.25 170.5 c 128,-1,23
 981.15 -29 981.15 -29 712.95 -29 c 0,12,13
EndSplineSet
EndChar
StartChar: one
Encoding: 49 49 49
Width: 1356
Flags: W
Fore
326.45 0 m 1,0,-1
 326.45 121 l 1,1,-1
 578.45 121 l 1,2,-1
 578.45 1329 l 1,3,-1
 298.55 1145 l 1,4,-1
 298.55 1294 l 1,5,-1
 636.05 1520 l 1,6,-1
 919.55 1520 l 1,7,-1
 919.55 121 l 1,8,-1
 1172.45 121 l 1,9,-1
 1172.45 0 l 1,10,-1
 326.45 0 l 1,0,-1
EndSplineSet
EndChar
StartChar: two
Encoding: 50 50 50
Width: 1351
Flags: W
Fore
311.9 1124 m 1,0,-1
 203.9 1124 l 1,1,-1
 203.9 1446 l 1,2,3
 313.7 1483 313.7 1483 421.25 1501.5 c 128,-1,4
 528.8 1520 528.8 1520 638.6 1520 c 0,5,6
 895.1 1520 895.1 1520 1038.65 1403.5 c 128,-1,7
 1182.2 1287 1182.2 1287 1182.2 1079 c 0,8,9
 1182.2 931 1182.2 931 1103 813.5 c 128,-1,10
 1023.8 696 1023.8 696 800.6 535 c 1,11,-1
 426.2 262 l 1,12,-1
 1062.5 262 l 1,13,-1
 1062.5 438 l 1,14,-1
 1185.8 438 l 1,15,-1
 1185.8 0 l 1,16,-1
 192.2 0 l 1,17,-1
 192.2 244 l 1,18,-1
 391.1 397 l 2,19,20
 645.8 592 645.8 592 730.4 729 c 128,-1,21
 815 866 815 866 815 1049 c 0,22,23
 815 1222 815 1222 750.65 1312.5 c 128,-1,24
 686.3 1403 686.3 1403 563 1403 c 0,25,26
 456.8 1403 456.8 1403 392.9 1331.5 c 128,-1,27
 329 1260 329 1260 311.9 1124 c 1,0,-1
EndSplineSet
EndChar
StartChar: three
Encoding: 51 51 51
Width: 1354
Flags: W
Fore
230.25 1450 m 1,0,1
 349.05 1485 349.05 1485 460.65 1502.5 c 128,-1,2
 572.25 1520 572.25 1520 678.45 1520 c 0,3,4
 921.45 1520 921.45 1520 1051.5 1423.5 c 128,-1,5
 1181.55 1327 1181.55 1327 1181.55 1147 c 0,6,7
 1181.55 1012 1181.55 1012 1106.85 928 c 128,-1,8
 1032.15 844 1032.15 844 888.15 815 c 1,9,10
 1063.65 784 1063.65 784 1150.05 682 c 128,-1,11
 1236.45 580 1236.45 580 1236.45 403 c 0,12,13
 1236.45 194 1236.45 194 1087.5 82.5 c 128,-1,14
 938.55 -29 938.55 -29 655.95 -29 c 0,15,16
 549.75 -29 549.75 -29 436.8 -9 c 128,-1,17
 323.85 11 323.85 11 200.55 51 c 1,18,-1
 200.55 379 l 1,19,-1
 309.45 379 l 1,20,21
 319.35 237 319.35 237 389.55 162.5 c 128,-1,22
 459.75 88 459.75 88 583.95 88 c 0,23,24
 720.75 88 720.75 88 795.45 172.5 c 128,-1,25
 870.15 257 870.15 257 870.15 412 c 0,26,27
 870.15 574 870.15 574 792.3 662 c 128,-1,28
 714.45 750 714.45 750 571.35 750 c 2,29,-1
 511.95 750 l 1,30,-1
 511.95 870 l 1,31,-1
 558.75 870 l 2,32,33
 691.05 870 691.05 870 757.65 938 c 128,-1,34
 824.25 1006 824.25 1006 824.25 1141 c 0,35,36
 824.25 1268 824.25 1268 761.7 1335.5 c 128,-1,37
 699.15 1403 699.15 1403 582.15 1403 c 0,38,39
 475.95 1403 475.95 1403 413.85 1338.5 c 128,-1,40
 351.75 1274 351.75 1274 339.15 1151 c 1,41,-1
 230.25 1151 l 1,42,-1
 230.25 1450 l 1,0,1
EndSplineSet
EndChar
StartChar: four
Encoding: 52 52 52
Width: 1353
Flags: W
Fore
1247.55 0 m 1,0,-1
 507.75 0 l 1,1,-1
 507.75 121 l 1,2,-1
 707.55 121 l 1,3,-1
 707.55 393 l 1,4,-1
 146.85 393 l 1,5,-1
 146.85 508 l 1,6,-1
 709.35 1520 l 1,7,-1
 1047.75 1520 l 1,8,-1
 1047.75 522 l 1,9,-1
 1278.15 522 l 1,10,-1
 1278.15 393 l 1,11,-1
 1047.75 393 l 1,12,-1
 1047.75 121 l 1,13,-1
 1247.55 121 l 1,14,-1
 1247.55 0 l 1,0,-1
707.55 522 m 1,15,-1
 707.55 1247 l 1,16,-1
 307.05 522 l 1,17,-1
 707.55 522 l 1,15,-1
EndSplineSet
EndChar
StartChar: five
Encoding: 53 53 53
Width: 1354
Flags: W
Fore
1111.4 1493 m 1,0,-1
 1111.4 1231 l 1,1,-1
 392.3 1231 l 1,2,-1
 392.3 903 l 1,3,4
 451.7 954 451.7 954 524.6 980 c 128,-1,5
 597.5 1006 597.5 1006 678.5 1006 c 0,6,7
 926.9 1006 926.9 1006 1070.9 866.5 c 128,-1,8
 1214.9 727 1214.9 727 1214.9 487 c 0,9,10
 1214.9 243 1214.9 243 1070.9 107 c 128,-1,11
 926.9 -29 926.9 -29 667.7 -29 c 0,12,13
 557.9 -29 557.9 -29 449.45 -9 c 128,-1,14
 341 11 341 11 223.1 53 c 1,15,-1
 223.1 379 l 1,16,-1
 331.1 379 l 1,17,18
 336.5 232 336.5 232 399.95 160 c 128,-1,19
 463.4 88 463.4 88 587.6 88 c 0,20,21
 719.9 88 719.9 88 783.8 186.5 c 128,-1,22
 847.7 285 847.7 285 847.7 487 c 0,23,24
 847.7 686 847.7 686 785.15 784.5 c 128,-1,25
 722.6 883 722.6 883 595.7 883 c 0,26,27
 527.3 883 527.3 883 473.75 851.5 c 128,-1,28
 420.2 820 420.2 820 374.3 754 c 1,29,-1
 284.3 754 l 1,30,-1
 284.3 1493 l 1,31,-1
 1111.4 1493 l 1,0,-1
EndSplineSet
EndChar
StartChar: six
Encoding: 54 54 54
Width: 1354
Flags: W
Fore
525.8 885 m 1,0,1
 584.3 937 584.3 937 656.75 963 c 128,-1,2
 729.2 989 729.2 989 814.7 989 c 0,3,4
 1020.8 989 1020.8 989 1138.25 855 c 128,-1,5
 1255.7 721 1255.7 721 1255.7 487 c 0,6,7
 1255.7 240 1255.7 240 1123.4 105.5 c 128,-1,8
 991.1 -29 991.1 -29 747.2 -29 c 0,9,10
 471.8 -29 471.8 -29 330.05 155.5 c 128,-1,11
 188.3 340 188.3 340 188.3 698 c 0,12,13
 188.3 1105 188.3 1105 345.8 1312.5 c 128,-1,14
 503.3 1520 503.3 1520 812.9 1520 c 0,15,16
 893.9 1520 893.9 1520 986.6 1505 c 128,-1,17
 1079.3 1490 1079.3 1490 1185.5 1460 c 1,18,-1
 1185.5 1196 l 1,19,-1
 1076.6 1196 l 1,20,21
 1054.1 1298 1054.1 1298 991.55 1350.5 c 128,-1,22
 929 1403 929 1403 830 1403 c 0,23,24
 669.8 1403 669.8 1403 598.25 1281 c 128,-1,25
 526.7 1159 526.7 1159 525.8 885 c 1,0,1
726.5 88 m 0,26,27
 819.2 88 819.2 88 858.8 175.5 c 128,-1,28
 898.4 263 898.4 263 898.4 479 c 0,29,30
 898.4 695 898.4 695 858.8 782.5 c 128,-1,31
 819.2 870 819.2 870 726.5 870 c 0,32,33
 633.8 870 633.8 870 594.65 782.5 c 128,-1,34
 555.5 695 555.5 695 555.5 479 c 0,35,36
 555.5 263 555.5 263 594.65 175.5 c 128,-1,37
 633.8 88 633.8 88 726.5 88 c 0,26,27
EndSplineSet
EndChar
StartChar: seven
Encoding: 55 55 55
Width: 1353
Flags: W
Fore
1200.35 1239 m 1,0,-1
 645.95 0 l 1,1,-1
 463.25 0 l 1,2,-1
 1003.25 1210 l 1,3,-1
 339.95 1210 l 1,4,-1
 339.95 1008 l 1,5,-1
 216.65 1008 l 1,6,-1
 216.65 1493 l 1,7,-1
 1200.35 1493 l 1,8,-1
 1200.35 1239 l 1,0,-1
EndSplineSet
EndChar
StartChar: eight
Encoding: 56 56 56
Width: 1353
Flags: W
Fore
927.85 795 m 1,0,1
 1088.05 766 1088.05 766 1171.3 664 c 128,-1,2
 1254.55 562 1254.55 562 1254.55 397 c 0,3,4
 1254.55 191 1254.55 191 1114.6 81 c 128,-1,5
 974.65 -29 974.65 -29 710.95 -29 c 0,6,7
 447.25 -29 447.25 -29 306.85 81 c 128,-1,8
 166.45 191 166.45 191 166.45 397 c 0,9,10
 166.45 562 166.45 562 250.15 664 c 128,-1,11
 333.85 766 333.85 766 493.15 795 c 1,12,13
 351.85 831 351.85 831 281.65 915.5 c 128,-1,14
 211.45 1000 211.45 1000 211.45 1130 c 0,15,16
 211.45 1320 211.45 1320 339.25 1420 c 128,-1,17
 467.05 1520 467.05 1520 710.95 1520 c 0,18,19
 953.95 1520 953.95 1520 1082.2 1420 c 128,-1,20
 1210.45 1320 1210.45 1320 1210.45 1130 c 0,21,22
 1210.45 1000 1210.45 1000 1139.8 915.5 c 128,-1,23
 1069.15 831 1069.15 831 927.85 795 c 1,0,1
862.15 1126 m 0,24,25
 862.15 1284 862.15 1284 827.95 1343.5 c 128,-1,26
 793.75 1403 793.75 1403 710.95 1403 c 0,27,28
 627.25 1403 627.25 1403 593.5 1343.5 c 128,-1,29
 559.75 1284 559.75 1284 559.75 1126 c 0,30,31
 559.75 969 559.75 969 593.5 910.5 c 128,-1,32
 627.25 852 627.25 852 710.95 852 c 0,33,34
 794.65 852 794.65 852 828.4 910.5 c 128,-1,35
 862.15 969 862.15 969 862.15 1126 c 0,24,25
897.25 414 m 0,36,37
 897.25 597 897.25 597 855.4 666 c 128,-1,38
 813.55 735 813.55 735 710.95 735 c 0,39,40
 607.45 735 607.45 735 566.05 666 c 128,-1,41
 524.65 597 524.65 597 524.65 414 c 0,42,43
 524.65 229 524.65 229 566.5 158.5 c 128,-1,44
 608.35 88 608.35 88 710.95 88 c 0,45,46
 812.65 88 812.65 88 854.95 158.5 c 128,-1,47
 897.25 229 897.25 229 897.25 414 c 0,36,37
EndSplineSet
EndChar
StartChar: nine
Encoding: 57 57 57
Width: 1352
Flags: W
Fore
698.55 1403 m 0,0,1
 605.85 1403 605.85 1403 566.7 1315.5 c 128,-1,2
 527.55 1228 527.55 1228 527.55 1012 c 0,3,4
 527.55 796 527.55 796 566.7 708.5 c 128,-1,5
 605.85 621 605.85 621 698.55 621 c 0,6,7
 791.25 621 791.25 621 830.85 708.5 c 128,-1,8
 870.45 796 870.45 796 870.45 1012 c 0,9,10
 870.45 1228 870.45 1228 830.85 1315.5 c 128,-1,11
 791.25 1403 791.25 1403 698.55 1403 c 0,0,1
899.25 608 m 1,12,13
 839.85 555 839.85 555 767.4 528.5 c 128,-1,14
 694.95 502 694.95 502 610.35 502 c 0,15,16
 405.15 502 405.15 502 287.7 635.5 c 128,-1,17
 170.25 769 170.25 769 170.25 1004 c 0,18,19
 170.25 1252 170.25 1252 301.65 1386 c 128,-1,20
 433.05 1520 433.05 1520 676.95 1520 c 0,21,22
 952.35 1520 952.35 1520 1094.55 1335 c 128,-1,23
 1236.75 1150 1236.75 1150 1236.75 793 c 0,24,25
 1236.75 386 1236.75 386 1079.25 178.5 c 128,-1,26
 921.75 -29 921.75 -29 612.15 -29 c 0,27,28
 531.15 -29 531.15 -29 438.45 -14 c 128,-1,29
 345.75 1 345.75 1 239.55 31 c 1,30,-1
 239.55 295 l 1,31,-1
 348.45 295 l 1,32,33
 370.95 193 370.95 193 433.5 140.5 c 128,-1,34
 496.05 88 496.05 88 595.95 88 c 0,35,36
 754.35 88 754.35 88 826.35 210.5 c 128,-1,37
 898.35 333 898.35 333 899.25 608 c 1,12,13
EndSplineSet
EndChar
StartChar: colon
Encoding: 58 58 58
Width: 718
Flags: W
Fore
206.95 813 m 0,0,1
 206.95 892 206.95 892 256.9 948 c 128,-1,2
 306.85 1004 306.85 1004 377.05 1004 c 0,3,4
 447.25 1004 447.25 1004 497.65 947.5 c 128,-1,5
 548.05 891 548.05 891 548.05 813 c 0,6,7
 548.05 735 548.05 735 498.1 680 c 128,-1,8
 448.15 625 448.15 625 377.05 625 c 0,9,10
 305.95 625 305.95 625 256.45 680 c 128,-1,11
 206.95 735 206.95 735 206.95 813 c 0,0,1
206.95 162 m 0,12,13
 206.95 240 206.95 240 256.9 296 c 128,-1,14
 306.85 352 306.85 352 377.05 352 c 0,15,16
 447.25 352 447.25 352 497.65 296 c 128,-1,17
 548.05 240 548.05 240 548.05 162 c 0,18,19
 548.05 83 548.05 83 497.65 27 c 128,-1,20
 447.25 -29 447.25 -29 377.05 -29 c 0,21,22
 306.85 -29 306.85 -29 256.9 27 c 128,-1,23
 206.95 83 206.95 83 206.95 162 c 0,12,13
EndSplineSet
EndChar
StartChar: semicolon
Encoding: 59 59 59
Width: 711
Flags: W
Fore
200.2 813 m 0,0,1
 200.2 892 200.2 892 250.15 948 c 128,-1,2
 300.1 1004 300.1 1004 370.3 1004 c 0,3,4
 440.5 1004 440.5 1004 490.9 947.5 c 128,-1,5
 541.3 891 541.3 891 541.3 813 c 0,6,7
 541.3 735 541.3 735 491.35 680 c 128,-1,8
 441.4 625 441.4 625 370.3 625 c 0,9,10
 299.2 625 299.2 625 249.7 680 c 128,-1,11
 200.2 735 200.2 735 200.2 813 c 0,0,1
78.7002 -188 m 1,12,13
 173.2 -105 173.2 -105 217.3 -1.5 c 128,-1,14
 261.4 102 261.4 102 261.4 240 c 2,15,-1
 261.4 328 l 1,16,-1
 517.9 328 l 1,17,18
 517.9 103 517.9 103 434.2 -59 c 128,-1,19
 350.5 -221 350.5 -221 178.6 -330 c 1,20,-1
 78.7002 -188 l 1,12,13
EndSplineSet
EndChar
StartChar: less
Encoding: 60 60 60
Width: 1630
Flags: W
Fore
1434.9 979 m 1,0,-1
 553.8 641 l 1,1,-1
 1434.9 305 l 1,2,-1
 1434.9 66 l 1,3,-1
 281.1 530 l 1,4,-1
 281.1 756 l 1,5,-1
 1434.9 1219 l 1,6,-1
 1434.9 979 l 1,0,-1
EndSplineSet
EndChar
StartChar: equal
Encoding: 61 61 61
Width: 1630
Flags: W
Fore
281.1 528 m 1,0,-1
 1434.9 528 l 1,1,-1
 1434.9 301 l 1,2,-1
 281.1 301 l 1,3,-1
 281.1 528 l 1,0,-1
281.1 983 m 1,4,-1
 1434.9 983 l 1,5,-1
 1434.9 756 l 1,6,-1
 281.1 756 l 1,7,-1
 281.1 983 l 1,4,-1
EndSplineSet
EndChar
StartChar: greater
Encoding: 62 62 62
Width: 1630
Flags: W
Fore
281.1 979 m 1,0,-1
 281.1 1219 l 1,1,-1
 1434.9 756 l 1,2,-1
 1434.9 530 l 1,3,-1
 281.1 66 l 1,4,-1
 281.1 305 l 1,5,-1
 1162.2 641 l 1,6,-1
 281.1 979 l 1,0,-1
EndSplineSet
EndChar
StartChar: question
Encoding: 63 63 63
Width: 1142
Flags: W
Fore
369.85 162 m 0,0,1
 369.85 240 369.85 240 420.25 296 c 128,-1,2
 470.65 352 470.65 352 540.85 352 c 0,3,4
 611.95 352 611.95 352 662.35 296 c 128,-1,5
 712.75 240 712.75 240 712.75 162 c 0,6,7
 712.75 83 712.75 83 662.35 27 c 128,-1,8
 611.95 -29 611.95 -29 540.85 -29 c 0,9,10
 470.65 -29 470.65 -29 420.25 27 c 128,-1,11
 369.85 83 369.85 83 369.85 162 c 0,0,1
181.75 1452 m 1,12,13
 293.35 1486 293.35 1486 394.15 1503 c 128,-1,14
 494.95 1520 494.95 1520 589.45 1520 c 0,15,16
 816.25 1520 816.25 1520 937.75 1409.5 c 128,-1,17
 1059.25 1299 1059.25 1299 1059.25 1094 c 0,18,19
 1059.25 892 1059.25 892 941.8 775.5 c 128,-1,20
 824.35 659 824.35 659 603.85 641 c 1,21,-1
 603.85 436 l 1,22,-1
 478.75 436 l 1,23,-1
 478.75 735 l 1,24,25
 604.75 778 604.75 778 663.25 870 c 128,-1,26
 721.75 962 721.75 962 721.75 1116 c 0,27,28
 721.75 1260 721.75 1260 666.85 1333.5 c 128,-1,29
 611.95 1407 611.95 1407 504.85 1407 c 0,30,31
 405.85 1407 405.85 1407 352.3 1341 c 128,-1,32
 298.75 1275 298.75 1275 290.65 1145 c 1,33,-1
 181.75 1145 l 1,34,-1
 181.75 1452 l 1,12,13
EndSplineSet
EndChar
StartChar: at
Encoding: 64 64 64
Width: 1945
Flags: W
Fore
1246.7 504 m 2,0,-1
 1246.7 580 l 2,1,2
 1246.7 709 1246.7 709 1190.9 787.5 c 128,-1,3
 1135.1 866 1135.1 866 1044.2 866 c 0,4,5
 955.1 866 955.1 866 900.65 778.5 c 128,-1,6
 846.2 691 846.2 691 846.2 543 c 0,7,8
 846.2 395 846.2 395 900.65 307 c 128,-1,9
 955.1 219 955.1 219 1044.2 219 c 0,10,11
 1135.1 219 1135.1 219 1190.9 296.5 c 128,-1,12
 1246.7 374 1246.7 374 1246.7 504 c 2,0,-1
1246.7 240 m 1,13,14
 1207.1 168 1207.1 168 1142.75 130 c 128,-1,15
 1078.4 92 1078.4 92 997.4 92 c 0,16,17
 825.5 92 825.5 92 727.4 212 c 128,-1,18
 629.3 332 629.3 332 629.3 543 c 0,19,20
 629.3 754 629.3 754 727.4 873.5 c 128,-1,21
 825.5 993 825.5 993 997.4 993 c 0,22,23
 1078.4 993 1078.4 993 1142.75 955 c 128,-1,24
 1207.1 917 1207.1 917 1246.7 846 c 1,25,-1
 1246.7 971 l 1,26,-1
 1443.8 971 l 1,27,-1
 1443.8 229 l 1,28,29
 1572.5 268 1572.5 268 1642.7 385 c 128,-1,30
 1712.9 502 1712.9 502 1712.9 678 c 0,31,32
 1712.9 821 1712.9 821 1663.4 938 c 128,-1,33
 1613.9 1055 1613.9 1055 1512.2 1151 c 0,34,35
 1429.4 1229 1429.4 1229 1317.8 1271 c 128,-1,36
 1206.2 1313 1206.2 1313 1080.2 1313 c 0,37,38
 963.2 1313 963.2 1313 861.5 1278 c 128,-1,39
 759.8 1243 759.8 1243 675.2 1174 c 0,40,41
 547.4 1068 547.4 1068 478.55 904 c 128,-1,42
 409.7 740 409.7 740 409.7 543 c 0,43,44
 409.7 388 409.7 388 453.35 250.5 c 128,-1,45
 497 113 497 113 577.1 12 c 0,46,47
 673.4 -107 673.4 -107 798.95 -168 c 128,-1,48
 924.5 -229 924.5 -229 1071.2 -229 c 0,49,50
 1181 -229 1181 -229 1283.6 -195 c 128,-1,51
 1386.2 -161 1386.2 -161 1478.9 -94 c 1,52,-1
 1530.2 -188 l 1,53,54
 1415 -272 1415 -272 1290.35 -314 c 128,-1,55
 1165.7 -356 1165.7 -356 1036.1 -356 c 0,56,57
 861.5 -356 861.5 -356 715.7 -293 c 128,-1,58
 569.9 -230 569.9 -230 455.6 -104 c 0,59,60
 342.2 20 342.2 20 282.8 185.5 c 128,-1,61
 223.4 351 223.4 351 223.4 543 c 0,62,63
 223.4 735 223.4 735 282.8 900 c 128,-1,64
 342.2 1065 342.2 1065 455.6 1190 c 0,65,66
 570.8 1316 570.8 1316 717.95 1378 c 128,-1,67
 865.1 1440 865.1 1440 1049.6 1440 c 0,68,69
 1209.8 1440 1209.8 1440 1341.2 1391.5 c 128,-1,70
 1472.6 1343 1472.6 1343 1576.1 1245 c 1,71,72
 1695.8 1134 1695.8 1134 1755.2 992 c 128,-1,73
 1814.6 850 1814.6 850 1814.6 676 c 0,74,75
 1814.6 400 1814.6 400 1672.4 246 c 128,-1,76
 1530.2 92 1530.2 92 1274.6 92 c 2,77,-1
 1246.7 92 l 1,78,-1
 1246.7 240 l 1,13,14
EndSplineSet
EndChar
StartChar: A
Encoding: 65 65 65
Width: 1509
Flags: W
Fore
65.4004 0 m 1,0,-1
 65.4004 121 l 1,1,-1
 175.2 121 l 1,2,-1
 681 1493 l 1,3,-1
 896.1 1493 l 1,4,-1
 1402.8 121 l 1,5,-1
 1530.6 121 l 1,6,-1
 1530.6 0 l 1,7,-1
 901.5 0 l 1,8,-1
 901.5 121 l 1,9,-1
 1032.9 121 l 1,10,-1
 922.2 426 l 1,11,-1
 417.3 426 l 1,12,-1
 304.8 121 l 1,13,-1
 465 121 l 1,14,-1
 465 0 l 1,15,-1
 65.4004 0 l 1,0,-1
461.4 547 m 1,16,-1
 878.1 547 l 1,17,-1
 671.1 1118 l 1,18,-1
 461.4 547 l 1,16,-1
EndSplineSet
KernsSLIFO: 563 -83 0 0 375 -83 0 0 7813 -83 0 0 7811 -83 0 0 7809 -83 0 0 373 -83 0 0 539 -36 0 0 355 -36 0 0 562 -102 0 0 7922 -102 0 0 374 -102 0 0 7812 -102 0 0 7810 -102 0 0 7808 -102 0 0 372 -102 0 0 538 -112 0 0 354 -112 0 0 357 -36 0 0 356 -112 0 0 253 -83 0 0 221 -102 0 0 64258 -36 0 0 64257 -36 0 0 376 -102 0 0 255 -83 0 0 8217 -243 0 0 8221 -243 0 0 121 -83 0 0 119 -83 0 0 118 -83 0 0 116 -36 0 0 102 -36 0 0 89 -102 0 0 87 -102 0 0 86 -149 0 0 84 -112 0 0
EndChar
StartChar: B
Encoding: 66 66 66
Width: 1643
Flags: W
Fore
172.1 0 m 1,0,-1
 172.1 121 l 1,1,-1
 344 121 l 1,2,-1
 344 1372 l 1,3,-1
 172.1 1372 l 1,4,-1
 172.1 1493 l 1,5,-1
 968.6 1493 l 2,6,7
 1214.3 1493 1214.3 1493 1337.6 1401 c 128,-1,8
 1460.9 1309 1460.9 1309 1460.9 1124 c 0,9,10
 1460.9 991 1460.9 991 1375.85 913 c 128,-1,11
 1290.8 835 1290.8 835 1123.4 815 c 1,12,13
 1325.9 794 1325.9 794 1433.9 695 c 128,-1,14
 1541.9 596 1541.9 596 1541.9 432 c 0,15,16
 1541.9 210 1541.9 210 1391.15 105 c 128,-1,17
 1240.4 0 1240.4 0 919.1 0 c 2,18,-1
 172.1 0 l 1,0,-1
690.5 870 m 1,19,-1
 808.4 870 l 2,20,21
 963.2 870 963.2 870 1037.9 932.5 c 128,-1,22
 1112.6 995 1112.6 995 1112.6 1124 c 0,23,24
 1112.6 1254 1112.6 1254 1040.15 1313 c 128,-1,25
 967.7 1372 967.7 1372 808.4 1372 c 2,26,-1
 690.5 1372 l 1,27,-1
 690.5 870 l 1,19,-1
690.5 121 m 1,28,-1
 819.2 121 l 2,29,30
 991.1 121 991.1 121 1073.9 197 c 128,-1,31
 1156.7 273 1156.7 273 1156.7 432 c 0,32,33
 1156.7 592 1156.7 592 1073 671 c 128,-1,34
 989.3 750 989.3 750 819.2 750 c 2,35,-1
 690.5 750 l 1,36,-1
 690.5 121 l 1,28,-1
EndSplineSet
KernsSLIFO: 7922 -36 0 0 562 -36 0 0 374 -36 0 0 558 38 0 0 492 38 0 0 490 38 0 0 336 38 0 0 334 38 0 0 332 38 0 0 290 38 0 0 288 38 0 0 284 38 0 0 266 38 0 0 264 38 0 0 268 38 0 0 262 38 0 0 286 38 0 0 221 -36 0 0 210 38 0 0 212 38 0 0 211 38 0 0 376 -36 0 0 338 38 0 0 213 38 0 0 216 38 0 0 214 38 0 0 199 38 0 0 89 -36 0 0 79 38 0 0 71 38 0 0 67 38 0 0 45 38 0 0
EndChar
StartChar: C
Encoding: 67 67 67
Width: 1547
Flags: W
Fore
1454 426 m 1,0,1
 1400.9 195 1400.9 195 1263.2 83 c 128,-1,2
 1125.5 -29 1125.5 -29 893.3 -29 c 0,3,4
 553.1 -29 553.1 -29 355.55 179.5 c 128,-1,5
 158 388 158 388 158 745 c 0,6,7
 158 1103 158 1103 355.55 1311.5 c 128,-1,8
 553.1 1520 553.1 1520 893.3 1520 c 0,9,10
 1013 1520 1013 1520 1142.6 1488 c 128,-1,11
 1272.2 1456 1272.2 1456 1417.1 1391 c 1,12,-1
 1417.1 1024 l 1,13,-1
 1302.8 1024 l 1,14,15
 1267.7 1212 1267.7 1212 1175 1305.5 c 128,-1,16
 1082.3 1399 1082.3 1399 930.2 1399 c 0,17,18
 734 1399 734 1399 638.6 1238.5 c 128,-1,19
 543.2 1078 543.2 1078 543.2 745 c 0,20,21
 543.2 412 543.2 412 638.6 252 c 128,-1,22
 734 92 734 92 932 92 c 0,23,24
 1066.1 92 1066.1 92 1151.15 175 c 128,-1,25
 1236.2 258 1236.2 258 1274.9 426 c 1,26,-1
 1454 426 l 1,0,1
EndSplineSet
KernsSLIFO: 46 -36 0 0 44 -36 0 0
EndChar
StartChar: D
Encoding: 68 68 68
Width: 1687
Flags: W
Fore
694.1 121 m 1,0,-1
 819.2 121 l 2,1,2
 1029.8 121 1029.8 121 1127.45 271 c 128,-1,3
 1225.1 421 1225.1 421 1225.1 748 c 0,4,5
 1225.1 1073 1225.1 1073 1127.9 1222.5 c 128,-1,6
 1030.7 1372 1030.7 1372 819.2 1372 c 2,7,-1
 694.1 1372 l 1,8,-1
 694.1 121 l 1,0,-1
175.7 0 m 1,9,-1
 175.7 121 l 1,10,-1
 347.6 121 l 1,11,-1
 347.6 1372 l 1,12,-1
 175.7 1372 l 1,13,-1
 175.7 1493 l 1,14,-1
 865.1 1493 l 2,15,16
 1226.9 1493 1226.9 1493 1418.6 1301 c 128,-1,17
 1610.3 1109 1610.3 1109 1610.3 748 c 0,18,19
 1610.3 385 1610.3 385 1418.15 192.5 c 128,-1,20
 1226 0 1226 0 865.1 0 c 2,21,-1
 175.7 0 l 1,9,-1
EndSplineSet
KernsSLIFO: 86 -36 0 0 46 -73 0 0 45 38 0 0 44 -73 0 0
EndChar
StartChar: E
Encoding: 69 69 69
Width: 1482
Flags: W
Fore
164 0 m 1,0,-1
 164 121 l 1,1,-1
 335.9 121 l 1,2,-1
 335.9 1372 l 1,3,-1
 164 1372 l 1,4,-1
 164 1493 l 1,5,-1
 1371.8 1493 l 1,6,-1
 1371.8 1141 l 1,7,-1
 1247.6 1141 l 1,8,-1
 1247.6 1356 l 1,9,-1
 682.4 1356 l 1,10,-1
 682.4 877 l 1,11,-1
 1034.3 877 l 1,12,-1
 1034.3 1067 l 1,13,-1
 1157.6 1067 l 1,14,-1
 1157.6 551 l 1,15,-1
 1034.3 551 l 1,16,-1
 1034.3 741 l 1,17,-1
 682.4 741 l 1,18,-1
 682.4 137 l 1,19,-1
 1264.7 137 l 1,20,-1
 1264.7 352 l 1,21,-1
 1388 352 l 1,22,-1
 1388 0 l 1,23,-1
 164 0 l 1,0,-1
EndSplineSet
KernsSLIFO: 45 38 0 0
EndChar
StartChar: F
Encoding: 70 70 70
Width: 1384
Flags: W
Fore
162.55 0 m 1,0,-1
 162.55 121 l 1,1,-1
 334.45 121 l 1,2,-1
 334.45 1372 l 1,3,-1
 162.55 1372 l 1,4,-1
 162.55 1493 l 1,5,-1
 1360.45 1493 l 1,6,-1
 1360.45 1141 l 1,7,-1
 1237.15 1141 l 1,8,-1
 1237.15 1356 l 1,9,-1
 682.75 1356 l 1,10,-1
 682.75 877 l 1,11,-1
 1023.85 877 l 1,12,-1
 1023.85 1067 l 1,13,-1
 1147.15 1067 l 1,14,-1
 1147.15 551 l 1,15,-1
 1023.85 551 l 1,16,-1
 1023.85 741 l 1,17,-1
 682.75 741 l 1,18,-1
 682.75 121 l 1,19,-1
 894.25 121 l 1,20,-1
 894.25 0 l 1,21,-1
 162.55 0 l 1,0,-1
EndSplineSet
KernsSLIFO: 252 -36 0 0 229 -112 0 0 230 -112 0 0 59 -73 0 0 242 -112 0 0 45 -92 0 0 46 -206 0 0 367 -36 0 0 245 -112 0 0 235 -112 0 0 249 -36 0 0 44 -206 0 0 224 -112 0 0 195 -120 0 0 234 -112 0 0 341 -36 0 0 232 -112 0 0 196 -120 0 0 193 -120 0 0 251 -36 0 0 227 -112 0 0 194 -120 0 0 248 -112 0 0 244 -112 0 0 65 -120 0 0 97 -112 0 0 228 -112 0 0 246 -112 0 0 250 -36 0 0 225 -112 0 0 345 -36 0 0 226 -112 0 0 233 -112 0 0 283 -112 0 0 101 -112 0 0 339 -112 0 0 111 -112 0 0 114 -36 0 0 117 -36 0 0 192 -120 0 0 58 -73 0 0 243 -112 0 0
EndChar
StartChar: G
Encoding: 71 71 71
Width: 1657
Flags: W
Fore
1351.75 1024 m 1,0,1
 1311.25 1222 1311.25 1222 1216.75 1310.5 c 128,-1,2
 1122.25 1399 1122.25 1399 950.35 1399 c 0,3,4
 741.55 1399 741.55 1399 643.9 1241.5 c 128,-1,5
 546.25 1084 546.25 1084 546.25 745 c 0,6,7
 546.25 409 546.25 409 639.85 250.5 c 128,-1,8
 733.45 92 733.45 92 931.45 92 c 0,9,10
 1007.05 92 1007.05 92 1071.85 111 c 128,-1,11
 1136.65 130 1136.65 130 1189.75 168 c 1,12,-1
 1189.75 578 l 1,13,-1
 1027.75 578 l 1,14,-1
 1027.75 698 l 1,15,-1
 1511.95 698 l 1,16,-1
 1511.95 125 l 1,17,18
 1360.75 47 1360.75 47 1210 9 c 128,-1,19
 1059.25 -29 1059.25 -29 901.75 -29 c 0,20,21
 556.15 -29 556.15 -29 358.6 178 c 128,-1,22
 161.05 385 161.05 385 161.05 745 c 0,23,24
 161.05 1106 161.05 1106 358.6 1313 c 128,-1,25
 556.15 1520 556.15 1520 901.75 1520 c 0,26,27
 1045.75 1520 1045.75 1520 1185.25 1488 c 128,-1,28
 1324.75 1456 1324.75 1456 1466.05 1391 c 1,29,-1
 1466.05 1024 l 1,30,-1
 1351.75 1024 l 1,0,1
EndSplineSet
KernsSLIFO: 46 -73 0 0 45 38 0 0 44 -73 0 0
EndChar
StartChar: H
Encoding: 72 72 72
Width: 1838
Flags: W
Fore
183.35 0 m 1,0,-1
 183.35 121 l 1,1,-1
 355.25 121 l 1,2,-1
 355.25 1372 l 1,3,-1
 183.35 1372 l 1,4,-1
 183.35 1493 l 1,5,-1
 874.55 1493 l 1,6,-1
 874.55 1372 l 1,7,-1
 701.75 1372 l 1,8,-1
 701.75 870 l 1,9,-1
 1236.35 870 l 1,10,-1
 1236.35 1372 l 1,11,-1
 1064.45 1372 l 1,12,-1
 1064.45 1493 l 1,13,-1
 1755.65 1493 l 1,14,-1
 1755.65 1372 l 1,15,-1
 1582.85 1372 l 1,16,-1
 1582.85 121 l 1,17,-1
 1755.65 121 l 1,18,-1
 1755.65 0 l 1,19,-1
 1064.45 0 l 1,20,-1
 1064.45 121 l 1,21,-1
 1236.35 121 l 1,22,-1
 1236.35 733 l 1,23,-1
 701.75 733 l 1,24,-1
 701.75 121 l 1,25,-1
 874.55 121 l 1,26,-1
 874.55 0 l 1,27,-1
 183.35 0 l 1,0,-1
EndSplineSet
EndChar
StartChar: I
Encoding: 73 73 73
Width: 910
Flags: W
Fore
134.4 0 m 1,0,-1
 134.4 121 l 1,1,-1
 306.3 121 l 1,2,-1
 306.3 1372 l 1,3,-1
 134.4 1372 l 1,4,-1
 134.4 1493 l 1,5,-1
 825.6 1493 l 1,6,-1
 825.6 1372 l 1,7,-1
 652.8 1372 l 1,8,-1
 652.8 121 l 1,9,-1
 825.6 121 l 1,10,-1
 825.6 0 l 1,11,-1
 134.4 0 l 1,0,-1
EndSplineSet
EndChar
StartChar: J
Encoding: 74 74 74
Width: 909
Flags: W
Fore
-97.9502 -358 m 1,0,-1
 -97.9502 -123 l 1,1,-1
 19.0498 -123 l 1,2,3
 24.4502 -217 24.4502 -217 59.0996 -261 c 128,-1,4
 93.75 -305 93.75 -305 162.15 -305 c 0,5,6
 249.45 -305 249.45 -305 284.1 -230.5 c 128,-1,7
 318.75 -156 318.75 -156 318.75 49 c 2,8,-1
 318.75 1372 l 1,9,-1
 123.45 1372 l 1,10,-1
 123.45 1493 l 1,11,-1
 838.95 1493 l 1,12,-1
 838.95 1372 l 1,13,-1
 667.05 1372 l 1,14,-1
 667.05 41 l 2,15,16
 667.05 -202 667.05 -202 556.8 -314 c 128,-1,17
 446.55 -426 446.55 -426 206.25 -426 c 0,18,19
 131.55 -426 131.55 -426 55.9502 -409 c 128,-1,20
 -19.6504 -392 -19.6504 -392 -97.9502 -358 c 1,0,-1
EndSplineSet
KernsSLIFO: 59 -83 0 0 58 -83 0 0 46 -159 0 0 44 -83 0 0
EndChar
StartChar: K
Encoding: 75 75 75
Width: 1698
Flags: W
Fore
183.35 0 m 1,0,-1
 183.35 121 l 1,1,-1
 355.25 121 l 1,2,-1
 355.25 1372 l 1,3,-1
 183.35 1372 l 1,4,-1
 183.35 1493 l 1,5,-1
 874.55 1493 l 1,6,-1
 874.55 1372 l 1,7,-1
 701.75 1372 l 1,8,-1
 701.75 827 l 1,9,-1
 1271.45 1372 l 1,10,-1
 1127.45 1372 l 1,11,-1
 1127.45 1493 l 1,12,-1
 1628.75 1493 l 1,13,-1
 1628.75 1372 l 1,14,-1
 1449.65 1372 l 1,15,-1
 967.25 911 l 1,16,-1
 1623.35 121 l 1,17,-1
 1755.65 121 l 1,18,-1
 1755.65 0 l 1,19,-1
 1300.25 0 l 1,20,-1
 701.75 725 l 1,21,-1
 701.75 121 l 1,22,-1
 874.55 121 l 1,23,-1
 874.55 0 l 1,24,-1
 183.35 0 l 1,0,-1
EndSplineSet
KernsSLIFO: 367 -45 0 0 366 -73 0 0 283 -45 0 0 268 -55 0 0 262 -55 0 0 253 -92 0 0 221 -55 0 0 217 -73 0 0 219 -73 0 0 218 -73 0 0 210 -55 0 0 212 -55 0 0 211 -55 0 0 193 -83 0 0 194 -83 0 0 376 -55 0 0 255 -92 0 0 339 -45 0 0 338 -55 0 0 213 -55 0 0 195 -83 0 0 192 -83 0 0 248 -36 0 0 216 -55 0 0 252 -45 0 0 251 -45 0 0 249 -45 0 0 250 -45 0 0 245 -45 0 0 246 -45 0 0 244 -45 0 0 242 -45 0 0 243 -45 0 0 235 -45 0 0 234 -45 0 0 232 -45 0 0 233 -45 0 0 220 -73 0 0 214 -55 0 0 199 -55 0 0 196 -83 0 0 121 -92 0 0 117 -45 0 0 111 -45 0 0 101 -45 0 0 89 -55 0 0 87 -73 0 0 85 -73 0 0 79 -55 0 0 67 -55 0 0 65 -83 0 0 45 -149 0 0
EndChar
StartChar: L
Encoding: 76 76 76
Width: 1370
Flags: W
Fore
160.95 0 m 1,0,-1
 160.95 121 l 1,1,-1
 332.85 121 l 1,2,-1
 332.85 1372 l 1,3,-1
 160.95 1372 l 1,4,-1
 160.95 1493 l 1,5,-1
 852.15 1493 l 1,6,-1
 852.15 1372 l 1,7,-1
 679.35 1372 l 1,8,-1
 679.35 137 l 1,9,-1
 1208.55 137 l 1,10,-1
 1208.55 373 l 1,11,-1
 1330.05 373 l 1,12,-1
 1330.05 0 l 1,13,-1
 160.95 0 l 1,0,-1
EndSplineSet
KernsSLIFO: 366 -112 0 0 356 -167 0 0 253 -73 0 0 221 -131 0 0 217 -112 0 0 219 -112 0 0 218 -112 0 0 376 -131 0 0 255 -73 0 0 8217 -491 0 0 8216 -491 0 0 8221 -491 0 0 8220 -491 0 0 220 -112 0 0 121 -73 0 0 89 -131 0 0 87 -139 0 0 86 -243 0 0 85 -112 0 0 84 -167 0 0
EndChar
StartChar: M
Encoding: 77 77 77
Width: 2153
Flags: W
Fore
190.25 0 m 1,0,-1
 190.25 121 l 1,1,-1
 361.25 121 l 1,2,-1
 361.25 1372 l 1,3,-1
 190.25 1372 l 1,4,-1
 190.25 1493 l 1,5,-1
 744.65 1493 l 1,6,-1
 1128.05 535 l 1,7,-1
 1513.25 1493 l 1,8,-1
 2066.75 1493 l 1,9,-1
 2066.75 1372 l 1,10,-1
 1894.85 1372 l 1,11,-1
 1894.85 121 l 1,12,-1
 2066.75 121 l 1,13,-1
 2066.75 0 l 1,14,-1
 1375.55 0 l 1,15,-1
 1375.55 121 l 1,16,-1
 1546.55 121 l 1,17,-1
 1546.55 1260 l 1,18,-1
 1129.85 219 l 1,19,-1
 902.15 219 l 1,20,-1
 487.25 1260 l 1,21,-1
 487.25 121 l 1,22,-1
 658.25 121 l 1,23,-1
 658.25 0 l 1,24,-1
 190.25 0 l 1,0,-1
EndSplineSet
EndChar
StartChar: N
Encoding: 78 78 78
Width: 1778
Flags: W
Fore
175 0 m 1,0,-1
 175 121 l 1,1,-1
 346.9 121 l 1,2,-1
 346.9 1372 l 1,3,-1
 175 1372 l 1,4,-1
 175 1493 l 1,5,-1
 595.3 1493 l 1,6,-1
 1406.2 436 l 1,7,-1
 1406.2 1372 l 1,8,-1
 1235.2 1372 l 1,9,-1
 1235.2 1493 l 1,10,-1
 1705 1493 l 1,11,-1
 1705 1372 l 1,12,-1
 1533.1 1372 l 1,13,-1
 1533.1 0 l 1,14,-1
 1297.3 0 l 1,15,-1
 473.8 1079 l 1,16,-1
 473.8 121 l 1,17,-1
 644.8 121 l 1,18,-1
 644.8 0 l 1,19,-1
 175 0 l 1,0,-1
EndSplineSet
KernsSLIFO: 59 -73 0 0 58 -73 0 0 46 -131 0 0 44 -131 0 0
EndChar
StartChar: O
Encoding: 79 79 79
Width: 1694
Flags: W
Fore
891 92 m 0,0,1
 1062.9 92 1062.9 92 1146.6 253 c 128,-1,2
 1230.3 414 1230.3 414 1230.3 745 c 0,3,4
 1230.3 1077 1230.3 1077 1146.6 1238 c 128,-1,5
 1062.9 1399 1062.9 1399 891 1399 c 0,6,7
 720 1399 720 1399 635.85 1236.5 c 128,-1,8
 551.7 1074 551.7 1074 551.7 745 c 0,9,10
 551.7 417 551.7 417 635.85 254.5 c 128,-1,11
 720 92 720 92 891 92 c 0,0,1
891 -29 m 0,12,13
 551.7 -29 551.7 -29 359.1 177 c 128,-1,14
 166.5 383 166.5 383 166.5 745 c 0,15,16
 166.5 1107 166.5 1107 359.55 1313.5 c 128,-1,17
 552.6 1520 552.6 1520 891 1520 c 0,18,19
 1230.3 1520 1230.3 1520 1422.9 1314 c 128,-1,20
 1615.5 1108 1615.5 1108 1615.5 745 c 0,21,22
 1615.5 383 1615.5 383 1422.45 177 c 128,-1,23
 1229.4 -29 1229.4 -29 891 -29 c 0,12,13
EndSplineSet
KernsSLIFO: 88 -36 0 0 86 -36 0 0 46 -120 0 0 45 75 0 0 44 -120 0 0
EndChar
StartChar: P
Encoding: 80 80 80
Width: 1465
Flags: W
Fore
165.65 0 m 1,0,-1
 165.65 121 l 1,1,-1
 337.55 121 l 1,2,-1
 337.55 1372 l 1,3,-1
 165.65 1372 l 1,4,-1
 165.65 1493 l 1,5,-1
 930.65 1493 l 2,6,7
 1154.75 1493 1154.75 1493 1287.05 1374.5 c 128,-1,8
 1419.35 1256 1419.35 1256 1419.35 1057 c 0,9,10
 1419.35 857 1419.35 857 1286.6 737.5 c 128,-1,11
 1153.85 618 1153.85 618 930.65 618 c 2,12,-1
 684.05 618 l 1,13,-1
 684.05 121 l 1,14,-1
 900.95 121 l 1,15,-1
 900.95 0 l 1,16,-1
 165.65 0 l 1,0,-1
684.05 739 m 1,17,-1
 784.85 739 l 2,18,19
 901.85 739 901.85 739 971.6 825.5 c 128,-1,20
 1041.35 912 1041.35 912 1041.35 1057 c 0,21,22
 1041.35 1201 1041.35 1201 972.05 1286.5 c 128,-1,23
 902.75 1372 902.75 1372 784.85 1372 c 2,24,-1
 684.05 1372 l 1,25,-1
 684.05 739 l 1,17,-1
EndSplineSet
KernsSLIFO: 283 -55 0 0 193 -149 0 0 194 -149 0 0 8222 -264 0 0 8218 -264 0 0 339 -55 0 0 195 -149 0 0 192 -149 0 0 248 -55 0 0 230 -55 0 0 245 -55 0 0 246 -55 0 0 244 -55 0 0 242 -55 0 0 243 -55 0 0 235 -55 0 0 234 -55 0 0 232 -55 0 0 233 -55 0 0 229 -55 0 0 227 -55 0 0 228 -55 0 0 226 -55 0 0 224 -55 0 0 225 -55 0 0 196 -149 0 0 111 -55 0 0 101 -55 0 0 97 -55 0 0 65 -149 0 0 59 -73 0 0 58 -73 0 0 46 -339 0 0 45 -112 0 0 44 -264 0 0
EndChar
StartChar: Q
Encoding: 81 81 81
Width: 1694
Flags: W
Fore
885.6 -29 m 1,0,1
 545.4 -23 545.4 -23 355.95 181 c 128,-1,2
 166.5 385 166.5 385 166.5 745 c 0,3,4
 166.5 1107 166.5 1107 359.55 1313.5 c 128,-1,5
 552.6 1520 552.6 1520 891 1520 c 0,6,7
 1230.3 1520 1230.3 1520 1422.9 1314 c 128,-1,8
 1615.5 1108 1615.5 1108 1615.5 745 c 0,9,10
 1615.5 427 1615.5 427 1467.45 229 c 128,-1,11
 1319.4 31 1319.4 31 1045.8 -16 c 1,12,13
 1093.5 -73 1093.5 -73 1161.9 -98 c 128,-1,14
 1230.3 -123 1230.3 -123 1339.2 -123 c 2,15,-1
 1385.1 -123 l 1,16,-1
 1385.1 -369 l 1,17,-1
 1359 -369 l 2,18,19
 1188 -369 1188 -369 1073.7 -287 c 128,-1,20
 959.4 -205 959.4 -205 885.6 -29 c 1,0,1
891 92 m 0,21,22
 1062.9 92 1062.9 92 1146.6 253 c 128,-1,23
 1230.3 414 1230.3 414 1230.3 745 c 0,24,25
 1230.3 1077 1230.3 1077 1146.6 1238 c 128,-1,26
 1062.9 1399 1062.9 1399 891 1399 c 0,27,28
 720 1399 720 1399 635.85 1236.5 c 128,-1,29
 551.7 1074 551.7 1074 551.7 745 c 0,30,31
 551.7 417 551.7 417 635.85 254.5 c 128,-1,32
 720 92 720 92 891 92 c 0,21,22
EndSplineSet
KernsSLIFO: 46 -102 0 0 45 75 0 0 44 -102 0 0
EndChar
StartChar: R
Encoding: 82 82 82
Width: 1622
Flags: W
Fore
1068.8 729 m 1,0,1
 1148.9 716 1148.9 716 1203.8 670 c 128,-1,2
 1258.7 624 1258.7 624 1299.2 537 c 2,3,-1
 1495.4 121 l 1,4,-1
 1633.1 121 l 1,5,-1
 1633.1 0 l 1,6,-1
 1191.2 0 l 1,7,-1
 977 451 l 1,8,9
 914.9 591 914.9 591 871.25 629.5 c 128,-1,10
 827.6 668 827.6 668 750.2 668 c 2,11,-1
 695.3 668 l 1,12,-1
 695.3 121 l 1,13,-1
 868.1 121 l 1,14,-1
 868.1 0 l 1,15,-1
 176.9 0 l 1,16,-1
 176.9 121 l 1,17,-1
 348.8 121 l 1,18,-1
 348.8 1372 l 1,19,-1
 176.9 1372 l 1,20,-1
 176.9 1493 l 1,21,-1
 943.7 1493 l 2,22,23
 1177.7 1493 1177.7 1493 1305.05 1388.5 c 128,-1,24
 1432.4 1284 1432.4 1284 1432.4 1092 c 0,25,26
 1432.4 936 1432.4 936 1341.95 845.5 c 128,-1,27
 1251.5 755 1251.5 755 1068.8 729 c 1,0,1
695.3 788 m 1,28,-1
 813.2 788 l 2,29,30
 939.2 788 939.2 788 1007.15 864 c 128,-1,31
 1075.1 940 1075.1 940 1075.1 1081 c 0,32,33
 1075.1 1222 1075.1 1222 1007.15 1297 c 128,-1,34
 939.2 1372 939.2 1372 813.2 1372 c 2,35,-1
 695.3 1372 l 1,36,-1
 695.3 788 l 1,28,-1
EndSplineSet
KernsSLIFO: 356 -36 0 0 253 -36 0 0 221 -63 0 0 376 -63 0 0 255 -36 0 0 8217 -73 0 0 8221 -73 0 0 248 38 0 0 230 47 0 0 229 47 0 0 227 47 0 0 228 47 0 0 226 47 0 0 224 47 0 0 225 47 0 0 121 -36 0 0 97 47 0 0 89 -63 0 0 87 -45 0 0 86 -73 0 0 84 -36 0 0
EndChar
StartChar: S
Encoding: 83 83 83
Width: 1405
Flags: W
Fore
216.75 72 m 1,0,-1
 216.75 426 l 1,1,-1
 331.05 426 l 1,2,3
 357.15 258 357.15 258 454.35 175 c 128,-1,4
 551.55 92 551.55 92 723.45 92 c 0,5,6
 862.95 92 862.95 92 935.85 151 c 128,-1,7
 1008.75 210 1008.75 210 1008.75 324 c 0,8,9
 1008.75 414 1008.75 414 959.25 464 c 128,-1,10
 909.75 514 909.75 514 754.95 557 c 2,11,-1
 553.35 612 l 1,12,13
 356.25 668 356.25 668 276.15 767.5 c 128,-1,14
 196.05 867 196.05 867 196.05 1051 c 0,15,16
 196.05 1273 196.05 1273 328.8 1396.5 c 128,-1,17
 461.55 1520 461.55 1520 700.95 1520 c 0,18,19
 818.85 1520 818.85 1520 946.2 1498 c 128,-1,20
 1073.55 1476 1073.55 1476 1210.35 1432 c 1,21,-1
 1210.35 1102 l 1,22,-1
 1096.05 1102 l 1,23,24
 1069.95 1256 1069.95 1256 981.75 1327.5 c 128,-1,25
 893.55 1399 893.55 1399 730.65 1399 c 0,26,27
 597.45 1399 597.45 1399 529.5 1347.5 c 128,-1,28
 461.55 1296 461.55 1296 461.55 1194 c 0,29,30
 461.55 1101 461.55 1101 508.35 1052.5 c 128,-1,31
 555.15 1004 555.15 1004 737.85 952 c 1,32,-1
 939.45 897 l 2,33,34
 1126.65 845 1126.65 845 1210.8 735 c 128,-1,35
 1294.95 625 1294.95 625 1294.95 432 c 0,36,37
 1294.95 206 1294.95 206 1154.55 88.5 c 128,-1,38
 1014.15 -29 1014.15 -29 741.45 -29 c 0,39,40
 610.05 -29 610.05 -29 480.45 -4 c 128,-1,41
 350.85 21 350.85 21 216.75 72 c 1,0,-1
EndSplineSet
KernsSLIFO: 350 -45 0 0 352 -45 0 0 83 -45 0 0 46 -73 0 0 45 75 0 0 44 -73 0 0
EndChar
StartChar: T
Encoding: 84 84 84
Width: 1447
Flags: W
Fore
410.2 0 m 1,0,-1
 410.2 121 l 1,1,-1
 588.4 121 l 1,2,-1
 588.4 1356 l 1,3,-1
 220.3 1356 l 1,4,-1
 220.3 1120 l 1,5,-1
 97 1120 l 1,6,-1
 97 1493 l 1,7,-1
 1429 1493 l 1,8,-1
 1429 1120 l 1,9,-1
 1307.5 1120 l 1,10,-1
 1307.5 1356 l 1,11,-1
 936.7 1356 l 1,12,-1
 936.7 121 l 1,13,-1
 1115.8 121 l 1,14,-1
 1115.8 0 l 1,15,-1
 410.2 0 l 1,0,-1
EndSplineSet
KernsSLIFO: 252 -188 0 0 229 -196 0 0 230 -159 0 0 59 -73 0 0 242 -235 0 0 255 -225 0 0 45 -339 0 0 8222 -149 0 0 367 -188 0 0 245 -235 0 0 235 -235 0 0 249 -188 0 0 44 -225 0 0 224 -196 0 0 195 -112 0 0 234 -235 0 0 231 -235 0 0 341 -149 0 0 232 -235 0 0 196 -112 0 0 193 -112 0 0 269 -235 0 0 345 -149 0 0 233 -235 0 0 251 -188 0 0 253 -225 0 0 8218 -149 0 0 227 -196 0 0 194 -112 0 0 248 -159 0 0 244 -235 0 0 353 -188 0 0 65 -112 0 0 283 -235 0 0 187 -149 0 0 351 -188 0 0 228 -196 0 0 119 -225 0 0 246 -235 0 0 250 -188 0 0 8250 -149 0 0 263 -235 0 0 225 -196 0 0 46 -264 0 0 84 -73 0 0 226 -196 0 0 101 -235 0 0 356 -73 0 0 97 -196 0 0 99 -235 0 0 171 -149 0 0 339 -159 0 0 8249 -149 0 0 111 -235 0 0 115 -188 0 0 114 -149 0 0 117 -188 0 0 192 -112 0 0 121 -225 0 0 58 -73 0 0 243 -235 0 0
EndChar
StartChar: U
Encoding: 85 85 85
Width: 1697
Flags: W
Fore
324.55 1372 m 1,0,-1
 153.55 1372 l 1,1,-1
 153.55 1493 l 1,2,-1
 844.75 1493 l 1,3,-1
 844.75 1372 l 1,4,-1
 672.85 1372 l 1,5,-1
 672.85 625 l 2,6,7
 672.85 346 672.85 346 751.15 234.5 c 128,-1,8
 829.45 123 829.45 123 1019.35 123 c 0,9,10
 1204.75 123 1204.75 123 1282.6 235.5 c 128,-1,11
 1360.45 348 1360.45 348 1360.45 625 c 2,12,-1
 1360.45 1372 l 1,13,-1
 1189.45 1372 l 1,14,-1
 1189.45 1493 l 1,15,-1
 1657.45 1493 l 1,16,-1
 1657.45 1372 l 1,17,-1
 1485.55 1372 l 1,18,-1
 1485.55 604 l 2,19,20
 1485.55 262 1485.55 262 1352.35 116.5 c 128,-1,21
 1219.15 -29 1219.15 -29 905.05 -29 c 0,22,23
 592.75 -29 592.75 -29 458.65 118 c 128,-1,24
 324.55 265 324.55 265 324.55 606 c 2,25,-1
 324.55 1372 l 1,0,-1
EndSplineSet
KernsSLIFO: 193 -63 0 0 194 -63 0 0 195 -63 0 0 192 -63 0 0 196 -63 0 0 65 -63 0 0 59 -73 0 0 58 -73 0 0 46 -188 0 0 45 -36 0 0 44 -188 0 0
EndChar
StartChar: V
Encoding: 86 86 86
Width: 1510
Flags: W
Fore
1536.5 1493 m 1,0,-1
 1536.5 1372 l 1,1,-1
 1424 1372 l 1,2,-1
 917.3 0 l 1,3,-1
 703.1 0 l 1,4,-1
 196.4 1372 l 1,5,-1
 69.5 1372 l 1,6,-1
 69.5 1493 l 1,7,-1
 699.5 1493 l 1,8,-1
 699.5 1372 l 1,9,-1
 569 1372 l 1,10,-1
 931.7 383 l 1,11,-1
 1297.1 1372 l 1,12,-1
 1136.9 1372 l 1,13,-1
 1136.9 1493 l 1,14,-1
 1536.5 1493 l 1,0,-1
EndSplineSet
KernsSLIFO: 367 -131 0 0 283 -188 0 0 253 -83 0 0 210 -36 0 0 212 -36 0 0 211 -36 0 0 193 -159 0 0 194 -159 0 0 8222 -264 0 0 8218 -264 0 0 255 -83 0 0 8217 38 0 0 8221 38 0 0 339 -188 0 0 338 -36 0 0 213 -36 0 0 195 -159 0 0 192 -159 0 0 248 -188 0 0 230 -188 0 0 216 -36 0 0 252 -131 0 0 251 -131 0 0 249 -131 0 0 250 -131 0 0 245 -188 0 0 246 -188 0 0 244 -188 0 0 242 -188 0 0 243 -188 0 0 235 -188 0 0 234 -188 0 0 232 -188 0 0 233 -188 0 0 229 -188 0 0 227 -188 0 0 228 -188 0 0 226 -188 0 0 224 -188 0 0 225 -188 0 0 214 -36 0 0 196 -159 0 0 121 -83 0 0 117 -131 0 0 111 -188 0 0 105 -36 0 0 101 -188 0 0 97 -188 0 0 79 -36 0 0 65 -159 0 0 59 -206 0 0 58 -206 0 0 46 -358 0 0 45 -149 0 0 44 -358 0 0
EndChar
StartChar: W
Encoding: 87 87 87
Width: 2185
Flags: W
Fore
1685.8 0 m 1,0,-1
 1453.6 0 l 1,1,-1
 1149.4 1087 l 1,2,-1
 845.2 0 l 1,3,-1
 613 0 l 1,4,-1
 229.6 1372 l 1,5,-1
 99.0996 1372 l 1,6,-1
 99.0996 1493 l 1,7,-1
 736.3 1493 l 1,8,-1
 736.3 1372 l 1,9,-1
 592.3 1372 l 1,10,-1
 848.8 455 l 1,11,-1
 1138.6 1493 l 1,12,-1
 1394.2 1493 l 1,13,-1
 1689.4 438 l 1,14,-1
 1951.3 1372 l 1,15,-1
 1791.1 1372 l 1,16,-1
 1791.1 1493 l 1,17,-1
 2206.9 1493 l 1,18,-1
 2206.9 1372 l 1,19,-1
 2069.2 1372 l 1,20,-1
 1685.8 0 l 1,0,-1
EndSplineSet
KernsSLIFO: 252 -83 0 0 229 -178 0 0 230 -139 0 0 59 -139 0 0 242 -167 0 0 45 -112 0 0 8222 -225 0 0 367 -83 0 0 245 -167 0 0 235 -167 0 0 249 -83 0 0 44 -319 0 0 224 -178 0 0 195 -131 0 0 234 -167 0 0 341 -92 0 0 8221 38 0 0 232 -167 0 0 196 -131 0 0 193 -131 0 0 8217 38 0 0 251 -83 0 0 253 -45 0 0 8218 -225 0 0 227 -178 0 0 194 -131 0 0 248 -167 0 0 244 -167 0 0 65 -131 0 0 97 -178 0 0 228 -178 0 0 246 -167 0 0 250 -83 0 0 225 -178 0 0 345 -92 0 0 46 -319 0 0 226 -178 0 0 233 -167 0 0 283 -167 0 0 101 -167 0 0 105 -36 0 0 339 -167 0 0 255 -45 0 0 111 -167 0 0 114 -92 0 0 117 -83 0 0 192 -131 0 0 121 -45 0 0 58 -139 0 0 243 -167 0 0
EndChar
StartChar: X
Encoding: 88 88 88
Width: 1509
Flags: W
Fore
704.45 575 m 1,0,-1
 424.55 121 l 1,1,-1
 590.15 121 l 1,2,-1
 590.15 0 l 1,3,-1
 113.15 0 l 1,4,-1
 113.15 121 l 1,5,-1
 278.75 121 l 1,6,-1
 632.45 692 l 1,7,-1
 212.15 1372 l 1,8,-1
 88.8496 1372 l 1,9,-1
 88.8496 1493 l 1,10,-1
 756.65 1493 l 1,11,-1
 756.65 1372 l 1,12,-1
 609.05 1372 l 1,13,-1
 869.15 952 l 1,14,-1
 1126.55 1372 l 1,15,-1
 969.95 1372 l 1,16,-1
 969.95 1493 l 1,17,-1
 1437.95 1493 l 1,18,-1
 1437.95 1372 l 1,19,-1
 1272.35 1372 l 1,20,-1
 940.25 836 l 1,21,-1
 1381.25 121 l 1,22,-1
 1508.15 121 l 1,23,-1
 1508.15 0 l 1,24,-1
 837.65 0 l 1,25,-1
 837.65 121 l 1,26,-1
 987.05 121 l 1,27,-1
 704.45 575 l 1,0,-1
EndSplineSet
KernsSLIFO: 268 -36 0 0 262 -36 0 0 210 -36 0 0 212 -36 0 0 211 -36 0 0 193 -73 0 0 194 -73 0 0 338 -36 0 0 213 -36 0 0 195 -73 0 0 192 -73 0 0 216 -36 0 0 214 -36 0 0 199 -36 0 0 196 -73 0 0 79 -36 0 0 67 -36 0 0 65 -73 0 0 45 -73 0 0
EndChar
StartChar: Y
Encoding: 89 89 89
Width: 1388
Flags: W
Fore
389.95 0 m 1,0,-1
 389.95 121 l 1,1,-1
 570.85 121 l 1,2,-1
 570.85 618 l 1,3,-1
 171.25 1372 l 1,4,-1
 56.9502 1372 l 1,5,-1
 56.9502 1493 l 1,6,-1
 701.35 1493 l 1,7,-1
 701.35 1372 l 1,8,-1
 551.95 1372 l 1,9,-1
 854.35 803 l 1,10,-1
 1154.95 1372 l 1,11,-1
 1020.85 1372 l 1,12,-1
 1020.85 1493 l 1,13,-1
 1406.05 1493 l 1,14,-1
 1406.05 1372 l 1,15,-1
 1291.75 1372 l 1,16,-1
 919.15 670 l 1,17,-1
 919.15 121 l 1,18,-1
 1100.05 121 l 1,19,-1
 1100.05 0 l 1,20,-1
 389.95 0 l 1,0,-1
EndSplineSet
KernsSLIFO: 367 -178 0 0 283 -178 0 0 268 -36 0 0 262 -36 0 0 193 -131 0 0 194 -131 0 0 339 -178 0 0 195 -131 0 0 192 -131 0 0 248 -178 0 0 230 -159 0 0 252 -178 0 0 251 -178 0 0 249 -178 0 0 250 -178 0 0 245 -178 0 0 246 -178 0 0 244 -178 0 0 242 -178 0 0 243 -178 0 0 235 -178 0 0 234 -178 0 0 232 -178 0 0 233 -178 0 0 229 -159 0 0 227 -159 0 0 228 -159 0 0 226 -159 0 0 224 -159 0 0 225 -159 0 0 199 -36 0 0 196 -131 0 0 117 -178 0 0 111 -178 0 0 105 -36 0 0 101 -178 0 0 97 -159 0 0 67 -36 0 0 65 -131 0 0 59 -253 0 0 58 -253 0 0 46 -264 0 0 45 -206 0 0 44 -264 0 0
EndChar
StartChar: Z
Encoding: 90 90 90
Width: 1420
Flags: W
Fore
143.25 0 m 1,0,-1
 143.25 141 l 1,1,-1
 945.15 1356 l 1,2,-1
 301.65 1356 l 1,3,-1
 301.65 1133 l 1,4,-1
 178.35 1133 l 1,5,-1
 178.35 1493 l 1,6,-1
 1344.75 1493 l 1,7,-1
 1344.75 1352 l 1,8,-1
 551.85 137 l 1,9,-1
 1230.45 137 l 1,10,-1
 1230.45 346 l 1,11,-1
 1353.75 346 l 1,12,-1
 1353.75 0 l 1,13,-1
 143.25 0 l 1,0,-1
EndSplineSet
KernsSLIFO: 46 -36 0 0 44 -36 0 0
EndChar
StartChar: bracketleft
Encoding: 91 91 91
Width: 926
Flags: W
Fore
284.35 1556 m 1,0,-1
 794.65 1556 l 1,1,-1
 794.65 1436 l 1,2,-1
 602.95 1436 l 1,3,-1
 602.95 -150 l 1,4,-1
 794.65 -150 l 1,5,-1
 794.65 -270 l 1,6,-1
 284.35 -270 l 1,7,-1
 284.35 1556 l 1,0,-1
EndSplineSet
EndChar
StartChar: backslash
Encoding: 92 92 92
Width: 710
Flags: W
Fore
236.3 1493 m 1,0,-1
 710.6 -190 l 1,1,-1
 510.8 -190 l 1,2,-1
 37.4004 1493 l 1,3,-1
 236.3 1493 l 1,0,-1
EndSplineSet
EndChar
StartChar: bracketright
Encoding: 93 93 93
Width: 915
Flags: W
Fore
684.6 1556 m 1,0,-1
 684.6 -270 l 1,1,-1
 173.4 -270 l 1,2,-1
 173.4 -150 l 1,3,-1
 365.1 -150 l 1,4,-1
 365.1 1436 l 1,5,-1
 173.4 1436 l 1,6,-1
 173.4 1556 l 1,7,-1
 684.6 1556 l 1,0,-1
EndSplineSet
EndChar
StartChar: asciicircum
Encoding: 94 94 94
Width: 1630
Flags: W
Fore
961.5 1493 m 1,0,-1
 1443.9 936 l 1,1,-1
 1252.2 936 l 1,2,-1
 858 1251 l 1,3,-1
 463.8 936 l 1,4,-1
 272.1 936 l 1,5,-1
 760.8 1493 l 1,6,-1
 961.5 1493 l 1,0,-1
EndSplineSet
EndChar
StartChar: underscore
Encoding: 95 95 95
Width: 972
Flags: W
Fore
972.8 -293 m 1,0,-1
 972.8 -483 l 1,1,-1
 51.2002 -483 l 1,2,-1
 51.2002 -293 l 1,3,-1
 972.8 -293 l 1,0,-1
EndSplineSet
EndChar
StartChar: grave
Encoding: 96 96 96
Width: 962
Flags: W
Fore
418.95 1638 m 1,0,-1
 651.15 1262 l 1,1,-1
 503.55 1262 l 1,2,-1
 167.85 1638 l 1,3,-1
 418.95 1638 l 1,0,-1
EndSplineSet
EndChar
StartChar: a
Encoding: 97 97 97
Width: 1262
Flags: W
Fore
1083.4 653 m 2,0,-1
 1083.4 121 l 1,1,-1
 1220.2 121 l 1,2,-1
 1220.2 0 l 1,3,-1
 764.8 0 l 1,4,-1
 764.8 135 l 1,5,6
 701.8 51 701.8 51 624.4 11 c 128,-1,7
 547 -29 547 -29 448 -29 c 0,8,9
 301.3 -29 301.3 -29 222.55 58.5 c 128,-1,10
 143.8 146 143.8 146 143.8 309 c 0,11,12
 143.8 488 143.8 488 256.75 577 c 128,-1,13
 369.7 666 369.7 666 597.4 666 c 2,14,-1
 764.8 666 l 1,15,-1
 764.8 729 l 2,16,17
 764.8 858 764.8 858 709.9 919.5 c 128,-1,18
 655 981 655 981 539.8 981 c 0,19,20
 444.4 981 444.4 981 392.65 937.5 c 128,-1,21
 340.9 894 340.9 894 319.3 795 c 1,22,-1
 217.6 795 l 1,23,-1
 217.6 1024 l 1,24,25
 303.1 1058 303.1 1058 394.9 1075 c 128,-1,26
 486.7 1092 486.7 1092 588.4 1092 c 0,27,28
 844.9 1092 844.9 1092 964.15 986 c 128,-1,29
 1083.4 880 1083.4 880 1083.4 653 c 2,0,-1
764.8 334 m 2,30,-1
 764.8 547 l 1,31,-1
 645.1 547 l 2,32,33
 556 547 556 547 508.3 493 c 128,-1,34
 460.6 439 460.6 439 460.6 338 c 0,35,36
 460.6 237 460.6 237 495.25 187 c 128,-1,37
 529.9 137 529.9 137 601 137 c 0,38,39
 674.8 137 674.8 137 719.8 191 c 128,-1,40
 764.8 245 764.8 245 764.8 334 c 2,30,-1
EndSplineSet
EndChar
StartChar: b
Encoding: 98 98 98
Width: 1358
Flags: W
Fore
248.95 121 m 1,0,-1
 248.95 1436 l 1,1,-1
 112.15 1436 l 1,2,-1
 112.15 1556 l 1,3,-1
 567.55 1556 l 1,4,-1
 567.55 928 l 1,5,6
 608.05 1011 608.05 1011 676.45 1051.5 c 128,-1,7
 744.85 1092 744.85 1092 845.65 1092 c 0,8,9
 1049.95 1092 1049.95 1092 1167.4 942.5 c 128,-1,10
 1284.85 793 1284.85 793 1284.85 532 c 0,11,12
 1284.85 271 1284.85 271 1167.4 121 c 128,-1,13
 1049.95 -29 1049.95 -29 845.65 -29 c 0,14,15
 744.85 -29 744.85 -29 676.45 11.5 c 128,-1,16
 608.05 52 608.05 52 567.55 135 c 1,17,-1
 567.55 0 l 1,18,-1
 112.15 0 l 1,19,-1
 112.15 121 l 1,20,-1
 248.95 121 l 1,0,-1
567.55 479 m 2,21,22
 567.55 293 567.55 293 610.3 210 c 128,-1,23
 653.05 127 653.05 127 748.45 127 c 0,24,25
 846.55 127 846.55 127 886.6 215 c 128,-1,26
 926.65 303 926.65 303 926.65 532 c 0,27,28
 926.65 761 926.65 761 886.6 848.5 c 128,-1,29
 846.55 936 846.55 936 748.45 936 c 0,30,31
 653.05 936 653.05 936 610.3 853 c 128,-1,32
 567.55 770 567.55 770 567.55 584 c 2,33,-1
 567.55 479 l 2,21,22
EndSplineSet
EndChar
StartChar: c
Encoding: 99 99 99
Width: 1184
Flags: W
Fore
1101.45 332 m 1,0,1
 1067.25 150 1067.25 150 961.5 60.5 c 128,-1,2
 855.75 -29 855.75 -29 673.95 -29 c 0,3,4
 418.35 -29 418.35 -29 277.95 118 c 128,-1,5
 137.55 265 137.55 265 137.55 532 c 0,6,7
 137.55 796 137.55 796 276.15 944 c 128,-1,8
 414.75 1092 414.75 1092 661.35 1092 c 0,9,10
 761.25 1092 761.25 1092 862.95 1071 c 128,-1,11
 964.65 1050 964.65 1050 1069.95 1008 c 1,12,-1
 1069.95 713 l 1,13,-1
 969.15 713 l 1,14,15
 954.75 848 954.75 848 898.05 913.5 c 128,-1,16
 841.35 979 841.35 979 738.75 979 c 0,17,18
 605.55 979 605.55 979 549.3 879 c 128,-1,19
 493.05 779 493.05 779 493.05 532 c 0,20,21
 493.05 291 493.05 291 547.95 187.5 c 128,-1,22
 602.85 84 602.85 84 727.05 84 c 0,23,24
 823.35 84 823.35 84 881.4 148 c 128,-1,25
 939.45 212 939.45 212 952.05 332 c 1,26,-1
 1101.45 332 l 1,0,1
EndSplineSet
EndChar
StartChar: d
Encoding: 100 100 100
Width: 1362
Flags: W
Fore
864.5 479 m 2,0,-1
 864.5 584 l 2,1,2
 864.5 770 864.5 770 821.3 853 c 128,-1,3
 778.1 936 778.1 936 683.6 936 c 0,4,5
 584.6 936 584.6 936 544.55 848.5 c 128,-1,6
 504.5 761 504.5 761 504.5 532 c 0,7,8
 504.5 303 504.5 303 545 215 c 128,-1,9
 585.5 127 585.5 127 683.6 127 c 0,10,11
 778.1 127 778.1 127 821.3 210 c 128,-1,12
 864.5 293 864.5 293 864.5 479 c 2,0,-1
1183.1 121 m 1,13,-1
 1319 121 l 1,14,-1
 1319 0 l 1,15,-1
 864.5 0 l 1,16,-1
 864.5 135 l 1,17,18
 824 52 824 52 755.15 11.5 c 128,-1,19
 686.3 -29 686.3 -29 585.5 -29 c 0,20,21
 382.1 -29 382.1 -29 265.55 121 c 128,-1,22
 149 271 149 271 149 532 c 0,23,24
 149 794 149 794 265.55 943 c 128,-1,25
 382.1 1092 382.1 1092 585.5 1092 c 0,26,27
 686.3 1092 686.3 1092 755.15 1051.5 c 128,-1,28
 824 1011 824 1011 864.5 928 c 1,29,-1
 864.5 1436 l 1,30,-1
 727.7 1436 l 1,31,-1
 727.7 1556 l 1,32,-1
 1183.1 1556 l 1,33,-1
 1183.1 121 l 1,13,-1
EndSplineSet
EndChar
StartChar: e
Encoding: 101 101 101
Width: 1237
Flags: W
Fore
803.6 600 m 1,0,1
 803.6 810 803.6 810 768.5 894.5 c 128,-1,2
 733.4 979 733.4 979 648.8 979 c 0,3,4
 566.9 979 566.9 979 531.35 896 c 128,-1,5
 495.8 813 495.8 813 495.8 618 c 2,6,-1
 495.8 600 l 1,7,-1
 803.6 600 l 1,0,1
1153.7 481 m 1,8,-1
 495.8 481 l 1,9,-1
 495.8 473 l 2,10,11
 495.8 267 495.8 267 551.6 175.5 c 128,-1,12
 607.4 84 607.4 84 731.6 84 c 0,13,14
 835.1 84 835.1 84 899 145 c 128,-1,15
 962.9 206 962.9 206 980.9 322 c 1,16,-1
 1130.3 322 l 1,17,18
 1091.6 141 1091.6 141 976.4 56 c 128,-1,19
 861.2 -29 861.2 -29 654.2 -29 c 0,20,21
 405.8 -29 405.8 -29 273.05 116.5 c 128,-1,22
 140.3 262 140.3 262 140.3 532 c 0,23,24
 140.3 796 140.3 796 276.2 944 c 128,-1,25
 412.1 1092 412.1 1092 654.2 1092 c 0,26,27
 891.8 1092 891.8 1092 1018.7 936.5 c 128,-1,28
 1145.6 781 1145.6 781 1153.7 481 c 1,8,-1
EndSplineSet
EndChar
StartChar: f
Encoding: 102 102 102
Width: 845
Flags: W
Fore
944.6 1290 m 1,0,-1
 843.8 1290 l 1,1,2
 836.6 1368 836.6 1368 802.85 1406 c 128,-1,3
 769.1 1444 769.1 1444 707 1444 c 0,4,5
 635 1444 635 1444 602.6 1386.5 c 128,-1,6
 570.2 1329 570.2 1329 570.2 1200 c 2,7,-1
 570.2 1063 l 1,8,-1
 810.5 1063 l 1,9,-1
 810.5 942 l 1,10,-1
 570.2 942 l 1,11,-1
 570.2 121 l 1,12,-1
 754.7 121 l 1,13,-1
 754.7 0 l 1,14,-1
 115.7 0 l 1,15,-1
 115.7 121 l 1,16,-1
 251.6 121 l 1,17,-1
 251.6 942 l 1,18,-1
 109.4 942 l 1,19,-1
 109.4 1063 l 1,20,-1
 251.6 1063 l 1,21,-1
 251.6 1196 l 2,22,23
 251.6 1373 251.6 1373 353.3 1464.5 c 128,-1,24
 455 1556 455 1556 652.1 1556 c 0,25,26
 728.6 1556 728.6 1556 801.5 1546.5 c 128,-1,27
 874.4 1537 874.4 1537 944.6 1518 c 1,28,-1
 944.6 1290 l 1,0,-1
EndSplineSet
KernsSLIFO: 8217 151 0 0 8221 151 0 0 8220 65 0 0 46 -73 0 0 45 -73 0 0 44 -45 0 0
EndChar
StartChar: g
Encoding: 103 103 103
Width: 1362
Flags: W
Fore
1183.1 942 m 1,0,-1
 1183.1 14 l 2,1,2
 1183.1 -210 1183.1 -210 1039.55 -332.5 c 128,-1,3
 896 -455 896 -455 634.1 -455 c 0,4,5
 538.7 -455 538.7 -455 440.6 -438.5 c 128,-1,6
 342.5 -422 342.5 -422 239 -389 c 1,7,-1
 239 -135 l 1,8,-1
 340.7 -135 l 1,9,10
 354.2 -240 354.2 -240 416.75 -291 c 128,-1,11
 479.3 -342 479.3 -342 595.4 -342 c 0,12,13
 743 -342 743 -342 803.75 -263.5 c 128,-1,14
 864.5 -185 864.5 -185 864.5 14 c 2,15,-1
 864.5 135 l 1,16,17
 824 52 824 52 755.15 11.5 c 128,-1,18
 686.3 -29 686.3 -29 585.5 -29 c 0,19,20
 382.1 -29 382.1 -29 265.55 121 c 128,-1,21
 149 271 149 271 149 532 c 0,22,23
 149 794 149 794 265.55 943 c 128,-1,24
 382.1 1092 382.1 1092 585.5 1092 c 0,25,26
 686.3 1092 686.3 1092 755.15 1051.5 c 128,-1,27
 824 1011 824 1011 864.5 928 c 1,28,-1
 864.5 1063 l 1,29,-1
 1319 1063 l 1,30,-1
 1319 942 l 1,31,-1
 1183.1 942 l 1,0,-1
864.5 584 m 2,32,33
 864.5 770 864.5 770 821.3 853 c 128,-1,34
 778.1 936 778.1 936 683.6 936 c 0,35,36
 584.6 936 584.6 936 544.55 848.5 c 128,-1,37
 504.5 761 504.5 761 504.5 532 c 0,38,39
 504.5 303 504.5 303 545 215 c 128,-1,40
 585.5 127 585.5 127 683.6 127 c 0,41,42
 778.1 127 778.1 127 821.3 210 c 128,-1,43
 864.5 293 864.5 293 864.5 479 c 2,44,-1
 864.5 584 l 2,32,33
EndSplineSet
EndChar
StartChar: h
Encoding: 104 104 104
Width: 1415
Flags: W
Fore
138.25 0 m 1,0,-1
 138.25 121 l 1,1,-1
 274.15 121 l 1,2,-1
 274.15 1436 l 1,3,-1
 131.95 1436 l 1,4,-1
 131.95 1556 l 1,5,-1
 592.75 1556 l 1,6,-1
 592.75 913 l 1,7,8
 650.35 1008 650.35 1008 724.15 1050 c 128,-1,9
 797.95 1092 797.95 1092 910.45 1092 c 0,10,11
 1071.55 1092 1071.55 1092 1153.9 986.5 c 128,-1,12
 1236.25 881 1236.25 881 1236.25 676 c 2,13,-1
 1236.25 121 l 1,14,-1
 1373.05 121 l 1,15,-1
 1373.05 0 l 1,16,-1
 801.55 0 l 1,17,-1
 801.55 121 l 1,18,-1
 917.65 121 l 1,19,-1
 917.65 686 l 2,20,21
 917.65 821 917.65 821 886.6 873.5 c 128,-1,22
 855.55 926 855.55 926 779.05 926 c 0,23,24
 682.75 926 682.75 926 637.75 847.5 c 128,-1,25
 592.75 769 592.75 769 592.75 598 c 2,26,-1
 592.75 121 l 1,27,-1
 709.75 121 l 1,28,-1
 709.75 0 l 1,29,-1
 138.25 0 l 1,0,-1
EndSplineSet
EndChar
StartChar: i
Encoding: 105 105 105
Width: 740
Flags: W
Fore
209.05 1364 m 0,0,1
 209.05 1445 209.05 1445 259.45 1500.5 c 128,-1,2
 309.85 1556 309.85 1556 382.75 1556 c 0,3,4
 453.85 1556 453.85 1556 503.8 1500.5 c 128,-1,5
 553.75 1445 553.75 1445 553.75 1364 c 0,6,7
 553.75 1285 553.75 1285 503.8 1229.5 c 128,-1,8
 453.85 1174 453.85 1174 382.75 1174 c 0,9,10
 309.85 1174 309.85 1174 259.45 1229 c 128,-1,11
 209.05 1284 209.05 1284 209.05 1364 c 0,0,1
557.35 121 m 1,12,-1
 694.15 121 l 1,13,-1
 694.15 0 l 1,14,-1
 102.85 0 l 1,15,-1
 102.85 121 l 1,16,-1
 238.75 121 l 1,17,-1
 238.75 942 l 1,18,-1
 102.85 942 l 1,19,-1
 102.85 1063 l 1,20,-1
 557.35 1063 l 1,21,-1
 557.35 121 l 1,12,-1
EndSplineSet
EndChar
StartChar: j
Encoding: 106 106 106
Width: 687
Flags: W
Fore
181.25 1364 m 0,0,1
 181.25 1445 181.25 1445 231.2 1500.5 c 128,-1,2
 281.15 1556 281.15 1556 354.95 1556 c 0,3,4
 425.15 1556 425.15 1556 475.55 1500 c 128,-1,5
 525.95 1444 525.95 1444 525.95 1364 c 0,6,7
 525.95 1285 525.95 1285 476 1229.5 c 128,-1,8
 426.05 1174 426.05 1174 354.95 1174 c 0,9,10
 282.05 1174 282.05 1174 231.65 1229 c 128,-1,11
 181.25 1284 181.25 1284 181.25 1364 c 0,0,1
218.15 942 m 1,12,-1
 82.25 942 l 1,13,-1
 82.25 1063 l 1,14,-1
 536.75 1063 l 1,15,-1
 536.75 -125 l 2,16,17
 536.75 -288 536.75 -288 432.8 -371.5 c 128,-1,18
 328.85 -455 328.85 -455 126.35 -455 c 0,19,20
 72.3496 -455 72.3496 -455 11.1504 -445 c 128,-1,21
 -50.0498 -435 -50.0498 -435 -115.75 -416 c 1,22,-1
 -115.75 -190 l 1,23,-1
 -14.0498 -191 l 1,24,25
 -12.25 -271 -12.25 -271 14.2998 -306.5 c 128,-1,26
 40.8496 -342 40.8496 -342 100.25 -342 c 0,27,28
 165.95 -342 165.95 -342 192.05 -295 c 128,-1,29
 218.15 -248 218.15 -248 218.15 -125 c 2,30,-1
 218.15 942 l 1,12,-1
EndSplineSet
EndChar
StartChar: k
Encoding: 107 107 107
Width: 1353
Flags: W
Fore
714.3 0 m 1,0,-1
 139.2 0 l 1,1,-1
 139.2 121 l 1,2,-1
 275.1 121 l 1,3,-1
 275.1 1436 l 1,4,-1
 139.2 1436 l 1,5,-1
 139.2 1556 l 1,6,-1
 593.7 1556 l 1,7,-1
 593.7 557 l 1,8,-1
 979.8 942 l 1,9,-1
 865.5 942 l 1,10,-1
 865.5 1063 l 1,11,-1
 1302 1063 l 1,12,-1
 1302 942 l 1,13,-1
 1124.7 942 l 1,14,-1
 878.1 696 l 1,15,-1
 1281.3 121 l 1,16,-1
 1384.8 121 l 1,17,-1
 1384.8 0 l 1,18,-1
 835.8 0 l 1,19,-1
 835.8 121 l 1,20,-1
 948.3 121 l 1,21,-1
 682.8 500 l 1,22,-1
 593.7 412 l 1,23,-1
 593.7 121 l 1,24,-1
 714.3 121 l 1,25,-1
 714.3 0 l 1,0,-1
EndSplineSet
KernsSLIFO: 45 -83 0 0
EndChar
StartChar: l
Encoding: 108 108 108
Width: 740
Flags: W
Fore
557.35 121 m 1,0,-1
 694.15 121 l 1,1,-1
 694.15 0 l 1,2,-1
 102.85 0 l 1,3,-1
 102.85 121 l 1,4,-1
 238.75 121 l 1,5,-1
 238.75 1436 l 1,6,-1
 102.85 1436 l 1,7,-1
 102.85 1556 l 1,8,-1
 557.35 1556 l 1,9,-1
 557.35 121 l 1,0,-1
EndSplineSet
EndChar
StartChar: m
Encoding: 109 109 109
Width: 2059
Flags: W
Fore
1228.2 889 m 1,0,1
 1294.8 995 1294.8 995 1372.2 1043.5 c 128,-1,2
 1449.6 1092 1449.6 1092 1553.1 1092 c 0,3,4
 1717.8 1092 1717.8 1092 1799.25 988.5 c 128,-1,5
 1880.7 885 1880.7 885 1880.7 676 c 2,6,-1
 1880.7 121 l 1,7,-1
 2017.5 121 l 1,8,-1
 2017.5 0 l 1,9,-1
 1447.8 0 l 1,10,-1
 1447.8 121 l 1,11,-1
 1562.1 121 l 1,12,-1
 1562.1 623 l 2,13,14
 1562.1 822 1562.1 822 1534.65 874 c 128,-1,15
 1507.2 926 1507.2 926 1432.5 926 c 0,16,17
 1347.9 926 1347.9 926 1301.1 853.5 c 128,-1,18
 1254.3 781 1254.3 781 1254.3 647 c 2,19,-1
 1254.3 121 l 1,20,-1
 1368.6 121 l 1,21,-1
 1368.6 0 l 1,22,-1
 821.4 0 l 1,23,-1
 821.4 121 l 1,24,-1
 935.7 121 l 1,25,-1
 935.7 623 l 2,26,27
 935.7 822 935.7 822 907.8 874 c 128,-1,28
 879.9 926 879.9 926 806.1 926 c 0,29,30
 720.6 926 720.6 926 673.8 853.5 c 128,-1,31
 627 781 627 781 627 647 c 2,32,-1
 627 121 l 1,33,-1
 741.3 121 l 1,34,-1
 741.3 0 l 1,35,-1
 172.5 0 l 1,36,-1
 172.5 121 l 1,37,-1
 308.4 121 l 1,38,-1
 308.4 942 l 1,39,-1
 172.5 942 l 1,40,-1
 172.5 1063 l 1,41,-1
 627 1063 l 1,42,-1
 627 913 l 1,43,44
 682.8 1006 682.8 1006 754.8 1049 c 128,-1,45
 826.8 1092 826.8 1092 925.8 1092 c 0,46,47
 1042.8 1092 1042.8 1092 1115.7 1042.5 c 128,-1,48
 1188.6 993 1188.6 993 1228.2 889 c 1,0,1
EndSplineSet
EndChar
StartChar: n
Encoding: 110 110 110
Width: 1415
Flags: W
Fore
138.6 0 m 1,0,-1
 138.6 121 l 1,1,-1
 274.5 121 l 1,2,-1
 274.5 942 l 1,3,-1
 138.6 942 l 1,4,-1
 138.6 1063 l 1,5,-1
 593.1 1063 l 1,6,-1
 593.1 913 l 1,7,8
 650.7 1008 650.7 1008 724.5 1050 c 128,-1,9
 798.3 1092 798.3 1092 910.8 1092 c 0,10,11
 1071.9 1092 1071.9 1092 1154.25 986.5 c 128,-1,12
 1236.6 881 1236.6 881 1236.6 676 c 2,13,-1
 1236.6 121 l 1,14,-1
 1373.4 121 l 1,15,-1
 1373.4 0 l 1,16,-1
 801.9 0 l 1,17,-1
 801.9 121 l 1,18,-1
 918 121 l 1,19,-1
 918 686 l 2,20,21
 918 821 918 821 886.95 873.5 c 128,-1,22
 855.9 926 855.9 926 779.4 926 c 0,23,24
 683.1 926 683.1 926 638.1 847.5 c 128,-1,25
 593.1 769 593.1 769 593.1 598 c 2,26,-1
 593.1 121 l 1,27,-1
 710.1 121 l 1,28,-1
 710.1 0 l 1,29,-1
 138.6 0 l 1,0,-1
EndSplineSet
EndChar
StartChar: o
Encoding: 111 111 111
Width: 1297
Flags: W
Fore
684 84 m 0,0,1
 784.8 84 784.8 84 825.75 180 c 128,-1,2
 866.7 276 866.7 276 866.7 532 c 0,3,4
 866.7 788 866.7 788 826.2 883.5 c 128,-1,5
 785.7 979 785.7 979 684 979 c 0,6,7
 582.3 979 582.3 979 540.9 882.5 c 128,-1,8
 499.5 786 499.5 786 499.5 532 c 0,9,10
 499.5 278 499.5 278 540.9 181 c 128,-1,11
 582.3 84 582.3 84 684 84 c 0,0,1
684 -29 m 0,12,13
 431.1 -29 431.1 -29 287.55 120.5 c 128,-1,14
 144 270 144 270 144 532 c 0,15,16
 144 795 144 795 287.55 943.5 c 128,-1,17
 431.1 1092 431.1 1092 684 1092 c 0,18,19
 937.8 1092 937.8 1092 1080.9 943.5 c 128,-1,20
 1224 795 1224 795 1224 532 c 0,21,22
 1224 270 1224 270 1080.45 120.5 c 128,-1,23
 936.9 -29 936.9 -29 684 -29 c 0,12,13
EndSplineSet
KernsSLIFO: 46 -36 0 0
EndChar
StartChar: p
Encoding: 112 112 112
Width: 1358
Flags: W
Fore
567.55 584 m 2,0,-1
 567.55 479 l 2,1,2
 567.55 293 567.55 293 610.3 210 c 128,-1,3
 653.05 127 653.05 127 748.45 127 c 0,4,5
 846.55 127 846.55 127 886.6 215 c 128,-1,6
 926.65 303 926.65 303 926.65 532 c 0,7,8
 926.65 761 926.65 761 886.6 848.5 c 128,-1,9
 846.55 936 846.55 936 748.45 936 c 0,10,11
 653.05 936 653.05 936 610.3 853 c 128,-1,12
 567.55 770 567.55 770 567.55 584 c 2,0,-1
248.95 942 m 1,13,-1
 112.15 942 l 1,14,-1
 112.15 1063 l 1,15,-1
 567.55 1063 l 1,16,-1
 567.55 928 l 1,17,18
 608.05 1011 608.05 1011 676.45 1051.5 c 128,-1,19
 744.85 1092 744.85 1092 845.65 1092 c 0,20,21
 1049.95 1092 1049.95 1092 1167.4 942.5 c 128,-1,22
 1284.85 793 1284.85 793 1284.85 532 c 0,23,24
 1284.85 271 1284.85 271 1167.4 121 c 128,-1,25
 1049.95 -29 1049.95 -29 845.65 -29 c 0,26,27
 744.85 -29 744.85 -29 676.45 11.5 c 128,-1,28
 608.05 52 608.05 52 567.55 135 c 1,29,-1
 567.55 -305 l 1,30,-1
 715.15 -305 l 1,31,-1
 715.15 -426 l 1,32,-1
 112.15 -426 l 1,33,-1
 112.15 -305 l 1,34,-1
 248.95 -305 l 1,35,-1
 248.95 942 l 1,13,-1
EndSplineSet
EndChar
StartChar: q
Encoding: 113 113 113
Width: 1362
Flags: W
Fore
1183.1 942 m 1,0,-1
 1183.1 -305 l 1,1,-1
 1319 -305 l 1,2,-1
 1319 -426 l 1,3,-1
 716.9 -426 l 1,4,-1
 716.9 -305 l 1,5,-1
 864.5 -305 l 1,6,-1
 864.5 135 l 1,7,8
 824 52 824 52 755.15 11.5 c 128,-1,9
 686.3 -29 686.3 -29 585.5 -29 c 0,10,11
 382.1 -29 382.1 -29 265.55 121 c 128,-1,12
 149 271 149 271 149 532 c 0,13,14
 149 794 149 794 265.55 943 c 128,-1,15
 382.1 1092 382.1 1092 585.5 1092 c 0,16,17
 686.3 1092 686.3 1092 755.15 1051.5 c 128,-1,18
 824 1011 824 1011 864.5 928 c 1,19,-1
 864.5 1063 l 1,20,-1
 1319 1063 l 1,21,-1
 1319 942 l 1,22,-1
 1183.1 942 l 1,0,-1
864.5 584 m 2,23,24
 864.5 770 864.5 770 821.3 853 c 128,-1,25
 778.1 936 778.1 936 683.6 936 c 0,26,27
 584.6 936 584.6 936 544.55 848.5 c 128,-1,28
 504.5 761 504.5 761 504.5 532 c 0,29,30
 504.5 303 504.5 303 545 215 c 128,-1,31
 585.5 127 585.5 127 683.6 127 c 0,32,33
 778.1 127 778.1 127 821.3 210 c 128,-1,34
 864.5 293 864.5 293 864.5 479 c 2,35,-1
 864.5 584 l 2,23,24
EndSplineSet
EndChar
StartChar: r
Encoding: 114 114 114
Width: 1029
Flags: W
Fore
1047.95 1075 m 1,0,-1
 1047.95 758 l 1,1,-1
 946.25 758 l 1,2,3
 940.85 843 940.85 843 904.85 884.5 c 128,-1,4
 868.85 926 868.85 926 800.45 926 c 0,5,6
 696.05 926 696.05 926 635.75 824 c 128,-1,7
 575.45 722 575.45 722 575.45 541 c 2,8,-1
 575.45 121 l 1,9,-1
 749.15 121 l 1,10,-1
 749.15 0 l 1,11,-1
 120.95 0 l 1,12,-1
 120.95 121 l 1,13,-1
 256.85 121 l 1,14,-1
 256.85 942 l 1,15,-1
 111.05 942 l 1,16,-1
 111.05 1063 l 1,17,-1
 575.45 1063 l 1,18,-1
 575.45 874 l 1,19,20
 622.25 985 622.25 985 699.2 1038.5 c 128,-1,21
 776.15 1092 776.15 1092 887.75 1092 c 0,22,23
 915.65 1092 915.65 1092 955.7 1087.5 c 128,-1,24
 995.75 1083 995.75 1083 1047.95 1075 c 1,0,-1
EndSplineSet
KernsSLIFO: 8217 75 0 0 8216 75 0 0 8221 75 0 0 8220 75 0 0 46 -188 0 0 44 -149 0 0
EndChar
StartChar: s
Encoding: 115 115 115
Width: 1095
Flags: W
Fore
144.25 31 m 1,0,-1
 144.25 328 l 1,1,-1
 245.95 328 l 1,2,3
 258.55 209 258.55 209 326.05 146.5 c 128,-1,4
 393.55 84 393.55 84 509.65 84 c 0,5,6
 606.85 84 606.85 84 658.6 121.5 c 128,-1,7
 710.35 159 710.35 159 710.35 229 c 0,8,9
 710.35 293 710.35 293 677.5 328 c 128,-1,10
 644.65 363 644.65 363 550.15 389 c 2,11,-1
 418.75 426 l 2,12,13
 270.25 467 270.25 467 203.65 543.5 c 128,-1,14
 137.05 620 137.05 620 137.05 750 c 0,15,16
 137.05 923 137.05 923 245.05 1007.5 c 128,-1,17
 353.05 1092 353.05 1092 578.05 1092 c 0,18,19
 662.65 1092 662.65 1092 758.5 1076.5 c 128,-1,20
 854.35 1061 854.35 1061 970.45 1028 c 1,21,-1
 970.45 760 l 1,22,-1
 868.75 760 l 1,23,24
 860.65 869 860.65 869 799 924 c 128,-1,25
 737.35 979 737.35 979 622.15 979 c 0,26,27
 524.95 979 524.95 979 475 944.5 c 128,-1,28
 425.05 910 425.05 910 425.05 844 c 0,29,30
 425.05 790 425.05 790 453.85 759 c 128,-1,31
 482.65 728 482.65 728 557.35 707 c 2,32,-1
 687.85 670 l 2,33,34
 875.95 617 875.95 617 947.95 539 c 128,-1,35
 1019.95 461 1019.95 461 1019.95 322 c 0,36,37
 1019.95 142 1019.95 142 904.3 56.5 c 128,-1,38
 788.65 -29 788.65 -29 544.75 -29 c 0,39,40
 455.65 -29 455.65 -29 355.75 -14 c 128,-1,41
 255.85 1 255.85 1 144.25 31 c 1,0,-1
EndSplineSet
EndChar
StartChar: t
Encoding: 116 116 116
Width: 900
Flags: W
Fore
231.95 942 m 1,0,-1
 93.3496 942 l 1,1,-1
 93.3496 1063 l 1,2,-1
 231.95 1063 l 1,3,-1
 231.95 1393 l 1,4,-1
 550.55 1393 l 1,5,-1
 550.55 1063 l 1,6,-1
 816.05 1063 l 1,7,-1
 816.05 942 l 1,8,-1
 550.55 942 l 1,9,-1
 550.55 291 l 2,10,11
 550.55 152 550.55 152 570.35 118 c 128,-1,12
 590.15 84 590.15 84 642.35 84 c 0,13,14
 699.95 84 699.95 84 727.85 127 c 128,-1,15
 755.75 170 755.75 170 757.55 260 c 1,16,-1
 891.65 260 l 1,17,18
 883.55 100 883.55 100 812.9 35.5 c 128,-1,19
 742.25 -29 742.25 -29 569.45 -29 c 0,20,21
 372.35 -29 372.35 -29 302.15 39.5 c 128,-1,22
 231.95 108 231.95 108 231.95 291 c 2,23,-1
 231.95 942 l 1,0,-1
EndSplineSet
EndChar
StartChar: u
Encoding: 117 117 117
Width: 1413
Flags: W
Fore
1214.5 1063 m 1,0,-1
 1214.5 121 l 1,1,-1
 1350.4 121 l 1,2,-1
 1350.4 0 l 1,3,-1
 895 0 l 1,4,-1
 895 150 l 1,5,6
 838.3 55 838.3 55 764.5 13 c 128,-1,7
 690.7 -29 690.7 -29 578.2 -29 c 0,8,9
 417.1 -29 417.1 -29 334.75 76.5 c 128,-1,10
 252.4 182 252.4 182 252.4 387 c 2,11,-1
 252.4 942 l 1,12,-1
 115.6 942 l 1,13,-1
 115.6 1063 l 1,14,-1
 571 1063 l 1,15,-1
 571 442 l 2,16,17
 571 244 571 244 600.7 190.5 c 128,-1,18
 630.4 137 630.4 137 709.6 137 c 0,19,20
 805.9 137 805.9 137 850.45 216 c 128,-1,21
 895 295 895 295 895 467 c 2,22,-1
 895 942 l 1,23,-1
 778.9 942 l 1,24,-1
 778.9 1063 l 1,25,-1
 1214.5 1063 l 1,0,-1
EndSplineSet
EndChar
StartChar: v
Encoding: 118 118 118
Width: 1131
Flags: W
Fore
471.5 0 m 1,0,-1
 132.2 942 l 1,1,-1
 26.9004 942 l 1,2,-1
 26.9004 1063 l 1,3,-1
 575.9 1063 l 1,4,-1
 575.9 942 l 1,5,-1
 459.8 942 l 1,6,-1
 701.9 270 l 1,7,-1
 943.1 942 l 1,8,-1
 818 942 l 1,9,-1
 818 1063 l 1,10,-1
 1177.1 1063 l 1,11,-1
 1177.1 942 l 1,12,-1
 1066.4 942 l 1,13,-1
 727.1 0 l 1,14,-1
 471.5 0 l 1,0,-1
EndSplineSet
KernsSLIFO: 8217 75 0 0 8216 75 0 0 8221 75 0 0 8220 75 0 0 46 -206 0 0 44 -167 0 0
EndChar
StartChar: w
Encoding: 119 119 119
Width: 1676
Flags: W
Fore
1082.9 1063 m 1,0,-1
 1300.7 354 l 1,1,-1
 1480.7 942 l 1,2,-1
 1355.6 942 l 1,3,-1
 1355.6 1063 l 1,4,-1
 1712.9 1063 l 1,5,-1
 1712.9 942 l 1,6,-1
 1600.4 942 l 1,7,-1
 1311.5 0 l 1,8,-1
 1091.9 0 l 1,9,-1
 889.4 666 l 1,10,-1
 685.1 0 l 1,11,-1
 467.3 0 l 1,12,-1
 177.5 942 l 1,13,-1
 73.0996 942 l 1,14,-1
 73.0996 1063 l 1,15,-1
 614.9 1063 l 1,16,-1
 614.9 942 l 1,17,-1
 502.4 942 l 1,18,-1
 678.8 367 l 1,19,-1
 893 1063 l 1,20,-1
 1082.9 1063 l 1,0,-1
EndSplineSet
KernsSLIFO: 8217 75 0 0 8216 75 0 0 8221 75 0 0 8220 75 0 0 46 -206 0 0 44 -167 0 0
EndChar
StartChar: x
Encoding: 120 120 120
Width: 1160
Flags: W
Fore
708.85 678 m 1,0,-1
 878.05 942 l 1,1,-1
 760.15 942 l 1,2,-1
 760.15 1063 l 1,3,-1
 1132.75 1063 l 1,4,-1
 1132.75 942 l 1,5,-1
 1005.85 942 l 1,6,-1
 761.95 563 l 1,7,-1
 1046.35 121 l 1,8,-1
 1173.25 121 l 1,9,-1
 1173.25 0 l 1,10,-1
 564.85 0 l 1,11,-1
 564.85 121 l 1,12,-1
 688.15 121 l 1,13,-1
 508.15 401 l 1,14,-1
 327.25 121 l 1,15,-1
 455.95 121 l 1,16,-1
 455.95 0 l 1,17,-1
 61.75 0 l 1,18,-1
 61.75 121 l 1,19,-1
 198.55 121 l 1,20,-1
 452.35 518 l 1,21,-1
 177.85 942 l 1,22,-1
 70.75 942 l 1,23,-1
 70.75 1063 l 1,24,-1
 654.85 1063 l 1,25,-1
 654.85 942 l 1,26,-1
 538.75 942 l 1,27,-1
 708.85 678 l 1,0,-1
EndSplineSet
KernsSLIFO: 45 -36 0 0
EndChar
StartChar: y
Encoding: 121 121 121
Width: 1131
Flags: W
Fore
635.7 -240 m 1,0,1
 592.5 -357 592.5 -357 531.3 -406 c 128,-1,2
 470.1 -455 470.1 -455 366.6 -455 c 0,3,4
 322.5 -455 322.5 -455 268.5 -444 c 128,-1,5
 214.5 -433 214.5 -433 150.6 -412 c 1,6,-1
 150.6 -190 l 1,7,-1
 252.3 -191 l 1,8,9
 255 -268 255 -268 285.15 -305 c 128,-1,10
 315.3 -342 315.3 -342 375.6 -342 c 0,11,12
 434.1 -342 434.1 -342 470.1 -306.5 c 128,-1,13
 506.1 -271 506.1 -271 542.1 -172 c 1,14,-1
 556.5 -135 l 1,15,-1
 139.8 942 l 1,16,-1
 36.2998 942 l 1,17,-1
 36.2998 1063 l 1,18,-1
 588 1063 l 1,19,-1
 588 942 l 1,20,-1
 473.7 942 l 1,21,-1
 716.7 313 l 1,22,-1
 943.5 942 l 1,23,-1
 816.6 942 l 1,24,-1
 816.6 1063 l 1,25,-1
 1175.7 1063 l 1,26,-1
 1175.7 942 l 1,27,-1
 1059.6 942 l 1,28,-1
 635.7 -240 l 1,0,1
EndSplineSet
KernsSLIFO: 8217 75 0 0 8216 75 0 0 8221 75 0 0 8220 75 0 0 46 -235 0 0 44 -196 0 0
EndChar
StartChar: z
Encoding: 122 122 122
Width: 1105
Flags: W
Fore
123.1 0 m 1,0,-1
 123.1 121 l 1,1,-1
 672.1 946 l 1,2,-1
 259 946 l 1,3,-1
 259 764 l 1,4,-1
 151.9 764 l 1,5,-1
 151.9 1063 l 1,6,-1
 1042.9 1063 l 1,7,-1
 1042.9 944 l 1,8,-1
 493 119 l 1,9,-1
 935.8 119 l 1,10,-1
 935.8 311 l 1,11,-1
 1042.9 311 l 1,12,-1
 1042.9 0 l 1,13,-1
 123.1 0 l 1,0,-1
EndSplineSet
EndChar
StartChar: braceleft
Encoding: 123 123 123
Width: 1250
Flags: W
Fore
1084.95 -213 m 1,0,-1
 1084.95 -334 l 1,1,-1
 951.75 -334 l 2,2,3
 739.35 -334 739.35 -334 665.55 -309.5 c 128,-1,4
 591.75 -285 591.75 -285 546.75 -223 c 0,5,6
 520.65 -187 520.65 -187 509.4 -132 c 128,-1,7
 498.15 -77 498.15 -77 498.15 35 c 2,8,-1
 498.15 285 l 2,9,10
 498.15 436 498.15 436 450 493.5 c 128,-1,11
 401.85 551 401.85 551 274.95 551 c 2,12,-1
 220.05 551 l 1,13,-1
 220.05 672 l 1,14,-1
 274.95 672 l 2,15,16
 401.85 672 401.85 672 450 729.5 c 128,-1,17
 498.15 787 498.15 787 498.15 938 c 2,18,-1
 498.15 1188 l 2,19,20
 498.15 1300 498.15 1300 509.4 1354.5 c 128,-1,21
 520.65 1409 520.65 1409 546.75 1446 c 0,22,23
 591.75 1507 591.75 1507 665.55 1531.5 c 128,-1,24
 739.35 1556 739.35 1556 951.75 1556 c 2,25,-1
 1084.95 1556 l 1,26,-1
 1084.95 1436 l 1,27,-1
 992.25 1436 l 2,28,29
 891.45 1436 891.45 1436 854.55 1389 c 128,-1,30
 817.65 1342 817.65 1342 817.65 1206 c 2,31,-1
 817.65 936 l 2,32,33
 817.65 777 817.65 777 773.1 709.5 c 128,-1,34
 728.55 642 728.55 642 612.45 612 c 1,35,36
 730.35 578 730.35 578 774 512 c 128,-1,37
 817.65 446 817.65 446 817.65 287 c 2,38,-1
 817.65 16 l 2,39,40
 817.65 -119 817.65 -119 854.55 -166 c 128,-1,41
 891.45 -213 891.45 -213 992.25 -213 c 2,42,-1
 1084.95 -213 l 1,0,-1
EndSplineSet
EndChar
StartChar: bar
Encoding: 124 124 124
Width: 707
Flags: W
Fore
468.25 1565 m 1,0,-1
 468.25 -483 l 1,1,-1
 274.75 -483 l 1,2,-1
 274.75 1565 l 1,3,-1
 468.25 1565 l 1,0,-1
EndSplineSet
EndChar
StartChar: braceright
Encoding: 125 125 125
Width: 1251
Flags: W
Fore
233.95 -213 m 1,0,-1
 324.85 -213 l 2,1,2
 424.75 -213 424.75 -213 462.1 -166 c 128,-1,3
 499.45 -119 499.45 -119 499.45 16 c 2,4,-1
 499.45 287 l 2,5,6
 499.45 444 499.45 444 543.55 511 c 128,-1,7
 587.65 578 587.65 578 706.45 612 c 1,8,9
 589.45 642 589.45 642 544.45 710 c 128,-1,10
 499.45 778 499.45 778 499.45 936 c 2,11,-1
 499.45 1206 l 2,12,13
 499.45 1342 499.45 1342 462.1 1389 c 128,-1,14
 424.75 1436 424.75 1436 324.85 1436 c 2,15,-1
 233.95 1436 l 1,16,-1
 233.95 1556 l 1,17,-1
 365.35 1556 l 2,18,19
 577.75 1556 577.75 1556 651.55 1531.5 c 128,-1,20
 725.35 1507 725.35 1507 770.35 1446 c 0,21,22
 796.45 1409 796.45 1409 807.7 1354.5 c 128,-1,23
 818.95 1300 818.95 1300 818.95 1188 c 2,24,-1
 818.95 938 l 2,25,26
 818.95 787 818.95 787 867.1 729.5 c 128,-1,27
 915.25 672 915.25 672 1041.25 672 c 2,28,-1
 1097.05 672 l 1,29,-1
 1097.05 551 l 1,30,-1
 1041.25 551 l 2,31,32
 915.25 551 915.25 551 867.1 493.5 c 128,-1,33
 818.95 436 818.95 436 818.95 285 c 2,34,-1
 818.95 35 l 2,35,36
 818.95 -77 818.95 -77 807.7 -132 c 128,-1,37
 796.45 -187 796.45 -187 770.35 -223 c 0,38,39
 725.35 -285 725.35 -285 651.55 -309.5 c 128,-1,40
 577.75 -334 577.75 -334 365.35 -334 c 2,41,-1
 233.95 -334 l 1,42,-1
 233.95 -213 l 1,0,-1
EndSplineSet
EndChar
StartChar: asciitilde
Encoding: 126 126 126
Width: 1630
Flags: W
Fore
1434.9 831 m 1,0,-1
 1434.9 625 l 1,1,2
 1351.2 539 1351.2 539 1267.05 498 c 128,-1,3
 1182.9 457 1182.9 457 1092 457 c 0,4,5
 1006.5 457 1006.5 457 869.7 515 c 0,6,7
 854.4 521 854.4 521 847.2 524 c 0,8,9
 840.9 527 840.9 527 829.2 532 c 0,10,11
 674.4 598 674.4 598 587.1 598 c 0,12,13
 517.8 598 517.8 598 442.65 562 c 128,-1,14
 367.5 526 367.5 526 281.1 453 c 1,15,-1
 281.1 659 l 1,16,17
 367.5 746 367.5 746 450.75 786.5 c 128,-1,18
 534 827 534 827 624 827 c 0,19,20
 709.5 827 709.5 827 845.4 770 c 0,21,22
 861.6 763 861.6 763 868.8 760 c 2,23,-1
 882.3 754 l 2,24,25
 1038 686 1038 686 1128.9 686 c 0,26,27
 1198.2 686 1198.2 686 1273.35 722 c 128,-1,28
 1348.5 758 1348.5 758 1434.9 831 c 1,0,-1
EndSplineSet
EndChar
StartChar: exclamdown
Encoding: 161 161 161
Width: 854
Flags: W
Fore
620.05 1329 m 0,0,1
 620.05 1251 620.05 1251 569.65 1196 c 128,-1,2
 519.25 1141 519.25 1141 449.05 1141 c 0,3,4
 377.95 1141 377.95 1141 328.45 1196 c 128,-1,5
 278.95 1251 278.95 1251 278.95 1329 c 0,6,7
 278.95 1408 278.95 1408 328.9 1464 c 128,-1,8
 378.85 1520 378.85 1520 449.05 1520 c 0,9,10
 519.25 1520 519.25 1520 569.65 1463.5 c 128,-1,11
 620.05 1407 620.05 1407 620.05 1329 c 0,0,1
618.25 0 m 1,12,-1
 280.75 0 l 1,13,-1
 386.05 842 l 1,14,-1
 386.05 1032 l 1,15,-1
 511.15 1032 l 1,16,-1
 511.15 842 l 1,17,-1
 618.25 0 l 1,12,-1
EndSplineSet
EndChar
StartChar: cent
Encoding: 162 162 162
Width: 1352
Flags: W
Fore
734.75 94 m 1,0,-1
 734.75 969 l 1,1,2
 645.65 944 645.65 944 606.5 843.5 c 128,-1,3
 567.35 743 567.35 743 567.35 532 c 0,4,5
 567.35 321 567.35 321 606.05 221 c 128,-1,6
 644.75 121 644.75 121 734.75 94 c 1,0,-1
1179.35 332 m 1,7,8
 1150.55 175 1150.55 175 1065.5 85.5 c 128,-1,9
 980.45 -4 980.45 -4 843.65 -23 c 1,10,-1
 843.65 -299 l 1,11,-1
 734.75 -299 l 1,12,-1
 734.75 -29 l 1,13,14
 485.45 -23 485.45 -23 349.55 123.5 c 128,-1,15
 213.65 270 213.65 270 213.65 532 c 0,16,17
 213.65 794 213.65 794 349.55 939.5 c 128,-1,18
 485.45 1085 485.45 1085 734.75 1092 c 1,19,-1
 734.75 1356 l 1,20,-1
 843.65 1356 l 1,21,-1
 843.65 1087 l 1,22,23
 896.75 1083 896.75 1083 969.2 1064 c 128,-1,24
 1041.65 1045 1041.65 1045 1147.85 1008 c 1,25,-1
 1147.85 713 l 1,26,-1
 1046.15 713 l 1,27,28
 1032.65 839 1032.65 839 983.15 903.5 c 128,-1,29
 933.65 968 933.65 968 843.65 979 c 1,30,-1
 843.65 88 l 1,31,32
 925.55 104 925.55 104 972.35 165 c 128,-1,33
 1019.15 226 1019.15 226 1029.95 332 c 1,34,-1
 1179.35 332 l 1,7,8
EndSplineSet
EndChar
StartChar: sterling
Encoding: 163 163 163
Width: 1353
Flags: W
Fore
1193.45 1202 m 1,0,-1
 1085.45 1202 l 1,1,2
 1080.05 1299 1080.05 1299 1035.5 1353 c 128,-1,3
 990.95 1407 990.95 1407 915.35 1407 c 0,4,5
 810.05 1407 810.05 1407 764.15 1332.5 c 128,-1,6
 718.25 1258 718.25 1258 718.25 1083 c 2,7,-1
 718.25 815 l 1,8,-1
 1035.05 815 l 1,9,-1
 1035.05 694 l 1,10,-1
 718.25 694 l 1,11,-1
 718.25 137 l 1,12,-1
 1096.25 137 l 1,13,-1
 1096.25 365 l 1,14,-1
 1219.55 365 l 1,15,-1
 1219.55 0 l 1,16,-1
 203.45 0 l 1,17,-1
 203.45 121 l 1,18,-1
 377.15 121 l 1,19,-1
 377.15 694 l 1,20,-1
 203.45 694 l 1,21,-1
 203.45 815 l 1,22,-1
 377.15 815 l 1,23,-1
 377.15 1092 l 2,24,25
 377.15 1308 377.15 1308 497.3 1414 c 128,-1,26
 617.45 1520 617.45 1520 864.05 1520 c 0,27,28
 922.55 1520 922.55 1520 1004 1511 c 128,-1,29
 1085.45 1502 1085.45 1502 1193.45 1485 c 1,30,-1
 1193.45 1202 l 1,0,-1
EndSplineSet
EndChar
StartChar: currency
Encoding: 164 164 164
Width: 1238
Flags: W
Fore
653.05 422 m 0,0,1
 734.95 422 734.95 422 792.55 485.5 c 128,-1,2
 850.15 549 850.15 549 850.15 641 c 0,3,4
 850.15 733 850.15 733 793 796.5 c 128,-1,5
 735.85 860 735.85 860 653.05 860 c 0,6,7
 571.15 860 571.15 860 513.55 796.5 c 128,-1,8
 455.95 733 455.95 733 455.95 641 c 0,9,10
 455.95 548 455.95 548 512.65 485 c 128,-1,11
 569.35 422 569.35 422 653.05 422 c 0,0,1
457.75 268 m 1,12,-1
 269.65 61 l 1,13,-1
 133.75 215 l 1,14,-1
 321.85 424 l 1,15,16
 293.95 470 293.95 470 280.9 523.5 c 128,-1,17
 267.85 577 267.85 577 267.85 641 c 0,18,19
 267.85 704 267.85 704 281.35 758 c 128,-1,20
 294.85 812 294.85 812 321.85 858 c 1,21,-1
 133.75 1063 l 1,22,-1
 271.45 1221 l 1,23,-1
 457.75 1010 l 1,24,25
 500.95 1040 500.95 1040 549.55 1054.5 c 128,-1,26
 598.15 1069 598.15 1069 653.05 1069 c 0,27,28
 702.55 1069 702.55 1069 751.6 1054.5 c 128,-1,29
 800.65 1040 800.65 1040 851.95 1010 c 1,30,-1
 1036.45 1221 l 1,31,-1
 1173.25 1067 l 1,32,-1
 985.15 862 l 1,33,34
 1012.15 806 1012.15 806 1025.2 750.5 c 128,-1,35
 1038.25 695 1038.25 695 1038.25 641 c 0,36,37
 1038.25 578 1038.25 578 1025.2 525.5 c 128,-1,38
 1012.15 473 1012.15 473 985.15 426 c 1,39,-1
 1173.25 215 l 1,40,-1
 1032.85 61 l 1,41,-1
 846.55 272 l 1,42,43
 805.15 242 805.15 242 757.45 227.5 c 128,-1,44
 709.75 213 709.75 213 653.05 213 c 0,45,46
 600.85 213 600.85 213 552.25 227 c 128,-1,47
 503.65 241 503.65 241 457.75 268 c 1,12,-1
EndSplineSet
EndChar
StartChar: yen
Encoding: 165 165 165
Width: 1352
Flags: W
Fore
363.45 0 m 1,0,-1
 363.45 121 l 1,1,-1
 534.45 121 l 1,2,-1
 534.45 467 l 1,3,-1
 171.75 467 l 1,4,-1
 171.75 584 l 1,5,-1
 534.45 584 l 1,6,-1
 534.45 643 l 1,7,-1
 479.55 778 l 1,8,-1
 171.75 778 l 1,9,-1
 171.75 895 l 1,10,-1
 429.15 895 l 1,11,-1
 228.45 1372 l 1,12,-1
 105.15 1372 l 1,13,-1
 105.15 1493 l 1,14,-1
 729.75 1493 l 1,15,-1
 729.75 1372 l 1,16,-1
 576.75 1372 l 1,17,-1
 808.95 821 l 1,18,-1
 1039.35 1372 l 1,19,-1
 903.45 1372 l 1,20,-1
 903.45 1493 l 1,21,-1
 1295.85 1493 l 1,22,-1
 1295.85 1372 l 1,23,-1
 1174.35 1372 l 1,24,-1
 975.45 895 l 1,25,-1
 1238.25 895 l 1,26,-1
 1238.25 778 l 1,27,-1
 923.25 778 l 1,28,-1
 875.55 662 l 1,29,-1
 875.55 584 l 1,30,-1
 1238.25 584 l 1,31,-1
 1238.25 467 l 1,32,-1
 875.55 467 l 1,33,-1
 875.55 121 l 1,34,-1
 1046.55 121 l 1,35,-1
 1046.55 0 l 1,36,-1
 363.45 0 l 1,0,-1
EndSplineSet
EndChar
StartChar: brokenbar
Encoding: 166 166 166
Width: 707
Flags: W
Fore
468.25 1432 m 1,0,-1
 468.25 674 l 1,1,-1
 274.75 674 l 1,2,-1
 274.75 1432 l 1,3,-1
 468.25 1432 l 1,0,-1
468.25 408 m 1,4,-1
 468.25 -350 l 1,5,-1
 274.75 -350 l 1,6,-1
 274.75 408 l 1,7,-1
 468.25 408 l 1,4,-1
EndSplineSet
EndChar
StartChar: section
Encoding: 167 167 167
Width: 1017
Flags: W
Fore
860.85 1475 m 1,0,-1
 860.85 1235 l 1,1,-1
 753.75 1235 l 1,2,3
 748.35 1321 748.35 1321 701.55 1364 c 128,-1,4
 654.75 1407 654.75 1407 567.45 1407 c 0,5,6
 494.55 1407 494.55 1407 453.6 1370 c 128,-1,7
 412.65 1333 412.65 1333 412.65 1266 c 0,8,9
 412.65 1219 412.65 1219 436.95 1186 c 128,-1,10
 461.25 1153 461.25 1153 542.25 1106 c 2,11,-1
 663.75 1034 l 1,12,13
 833.85 936 833.85 936 897.3 852 c 128,-1,14
 960.75 768 960.75 768 960.75 653 c 0,15,16
 960.75 549 960.75 549 909.45 475 c 128,-1,17
 858.15 401 858.15 401 755.55 358 c 1,18,19
 830.25 311 830.25 311 864.9 247.5 c 128,-1,20
 899.55 184 899.55 184 899.55 94 c 0,21,22
 899.55 -43 899.55 -43 801.45 -119 c 128,-1,23
 703.35 -195 703.35 -195 523.35 -195 c 0,24,25
 448.65 -195 448.65 -195 367.2 -183.5 c 128,-1,26
 285.75 -172 285.75 -172 193.95 -150 c 1,27,-1
 193.95 90 l 1,28,-1
 300.15 90 l 1,29,30
 307.35 0 307.35 0 354.15 -41 c 128,-1,31
 400.95 -82 400.95 -82 496.35 -82 c 0,32,33
 574.65 -82 574.65 -82 616.5 -45 c 128,-1,34
 658.35 -8 658.35 -8 658.35 61 c 0,35,36
 658.35 108 658.35 108 634.5 141 c 128,-1,37
 610.65 174 610.65 174 528.75 221 c 2,38,-1
 407.25 293 l 2,39,40
 238.05 392 238.05 392 174.15 476 c 128,-1,41
 110.25 560 110.25 560 110.25 674 c 0,42,43
 110.25 777 110.25 777 162 850 c 128,-1,44
 213.75 923 213.75 923 317.25 967 c 1,45,46
 242.55 1013 242.55 1013 207 1077.5 c 128,-1,47
 171.45 1142 171.45 1142 171.45 1231 c 0,48,49
 171.45 1367 171.45 1367 269.55 1443.5 c 128,-1,50
 367.65 1520 367.65 1520 544.05 1520 c 0,51,52
 610.65 1520 610.65 1520 688.95 1508.5 c 128,-1,53
 767.25 1497 767.25 1497 860.85 1475 c 1,0,-1
409.05 901 m 1,54,55
 369.45 868 369.45 868 348.75 829 c 128,-1,56
 328.05 790 328.05 790 328.05 745 c 0,57,58
 328.05 684 328.05 684 369 633 c 128,-1,59
 409.95 582 409.95 582 508.95 524 c 2,60,-1
 660.15 436 l 1,61,62
 700.65 471 700.65 471 721.8 510.5 c 128,-1,63
 742.95 550 742.95 550 742.95 592 c 0,64,65
 742.95 652 742.95 652 701.1 703 c 128,-1,66
 659.25 754 659.25 754 558.45 813 c 2,67,-1
 409.05 901 l 1,54,55
EndSplineSet
EndChar
StartChar: dieresis
Encoding: 168 168 168
Width: 972
Flags: W
Fore
178.1 1468 m 0,0,1
 178.1 1528 178.1 1528 217.7 1571 c 128,-1,2
 257.3 1614 257.3 1614 311.3 1614 c 0,3,4
 365.3 1614 365.3 1614 403.55 1571 c 128,-1,5
 441.8 1528 441.8 1528 441.8 1468 c 0,6,7
 441.8 1408 441.8 1408 403.1 1364.5 c 128,-1,8
 364.4 1321 364.4 1321 311.3 1321 c 0,9,10
 257.3 1321 257.3 1321 217.7 1365 c 128,-1,11
 178.1 1409 178.1 1409 178.1 1468 c 0,0,1
580.4 1468 m 0,12,13
 580.4 1528 580.4 1528 619.55 1571 c 128,-1,14
 658.7 1614 658.7 1614 712.7 1614 c 0,15,16
 766.7 1614 766.7 1614 806.3 1571 c 128,-1,17
 845.9 1528 845.9 1528 845.9 1468 c 0,18,19
 845.9 1409 845.9 1409 806.3 1365 c 128,-1,20
 766.7 1321 766.7 1321 712.7 1321 c 0,21,22
 658.7 1321 658.7 1321 619.55 1365 c 128,-1,23
 580.4 1409 580.4 1409 580.4 1468 c 0,12,13
EndSplineSet
Ligature: 0 1 'liga' space uni0308
EndChar
StartChar: copyright
Encoding: 169 169 169
Width: 1945
Flags: W
Fore
1024 1485 m 0,0,1
 1160.8 1485 1160.8 1485 1279.15 1430 c 128,-1,2
 1397.5 1375 1397.5 1375 1495.6 1266 c 0,3,4
 1593.7 1157 1593.7 1157 1642.3 1026 c 128,-1,5
 1690.9 895 1690.9 895 1690.9 741 c 0,6,7
 1690.9 589 1690.9 589 1642.3 458.5 c 128,-1,8
 1593.7 328 1593.7 328 1495.6 219 c 0,9,10
 1397.5 110 1397.5 110 1279.15 55 c 128,-1,11
 1160.8 0 1160.8 0 1024 0 c 0,12,13
 887.2 0 887.2 0 768.85 55 c 128,-1,14
 650.5 110 650.5 110 552.4 219 c 0,15,16
 454.3 328 454.3 328 405.7 458.5 c 128,-1,17
 357.1 589 357.1 589 357.1 741 c 0,18,19
 357.1 895 357.1 895 405.7 1026 c 128,-1,20
 454.3 1157 454.3 1157 552.4 1266 c 0,21,22
 650.5 1375 650.5 1375 768.85 1430 c 128,-1,23
 887.2 1485 887.2 1485 1024 1485 c 0,0,1
1024 1331 m 0,24,25
 915.1 1331 915.1 1331 821.5 1287.5 c 128,-1,26
 727.9 1244 727.9 1244 649.6 1157 c 0,27,28
 572.2 1071 572.2 1071 533.5 967.5 c 128,-1,29
 494.8 864 494.8 864 494.8 741 c 0,30,31
 494.8 619 494.8 619 533.5 515.5 c 128,-1,32
 572.2 412 572.2 412 649.6 326 c 0,33,34
 727 240 727 240 821.05 197 c 128,-1,35
 915.1 154 915.1 154 1024 154 c 0,36,37
 1134.7 154 1134.7 154 1227.4 196.5 c 128,-1,38
 1320.1 239 1320.1 239 1398.4 326 c 0,39,40
 1475.8 412 1475.8 412 1514.5 515.5 c 128,-1,41
 1553.2 619 1553.2 619 1553.2 741 c 0,42,43
 1553.2 864 1553.2 864 1514.5 967.5 c 128,-1,44
 1475.8 1071 1475.8 1071 1398.4 1157 c 0,45,46
 1319.2 1245 1319.2 1245 1226.05 1288 c 128,-1,47
 1132.9 1331 1132.9 1331 1024 1331 c 0,24,25
1354.3 580 m 1,48,49
 1330 441 1330 441 1247.65 371 c 128,-1,50
 1165.3 301 1165.3 301 1025.8 301 c 0,51,52
 856.6 301 856.6 301 752.2 422 c 128,-1,53
 647.8 543 647.8 543 647.8 741 c 0,54,55
 647.8 943 647.8 943 753.1 1063.5 c 128,-1,56
 858.4 1184 858.4 1184 1034.8 1184 c 0,57,58
 1105.9 1184 1105.9 1184 1177.9 1165.5 c 128,-1,59
 1249.9 1147 1249.9 1147 1328.2 1108 c 1,60,-1
 1328.2 885 l 1,61,-1
 1233.7 885 l 1,62,63
 1222.9 979 1222.9 979 1175.65 1032 c 128,-1,64
 1128.4 1085 1128.4 1085 1055.5 1085 c 0,65,66
 961.9 1085 961.9 1085 908.35 993.5 c 128,-1,67
 854.8 902 854.8 902 854.8 741 c 0,68,69
 854.8 580 854.8 580 907.9 489.5 c 128,-1,70
 961 399 961 399 1055.5 399 c 0,71,72
 1121.2 399 1121.2 399 1165.3 445 c 128,-1,73
 1209.4 491 1209.4 491 1230.1 580 c 1,74,-1
 1354.3 580 l 1,48,49
EndSplineSet
EndChar
StartChar: ordfeminine
Encoding: 170 170 170
Width: 948
Flags: W
Fore
152.8 639 m 1,0,-1
 871 639 l 1,1,-1
 871 504 l 1,2,-1
 152.8 504 l 1,3,-1
 152.8 639 l 1,0,-1
812.5 1212 m 2,4,-1
 812.5 850 l 1,5,-1
 916 850 l 1,6,-1
 916 756 l 1,7,-1
 574.9 756 l 1,8,-1
 574.9 848 l 1,9,10
 529 791 529 791 470.95 764 c 128,-1,11
 412.9 737 412.9 737 336.4 737 c 0,12,13
 225.7 737 225.7 737 165.85 798 c 128,-1,14
 106 859 106 859 106 973 c 0,15,16
 106 1101 106 1101 191.05 1164 c 128,-1,17
 276.1 1227 276.1 1227 448.9 1227 c 2,18,-1
 574.9 1227 l 1,19,-1
 574.9 1255 l 2,20,21
 574.9 1345 574.9 1345 532.6 1389.5 c 128,-1,22
 490.3 1434 490.3 1434 404.8 1434 c 0,23,24
 336.4 1434 336.4 1434 296.8 1401.5 c 128,-1,25
 257.2 1369 257.2 1369 248.2 1307 c 1,26,-1
 161.8 1307 l 1,27,-1
 161.8 1473 l 1,28,29
 227.5 1496 227.5 1496 296.8 1508 c 128,-1,30
 366.1 1520 366.1 1520 441.7 1520 c 0,31,32
 634.3 1520 634.3 1520 723.4 1446 c 128,-1,33
 812.5 1372 812.5 1372 812.5 1212 c 2,4,-1
574.9 1001 m 2,34,-1
 574.9 1133 l 1,35,-1
 484 1133 l 2,36,37
 419.2 1133 419.2 1133 381.85 1095.5 c 128,-1,38
 344.5 1058 344.5 1058 344.5 993 c 0,39,40
 344.5 931 344.5 931 371.95 897.5 c 128,-1,41
 399.4 864 399.4 864 450.7 864 c 0,42,43
 507.4 864 507.4 864 541.15 901 c 128,-1,44
 574.9 938 574.9 938 574.9 1001 c 2,34,-1
EndSplineSet
EndChar
StartChar: guillemotleft
Encoding: 171 171 171
Width: 1214
Flags: W
Fore
1040.55 1069 m 1,0,-1
 1040.55 922 l 1,1,-1
 825.45 600 l 1,2,-1
 1040.55 279 l 1,3,-1
 1040.55 131 l 1,4,-1
 618.45 516 l 1,5,-1
 618.45 684 l 1,6,-1
 1040.55 1069 l 1,0,-1
626.55 1069 m 1,7,-1
 626.55 922 l 1,8,-1
 410.55 600 l 1,9,-1
 626.55 279 l 1,10,-1
 626.55 131 l 1,11,-1
 204.45 516 l 1,12,-1
 204.45 684 l 1,13,-1
 626.55 1069 l 1,7,-1
EndSplineSet
KernsSLIFO: 356 -149 0 0 84 -149 0 0 74 -73 0 0
EndChar
StartChar: logicalnot
Encoding: 172 172 172
Width: 1630
Flags: W
Fore
281.1 903 m 1,0,-1
 1434.9 903 l 1,1,-1
 1434.9 287 l 1,2,-1
 1228.8 287 l 1,3,-1
 1228.8 676 l 1,4,-1
 281.1 676 l 1,5,-1
 281.1 903 l 1,0,-1
EndSplineSet
EndChar
StartChar: sfthyphen
Encoding: 173 173 173
Width: 807
Flags: W
Fore
142.4 684 m 1,0,-1
 707.6 684 l 1,1,-1
 707.6 414 l 1,2,-1
 142.4 414 l 1,3,-1
 142.4 684 l 1,0,-1
EndSplineSet
EndChar
StartChar: registered
Encoding: 174 174 174
Width: 1945
Flags: W
Fore
1151.8 754 m 1,0,1
 1186.9 743 1186.9 743 1213.9 716.5 c 128,-1,2
 1240.9 690 1240.9 690 1258 649 c 2,3,-1
 1348 434 l 1,4,-1
 1402 434 l 1,5,-1
 1402 352 l 1,6,-1
 1201.3 352 l 1,7,-1
 1096 606 l 1,8,9
 1067.2 674 1067.2 674 1040.65 695.5 c 128,-1,10
 1014.1 717 1014.1 717 964.6 717 c 2,11,-1
 941.2 717 l 1,12,-1
 941.2 434 l 1,13,-1
 1018.6 434 l 1,14,-1
 1018.6 352 l 1,15,-1
 686.5 352 l 1,16,-1
 686.5 434 l 1,17,-1
 763.9 434 l 1,18,-1
 763.9 1077 l 1,19,-1
 686.5 1077 l 1,20,-1
 686.5 1159 l 1,21,-1
 1094.2 1159 l 2,22,23
 1202.2 1159 1202.2 1159 1264.3 1104 c 128,-1,24
 1326.4 1049 1326.4 1049 1326.4 954 c 0,25,26
 1326.4 865 1326.4 865 1281.85 814 c 128,-1,27
 1237.3 763 1237.3 763 1151.8 754 c 1,0,1
941.2 799 m 1,28,-1
 1001.5 799 l 2,29,30
 1072.6 799 1072.6 799 1110.85 835 c 128,-1,31
 1149.1 871 1149.1 871 1149.1 938 c 0,32,33
 1149.1 1005 1149.1 1005 1110.85 1041 c 128,-1,34
 1072.6 1077 1072.6 1077 1001.5 1077 c 2,35,-1
 941.2 1077 l 1,36,-1
 941.2 799 l 1,28,-1
1024 1485 m 0,37,38
 1160.8 1485 1160.8 1485 1279.15 1430 c 128,-1,39
 1397.5 1375 1397.5 1375 1495.6 1266 c 0,40,41
 1593.7 1157 1593.7 1157 1642.3 1026 c 128,-1,42
 1690.9 895 1690.9 895 1690.9 741 c 0,43,44
 1690.9 589 1690.9 589 1642.3 458.5 c 128,-1,45
 1593.7 328 1593.7 328 1495.6 219 c 0,46,47
 1397.5 110 1397.5 110 1279.15 55 c 128,-1,48
 1160.8 0 1160.8 0 1024 0 c 0,49,50
 887.2 0 887.2 0 768.85 55 c 128,-1,51
 650.5 110 650.5 110 552.4 219 c 0,52,53
 454.3 328 454.3 328 405.7 458.5 c 128,-1,54
 357.1 589 357.1 589 357.1 741 c 0,55,56
 357.1 895 357.1 895 405.7 1026 c 128,-1,57
 454.3 1157 454.3 1157 552.4 1266 c 0,58,59
 650.5 1375 650.5 1375 768.85 1430 c 128,-1,60
 887.2 1485 887.2 1485 1024 1485 c 0,37,38
1024 1331 m 0,61,62
 915.1 1331 915.1 1331 821.5 1287.5 c 128,-1,63
 727.9 1244 727.9 1244 649.6 1157 c 0,64,65
 572.2 1071 572.2 1071 533.5 967.5 c 128,-1,66
 494.8 864 494.8 864 494.8 741 c 0,67,68
 494.8 619 494.8 619 533.5 515.5 c 128,-1,69
 572.2 412 572.2 412 649.6 326 c 0,70,71
 727 240 727 240 821.05 197 c 128,-1,72
 915.1 154 915.1 154 1024 154 c 0,73,74
 1134.7 154 1134.7 154 1227.4 196.5 c 128,-1,75
 1320.1 239 1320.1 239 1398.4 326 c 0,76,77
 1475.8 412 1475.8 412 1514.5 515.5 c 128,-1,78
 1553.2 619 1553.2 619 1553.2 741 c 0,79,80
 1553.2 864 1553.2 864 1514.5 967.5 c 128,-1,81
 1475.8 1071 1475.8 1071 1398.4 1157 c 0,82,83
 1319.2 1245 1319.2 1245 1226.05 1288 c 128,-1,84
 1132.9 1331 1132.9 1331 1024 1331 c 0,61,62
EndSplineSet
EndChar
StartChar: macron
Encoding: 175 175 175
Width: 972
Flags: W
Fore
228.5 1548 m 1,0,-1
 795.5 1548 l 1,1,-1
 795.5 1360 l 1,2,-1
 228.5 1360 l 1,3,-1
 228.5 1548 l 1,0,-1
EndSplineSet
Ligature: 0 1 'liga' space uni0304
EndChar
StartChar: degree
Encoding: 176 176 176
Width: 972
Flags: W
Fore
511.9 1534 m 0,0,1
 571.3 1534 571.3 1534 626.2 1508.5 c 128,-1,2
 681.1 1483 681.1 1483 724.3 1436 c 1,3,4
 766.6 1388 766.6 1388 788.65 1328 c 128,-1,5
 810.7 1268 810.7 1268 810.7 1200 c 0,6,7
 810.7 1133 810.7 1133 788.65 1072.5 c 128,-1,8
 766.6 1012 766.6 1012 726.1 967 c 0,9,10
 682.9 919 682.9 919 627.1 893.5 c 128,-1,11
 571.3 868 571.3 868 510.1 868 c 0,12,13
 383.2 868 383.2 868 297.25 963.5 c 128,-1,14
 211.3 1059 211.3 1059 211.3 1200 c 0,15,16
 211.3 1341 211.3 1341 298.15 1437.5 c 128,-1,17
 385 1534 385 1534 511.9 1534 c 0,0,1
511.9 1372 m 0,18,19
 447.1 1372 447.1 1372 402.1 1322 c 128,-1,20
 357.1 1272 357.1 1272 357.1 1200 c 0,21,22
 357.1 1128 357.1 1128 401.65 1079 c 128,-1,23
 446.2 1030 446.2 1030 511.9 1030 c 0,24,25
 576.7 1030 576.7 1030 621.7 1079.5 c 128,-1,26
 666.7 1129 666.7 1129 666.7 1200 c 0,27,28
 666.7 1272 666.7 1272 621.25 1322 c 128,-1,29
 575.8 1372 575.8 1372 511.9 1372 c 0,18,19
EndSplineSet
EndChar
StartChar: plusminus
Encoding: 177 177 177
Width: 1630
Flags: W
Fore
281.1 227 m 1,0,-1
 1434.9 227 l 1,1,-1
 1434.9 0 l 1,2,-1
 281.1 0 l 1,3,-1
 281.1 227 l 1,0,-1
961.5 1284 m 1,4,-1
 961.5 926 l 1,5,-1
 1434.9 926 l 1,6,-1
 1434.9 698 l 1,7,-1
 961.5 698 l 1,8,-1
 961.5 340 l 1,9,-1
 754.5 340 l 1,10,-1
 754.5 698 l 1,11,-1
 281.1 698 l 1,12,-1
 281.1 926 l 1,13,-1
 754.5 926 l 1,14,-1
 754.5 1284 l 1,15,-1
 961.5 1284 l 1,4,-1
EndSplineSet
EndChar
StartChar: twosuperior
Encoding: 178 178 178
Width: 850
Flags: W
Fore
212.6 1284 m 1,0,-1
 128 1284 l 1,1,-1
 128 1479 l 1,2,3
 192.8 1499 192.8 1499 260.75 1509.5 c 128,-1,4
 328.7 1520 328.7 1520 400.7 1520 c 0,5,6
 563.6 1520 563.6 1520 653.6 1456 c 128,-1,7
 743.6 1392 743.6 1392 743.6 1278 c 0,8,9
 743.6 1196 743.6 1196 694.55 1131.5 c 128,-1,10
 645.5 1067 645.5 1067 504.2 977 c 2,11,-1
 284.6 838 l 1,12,-1
 657.2 838 l 1,13,-1
 657.2 934 l 1,14,-1
 747.2 934 l 1,15,-1
 747.2 684 l 1,16,-1
 120.8 684 l 1,17,-1
 120.8 817 l 1,18,-1
 236.9 901 l 2,19,20
 405.2 1024 405.2 1024 450.2 1094 c 128,-1,21
 495.2 1164 495.2 1164 495.2 1257 c 0,22,23
 495.2 1341 495.2 1341 457.85 1388.5 c 128,-1,24
 420.5 1436 420.5 1436 354.8 1436 c 0,25,26
 298.1 1436 298.1 1436 258.95 1394.5 c 128,-1,27
 219.8 1353 219.8 1353 212.6 1284 c 1,0,-1
EndSplineSet
EndChar
StartChar: threesuperior
Encoding: 179 179 179
Width: 852
Flags: W
Fore
145.15 1481 m 1,0,1
 224.35 1500 224.35 1500 291.4 1510 c 128,-1,2
 358.45 1520 358.45 1520 416.05 1520 c 0,3,4
 578.05 1520 578.05 1520 661.75 1467.5 c 128,-1,5
 745.45 1415 745.45 1415 745.45 1315 c 0,6,7
 745.45 1243 745.45 1243 698.2 1196 c 128,-1,8
 650.95 1149 650.95 1149 559.15 1133 c 1,9,10
 667.15 1117 667.15 1117 722.95 1061.5 c 128,-1,11
 778.75 1006 778.75 1006 778.75 913 c 0,12,13
 778.75 791 778.75 791 686.95 729.5 c 128,-1,14
 595.15 668 595.15 668 414.25 668 c 0,15,16
 342.25 668 342.25 668 270.25 678.5 c 128,-1,17
 198.25 689 198.25 689 126.25 711 c 1,18,-1
 126.25 911 l 1,19,-1
 212.65 911 l 1,20,21
 218.95 831 218.95 831 257.65 791.5 c 128,-1,22
 296.35 752 296.35 752 367.45 752 c 0,23,24
 446.65 752 446.65 752 488.5 795 c 128,-1,25
 530.35 838 530.35 838 530.35 920 c 0,26,27
 530.35 1000 530.35 1000 486.25 1043.5 c 128,-1,28
 442.15 1087 442.15 1087 360.25 1087 c 2,29,-1
 323.35 1087 l 1,30,-1
 323.35 1171 l 1,31,-1
 351.25 1171 l 2,32,33
 424.15 1171 424.15 1171 463.3 1205 c 128,-1,34
 502.45 1239 502.45 1239 502.45 1303 c 0,35,36
 502.45 1366 502.45 1366 467.35 1401 c 128,-1,37
 432.25 1436 432.25 1436 367.45 1436 c 0,38,39
 308.05 1436 308.05 1436 272.05 1399.5 c 128,-1,40
 236.05 1363 236.05 1363 231.55 1299 c 1,41,-1
 145.15 1298 l 1,42,-1
 145.15 1481 l 1,0,1
EndSplineSet
EndChar
StartChar: acute
Encoding: 180 180 180
Width: 983
Flags: W
Fore
605.05 1638 m 1,0,-1
 856.15 1638 l 1,1,-1
 520.45 1262 l 1,2,-1
 372.85 1262 l 1,3,-1
 605.05 1638 l 1,0,-1
EndSplineSet
LCarets: 0 65535 '    ' 1 0 
Ligature: 0 1 'liga' space acutecomb
EndChar
StartChar: mu
Encoding: 181 181 181
Width: 1423
Flags: W
Fore
1224.55 1063 m 1,0,-1
 1224.55 121 l 1,1,-1
 1361.35 121 l 1,2,-1
 1361.35 0 l 1,3,-1
 905.95 0 l 1,4,-1
 905.95 125 l 1,5,6
 856.45 42 856.45 42 807.4 6.5 c 128,-1,7
 758.35 -29 758.35 -29 691.75 -29 c 0,8,9
 663.85 -29 663.85 -29 637.3 -19 c 128,-1,10
 610.75 -9 610.75 -9 581.05 12 c 1,11,-1
 581.05 -305 l 1,12,-1
 717.85 -305 l 1,13,-1
 717.85 -426 l 1,14,-1
 125.65 -426 l 1,15,-1
 125.65 -305 l 1,16,-1
 262.45 -305 l 1,17,-1
 262.45 942 l 1,18,-1
 125.65 942 l 1,19,-1
 125.65 1063 l 1,20,-1
 581.05 1063 l 1,21,-1
 581.05 467 l 2,22,23
 581.05 247 581.05 247 611.65 192 c 128,-1,24
 642.25 137 642.25 137 721.45 137 c 0,25,26
 816.85 137 816.85 137 861.4 216.5 c 128,-1,27
 905.95 296 905.95 296 905.95 467 c 2,28,-1
 905.95 942 l 1,29,-1
 788.05 942 l 1,30,-1
 788.05 1063 l 1,31,-1
 1224.55 1063 l 1,0,-1
EndSplineSet
EndChar
StartChar: paragraph
Encoding: 182 182 182
Width: 1238
Flags: W
Fore
626.95 1493 m 2,0,-1
 1126.45 1493 l 1,1,-1
 1126.45 1368 l 1,2,-1
 1024.75 1368 l 1,3,-1
 1024.75 -197 l 1,4,-1
 887.95 -197 l 1,5,-1
 887.95 1368 l 1,6,-1
 741.25 1368 l 1,7,-1
 741.25 -197 l 1,8,-1
 604.45 -197 l 1,9,-1
 604.45 649 l 1,10,11
 410.95 666 410.95 666 304.75 776.5 c 128,-1,12
 198.55 887 198.55 887 198.55 1071 c 0,13,14
 198.55 1261 198.55 1261 315.55 1377 c 128,-1,15
 432.55 1493 432.55 1493 626.95 1493 c 2,0,-1
EndSplineSet
EndChar
StartChar: periodcentered
Encoding: 183 183 183
Width: 677
Flags: W
Fore
185.05 711 m 0,0,1
 185.05 789 185.05 789 235.45 845 c 128,-1,2
 285.85 901 285.85 901 356.05 901 c 0,3,4
 427.15 901 427.15 901 477.55 845 c 128,-1,5
 527.95 789 527.95 789 527.95 711 c 0,6,7
 527.95 633 527.95 633 477.55 577.5 c 128,-1,8
 427.15 522 427.15 522 356.05 522 c 0,9,10
 285.85 522 285.85 522 235.45 577.5 c 128,-1,11
 185.05 633 185.05 633 185.05 711 c 0,0,1
EndSplineSet
EndChar
StartChar: cedilla
Encoding: 184 184 184
Width: 970
Flags: W
Fore
583.45 0 m 1,0,1
 639.25 -64 639.25 -64 665.8 -118.5 c 128,-1,2
 692.35 -173 692.35 -173 692.35 -225 c 0,3,4
 692.35 -311 692.35 -311 634.3 -356 c 128,-1,5
 576.25 -401 576.25 -401 467.35 -401 c 0,6,7
 424.15 -401 424.15 -401 378.25 -394.5 c 128,-1,8
 332.35 -388 332.35 -388 285.55 -375 c 1,9,-1
 284.65 -219 l 1,10,11
 325.15 -236 325.15 -236 363.4 -245 c 128,-1,12
 401.65 -254 401.65 -254 434.05 -254 c 0,13,14
 488.05 -254 488.05 -254 516.4 -230.5 c 128,-1,15
 544.75 -207 544.75 -207 544.75 -162 c 0,16,17
 544.75 -134 544.75 -134 529.9 -101 c 128,-1,18
 515.05 -68 515.05 -68 469.15 0 c 1,19,-1
 583.45 0 l 1,0,1
EndSplineSet
Ligature: 0 1 'liga' space uni0327
EndChar
StartChar: onesuperior
Encoding: 185 185 185
Width: 852
Flags: W
Fore
190.75 684 m 1,0,-1
 190.75 778 l 1,1,-1
 338.35 778 l 1,2,-1
 338.35 1391 l 1,3,-1
 173.65 1290 l 1,4,-1
 173.65 1395 l 1,5,-1
 373.45 1520 l 1,6,-1
 577.75 1520 l 1,7,-1
 577.75 778 l 1,8,-1
 725.35 778 l 1,9,-1
 725.35 684 l 1,10,-1
 190.75 684 l 1,0,-1
EndSplineSet
EndChar
StartChar: ordmasculine
Encoding: 186 186 186
Width: 972
Flags: W
Fore
152.9 639 m 1,0,-1
 871.1 639 l 1,1,-1
 871.1 504 l 1,2,-1
 152.9 504 l 1,3,-1
 152.9 639 l 1,0,-1
512 823 m 0,4,5
 580.4 823 580.4 823 610.55 894 c 128,-1,6
 640.7 965 640.7 965 640.7 1128 c 0,7,8
 640.7 1292 640.7 1292 610.55 1363 c 128,-1,9
 580.4 1434 580.4 1434 512 1434 c 0,10,11
 442.7 1434 442.7 1434 413 1364 c 128,-1,12
 383.3 1294 383.3 1294 383.3 1128 c 0,13,14
 383.3 963 383.3 963 413 893 c 128,-1,15
 442.7 823 442.7 823 512 823 c 0,4,5
512 737 m 0,16,17
 321.2 737 321.2 737 213.65 841 c 128,-1,18
 106.1 945 106.1 945 106.1 1128 c 0,19,20
 106.1 1311 106.1 1311 213.65 1415.5 c 128,-1,21
 321.2 1520 321.2 1520 512 1520 c 0,22,23
 702.8 1520 702.8 1520 810.35 1415.5 c 128,-1,24
 917.9 1311 917.9 1311 917.9 1128 c 0,25,26
 917.9 945 917.9 945 810.35 841 c 128,-1,27
 702.8 737 702.8 737 512 737 c 0,16,17
EndSplineSet
EndChar
StartChar: guillemotright
Encoding: 187 187 187
Width: 1217
Flags: W
Fore
239.45 1069 m 1,0,-1
 661.55 684 l 1,1,-1
 661.55 516 l 1,2,-1
 239.45 131 l 1,3,-1
 239.45 279 l 1,4,-1
 454.55 600 l 1,5,-1
 239.45 922 l 1,6,-1
 239.45 1069 l 1,0,-1
653.45 1069 m 1,7,-1
 1075.55 684 l 1,8,-1
 1075.55 516 l 1,9,-1
 653.45 131 l 1,10,-1
 653.45 279 l 1,11,-1
 869.45 600 l 1,12,-1
 653.45 922 l 1,13,-1
 653.45 1069 l 1,7,-1
EndSplineSet
KernsSLIFO: 356 -149 0 0 84 -149 0 0 74 -73 0 0
EndChar
StartChar: questiondown
Encoding: 191 191 191
Width: 1137
Flags: W
Fore
830.15 1329 m 0,0,1
 830.15 1251 830.15 1251 779.75 1196 c 128,-1,2
 729.35 1141 729.35 1141 659.15 1141 c 0,3,4
 588.05 1141 588.05 1141 538.55 1196 c 128,-1,5
 489.05 1251 489.05 1251 489.05 1329 c 0,6,7
 489.05 1408 489.05 1408 539 1464 c 128,-1,8
 588.95 1520 588.95 1520 659.15 1520 c 0,9,10
 729.35 1520 729.35 1520 779.75 1463.5 c 128,-1,11
 830.15 1407 830.15 1407 830.15 1329 c 0,0,1
1018.25 39 m 1,12,13
 906.65 5 906.65 5 805.85 -12 c 128,-1,14
 705.05 -29 705.05 -29 610.55 -29 c 0,15,16
 383.75 -29 383.75 -29 262.25 81.5 c 128,-1,17
 140.75 192 140.75 192 140.75 397 c 0,18,19
 140.75 599 140.75 599 258.2 715.5 c 128,-1,20
 375.65 832 375.65 832 596.15 850 c 1,21,-1
 596.15 1055 l 1,22,-1
 721.25 1055 l 1,23,-1
 721.25 756 l 1,24,25
 596.15 713 596.15 713 537.2 620.5 c 128,-1,26
 478.25 528 478.25 528 478.25 375 c 0,27,28
 478.25 230 478.25 230 533.15 157 c 128,-1,29
 588.05 84 588.05 84 696.05 84 c 0,30,31
 794.15 84 794.15 84 847.7 150 c 128,-1,32
 901.25 216 901.25 216 910.25 346 c 1,33,-1
 1018.25 346 l 1,34,-1
 1018.25 39 l 1,12,13
EndSplineSet
EndChar
StartChar: Aring
Encoding: 197 197 197
Width: 1509
Flags: W
Fore
671.1 1616 m 0,0,1
 671.1 1562 671.1 1562 706.2 1523.5 c 128,-1,2
 741.3 1485 741.3 1485 789 1485 c 0,3,4
 838.5 1485 838.5 1485 873.15 1523.5 c 128,-1,5
 907.8 1562 907.8 1562 907.8 1616 c 0,6,7
 907.8 1670 907.8 1670 872.7 1708.5 c 128,-1,8
 837.6 1747 837.6 1747 789 1747 c 0,9,10
 741.3 1747 741.3 1747 706.2 1708.5 c 128,-1,11
 671.1 1670 671.1 1670 671.1 1616 c 0,0,1
65.4004 0 m 1,12,-1
 65.4004 121 l 1,13,-1
 175.2 121 l 1,14,-1
 642.3 1384 l 1,15,16
 590.1 1421 590.1 1421 561.75 1481.5 c 128,-1,17
 533.4 1542 533.4 1542 533.4 1616 c 0,18,19
 533.4 1733 533.4 1733 608.55 1817 c 128,-1,20
 683.7 1901 683.7 1901 789 1901 c 0,21,22
 895.2 1901 895.2 1901 970.35 1817 c 128,-1,23
 1045.5 1733 1045.5 1733 1045.5 1616 c 0,24,25
 1045.5 1542 1045.5 1542 1018.05 1483 c 128,-1,26
 990.6 1424 990.6 1424 936.6 1384 c 1,27,-1
 1402.8 121 l 1,28,-1
 1530.6 121 l 1,29,-1
 1530.6 0 l 1,30,-1
 901.5 0 l 1,31,-1
 901.5 121 l 1,32,-1
 1032.9 121 l 1,33,-1
 922.2 426 l 1,34,-1
 417.3 426 l 1,35,-1
 304.8 121 l 1,36,-1
 465 121 l 1,37,-1
 465 0 l 1,38,-1
 65.4004 0 l 1,12,-1
461.4 547 m 1,39,-1
 878.1 547 l 1,40,-1
 672.9 1118 l 1,41,-1
 461.4 547 l 1,39,-1
EndSplineSet
Ligature: 0 0 'liga' A uni030A
EndChar
StartChar: AE
Encoding: 198 198 198
Width: 2003
Flags: W
Fore
458.3 545 m 1,0,-1
 876.8 545 l 1,1,-1
 876.8 1372 l 1,2,-1
 809.3 1372 l 1,3,-1
 458.3 545 l 1,0,-1
705.8 0 m 1,4,-1
 705.8 121 l 1,5,-1
 876.8 121 l 1,6,-1
 876.8 424 l 1,7,-1
 407 424 l 1,8,-1
 278.3 121 l 1,9,-1
 425.9 121 l 1,10,-1
 425.9 0 l 1,11,-1
 40.7002 0 l 1,12,-1
 40.7002 121 l 1,13,-1
 143.3 121 l 1,14,-1
 676.1 1372 l 1,15,-1
 495.2 1372 l 1,16,-1
 495.2 1493 l 1,17,-1
 1891.1 1493 l 1,18,-1
 1891.1 1141 l 1,19,-1
 1766.9 1141 l 1,20,-1
 1766.9 1356 l 1,21,-1
 1225.1 1356 l 1,22,-1
 1225.1 877 l 1,23,-1
 1555.4 877 l 1,24,-1
 1555.4 1067 l 1,25,-1
 1676.9 1067 l 1,26,-1
 1676.9 551 l 1,27,-1
 1555.4 551 l 1,28,-1
 1555.4 741 l 1,29,-1
 1225.1 741 l 1,30,-1
 1225.1 137 l 1,31,-1
 1785.8 137 l 1,32,-1
 1785.8 352 l 1,33,-1
 1907.3 352 l 1,34,-1
 1907.3 0 l 1,35,-1
 705.8 0 l 1,4,-1
EndSplineSet
KernsSLIFO: 45 38 0 0
EndChar
StartChar: Eth
Encoding: 208 208 208
Width: 1700
Flags: W
Fore
706.9 121 m 1,0,-1
 832 121 l 2,1,2
 1042.6 121 1042.6 121 1139.35 270.5 c 128,-1,3
 1236.1 420 1236.1 420 1236.1 748 c 0,4,5
 1236.1 1074 1236.1 1074 1139.35 1223 c 128,-1,6
 1042.6 1372 1042.6 1372 832 1372 c 2,7,-1
 706.9 1372 l 1,8,-1
 706.9 850 l 1,9,-1
 1005.7 850 l 1,10,-1
 1005.7 713 l 1,11,-1
 706.9 713 l 1,12,-1
 706.9 121 l 1,0,-1
187.6 0 m 1,13,-1
 187.6 121 l 1,14,-1
 360.4 121 l 1,15,-1
 360.4 713 l 1,16,-1
 168.7 713 l 1,17,-1
 168.7 850 l 1,18,-1
 360.4 850 l 1,19,-1
 360.4 1372 l 1,20,-1
 187.6 1372 l 1,21,-1
 187.6 1493 l 1,22,-1
 878.8 1493 l 2,23,24
 1238.8 1493 1238.8 1493 1430.05 1301.5 c 128,-1,25
 1621.3 1110 1621.3 1110 1621.3 748 c 0,26,27
 1621.3 385 1621.3 385 1430.05 192.5 c 128,-1,28
 1238.8 0 1238.8 0 878.8 0 c 2,29,-1
 187.6 0 l 1,13,-1
EndSplineSet
KernsSLIFO: 221 -36 0 0 193 -36 0 0 194 -36 0 0 376 -36 0 0 195 -36 0 0 192 -36 0 0 196 -36 0 0 89 -36 0 0 86 -36 0 0 65 -36 0 0 46 -73 0 0 45 75 0 0 44 -73 0 0
EndChar
StartChar: multiply
Encoding: 215 215 215
Width: 1630
Flags: W
Fore
1392.6 1081 m 1,0,-1
 996.6 641 l 1,1,-1
 1392.6 201 l 1,2,-1
 1254 47 l 1,3,-1
 858 487 l 1,4,-1
 462 47 l 1,5,-1
 323.4 201 l 1,6,-1
 720.3 641 l 1,7,-1
 323.4 1081 l 1,8,-1
 462 1237 l 1,9,-1
 858 797 l 1,10,-1
 1254 1237 l 1,11,-1
 1392.6 1081 l 1,0,-1
EndSplineSet
EndChar
StartChar: Oslash
Encoding: 216 216 216
Width: 1694
Flags: W
Fore
570.6 479 m 1,0,-1
 1179.9 1157 l 1,1,2
 1142.1 1276 1142.1 1276 1068.75 1337.5 c 128,-1,3
 995.4 1399 995.4 1399 891 1399 c 0,4,5
 720 1399 720 1399 635.85 1236.5 c 128,-1,6
 551.7 1074 551.7 1074 551.7 745 c 0,7,8
 551.7 669 551.7 669 556.2 603 c 128,-1,9
 560.7 537 560.7 537 570.6 479 c 1,0,-1
603 334 m 1,10,11
 643.5 212 643.5 212 715.05 152 c 128,-1,12
 786.6 92 786.6 92 891 92 c 0,13,14
 1066.5 92 1066.5 92 1149.3 259 c 128,-1,15
 1232.1 426 1232.1 426 1232.1 784 c 0,16,17
 1232.1 849 1232.1 849 1226.7 899.5 c 128,-1,18
 1221.3 950 1221.3 950 1209.6 993 c 1,19,-1
 603 334 l 1,10,11
1453.5 1280 m 1,20,21
 1534.5 1176 1534.5 1176 1575 1042.5 c 128,-1,22
 1615.5 909 1615.5 909 1615.5 745 c 0,23,24
 1615.5 383 1615.5 383 1422.45 177 c 128,-1,25
 1229.4 -29 1229.4 -29 891 -29 c 0,26,27
 748.8 -29 748.8 -29 629.55 10 c 128,-1,28
 510.3 49 510.3 49 414.9 127 c 1,29,-1
 231.3 -78 l 1,30,-1
 150.3 12 l 1,31,-1
 330.3 213 l 1,32,33
 248.4 315 248.4 315 207.45 448.5 c 128,-1,34
 166.5 582 166.5 582 166.5 745 c 0,35,36
 166.5 1107 166.5 1107 359.55 1313.5 c 128,-1,37
 552.6 1520 552.6 1520 891 1520 c 0,38,39
 1035 1520 1035 1520 1154.7 1481.5 c 128,-1,40
 1274.4 1443 1274.4 1443 1368 1366 c 1,41,-1
 1550.7 1569 l 1,42,-1
 1631.7 1479 l 1,43,-1
 1453.5 1280 l 1,20,21
EndSplineSet
KernsSLIFO: 88 -36 0 0 86 -36 0 0 46 -120 0 0 45 75 0 0 44 -120 0 0
EndChar
StartChar: Thorn
Encoding: 222 222 222
Width: 1474
Flags: W
Fore
165.65 0 m 1,0,-1
 165.65 121 l 1,1,-1
 337.55 121 l 1,2,-1
 337.55 1372 l 1,3,-1
 165.65 1372 l 1,4,-1
 165.65 1493 l 1,5,-1
 899.15 1493 l 1,6,-1
 899.15 1372 l 1,7,-1
 684.05 1372 l 1,8,-1
 684.05 1202 l 1,9,-1
 930.65 1202 l 2,10,11
 1154.75 1202 1154.75 1202 1287.05 1083.5 c 128,-1,12
 1419.35 965 1419.35 965 1419.35 766 c 0,13,14
 1419.35 567 1419.35 567 1286.6 447.5 c 128,-1,15
 1153.85 328 1153.85 328 930.65 328 c 2,16,-1
 684.05 328 l 1,17,-1
 684.05 121 l 1,18,-1
 900.95 121 l 1,19,-1
 900.95 0 l 1,20,-1
 165.65 0 l 1,0,-1
684.05 449 m 1,21,-1
 784.85 449 l 2,22,23
 901.85 449 901.85 449 971.6 535 c 128,-1,24
 1041.35 621 1041.35 621 1041.35 766 c 0,25,26
 1041.35 910 1041.35 910 972.05 995.5 c 128,-1,27
 902.75 1081 902.75 1081 784.85 1081 c 2,28,-1
 684.05 1081 l 1,29,-1
 684.05 449 l 1,21,-1
EndSplineSet
KernsSLIFO: 46 -301 0 0 45 38 0 0 44 -264 0 0
EndChar
StartChar: germandbls
Encoding: 223 223 223
Width: 1478
Flags: W
Fore
975.05 1221 m 1,0,1
 968.75 1345 968.75 1345 925.55 1394.5 c 128,-1,2
 882.35 1444 882.35 1444 781.55 1444 c 0,3,4
 683.45 1444 683.45 1444 639.35 1384.5 c 128,-1,5
 595.25 1325 595.25 1325 595.25 1190 c 2,6,-1
 595.25 0 l 1,7,-1
 140.75 0 l 1,8,-1
 140.75 121 l 1,9,-1
 276.65 121 l 1,10,-1
 276.65 1147 l 2,11,12
 276.65 1348 276.65 1348 402.65 1452 c 128,-1,13
 528.65 1556 528.65 1556 770.75 1556 c 0,14,15
 1007.45 1556 1007.45 1556 1128.5 1450.5 c 128,-1,16
 1249.55 1345 1249.55 1345 1273.85 1116 c 1,17,-1
 1254.05 1116 l 2,18,19
 1114.55 1116 1114.55 1116 1043 1070.5 c 128,-1,20
 971.45 1025 971.45 1025 971.45 936 c 0,21,22
 971.45 896 971.45 896 992.15 862.5 c 128,-1,23
 1012.85 829 1012.85 829 1087.55 768 c 2,24,-1
 1166.75 705 l 2,25,26
 1326.05 577 1326.05 577 1370.15 498 c 128,-1,27
 1414.25 419 1414.25 419 1414.25 311 c 0,28,29
 1414.25 151 1414.25 151 1302.2 61 c 128,-1,30
 1190.15 -29 1190.15 -29 988.55 -29 c 0,31,32
 916.55 -29 916.55 -29 837.8 -14 c 128,-1,33
 759.05 1 759.05 1 669.05 31 c 1,34,-1
 669.05 289 l 1,35,-1
 777.95 289 l 1,36,37
 789.65 182 789.65 182 833.75 133 c 128,-1,38
 877.85 84 877.85 84 962.45 84 c 0,39,40
 1030.85 84 1030.85 84 1073.15 128 c 128,-1,41
 1115.45 172 1115.45 172 1115.45 244 c 0,42,43
 1115.45 349 1115.45 349 967.85 466 c 0,44,45
 948.95 481 948.95 481 939.05 489 c 2,46,-1
 858.95 553 l 2,47,48
 767.15 627 767.15 627 726.65 705.5 c 128,-1,49
 686.15 784 686.15 784 686.15 889 c 0,50,51
 686.15 1023 686.15 1023 758.15 1105.5 c 128,-1,52
 830.15 1188 830.15 1188 975.05 1221 c 1,0,1
EndSplineSet
EndChar
StartChar: ae
Encoding: 230 230 230
Width: 1896
Flags: W
Fore
1461 600 m 1,0,1
 1461 810 1461 810 1425.9 894.5 c 128,-1,2
 1390.8 979 1390.8 979 1306.2 979 c 0,3,4
 1224.3 979 1224.3 979 1188.75 896 c 128,-1,5
 1153.2 813 1153.2 813 1153.2 618 c 2,6,-1
 1153.2 600 l 1,7,-1
 1461 600 l 1,0,1
976.8 936 m 1,8,9
 1046.1 1014 1046.1 1014 1129.35 1053 c 128,-1,10
 1212.6 1092 1212.6 1092 1312.5 1092 c 0,11,12
 1549.2 1092 1549.2 1092 1676.1 937 c 128,-1,13
 1803 782 1803 782 1811.1 481 c 1,14,-1
 1153.2 481 l 1,15,-1
 1153.2 473 l 2,16,17
 1153.2 267 1153.2 267 1209 175.5 c 128,-1,18
 1264.8 84 1264.8 84 1389.9 84 c 0,19,20
 1492.5 84 1492.5 84 1555.5 144.5 c 128,-1,21
 1618.5 205 1618.5 205 1636.5 322 c 1,22,-1
 1787.7 322 l 1,23,24
 1749 141 1749 141 1634.25 56 c 128,-1,25
 1519.5 -29 1519.5 -29 1312.5 -29 c 0,26,27
 1191.9 -29 1191.9 -29 1098.3 9.5 c 128,-1,28
 1004.7 48 1004.7 48 934.5 127 c 1,29,30
 854.4 49 854.4 49 759.45 10 c 128,-1,31
 664.5 -29 664.5 -29 552.9 -29 c 0,32,33
 367.5 -29 367.5 -29 271.2 57.5 c 128,-1,34
 174.9 144 174.9 144 174.9 309 c 0,35,36
 174.9 489 174.9 489 289.65 577.5 c 128,-1,37
 404.4 666 404.4 666 637.5 666 c 2,38,-1
 804.9 666 l 1,39,-1
 804.9 729 l 2,40,41
 804.9 845 804.9 845 741.45 912 c 128,-1,42
 678 979 678 979 567.3 979 c 0,43,44
 474.6 979 474.6 979 423.3 935.5 c 128,-1,45
 372 892 372 892 350.4 795 c 1,46,-1
 248.7 795 l 1,47,-1
 248.7 1024 l 1,48,49
 334.2 1058 334.2 1058 426 1075 c 128,-1,50
 517.8 1092 517.8 1092 619.5 1092 c 0,51,52
 742.8 1092 742.8 1092 831 1053.5 c 128,-1,53
 919.2 1015 919.2 1015 976.8 936 c 1,8,9
804.9 330 m 2,54,-1
 804.9 547 l 1,55,-1
 685.2 547 l 2,56,57
 587.1 547 587.1 547 539.4 492 c 128,-1,58
 491.7 437 491.7 437 491.7 324 c 0,59,60
 491.7 211 491.7 211 527.25 163 c 128,-1,61
 562.8 115 562.8 115 642.9 115 c 0,62,63
 720.3 115 720.3 115 762.6 171 c 128,-1,64
 804.9 227 804.9 227 804.9 330 c 2,54,-1
EndSplineSet
EndChar
StartChar: eth
Encoding: 240 240 240
Width: 1297
Flags: W
Fore
873.9 1337 m 1,0,1
 1043.1 1188 1043.1 1188 1133.55 986.5 c 128,-1,2
 1224 785 1224 785 1224 557 c 0,3,4
 1224 282 1224 282 1080.9 126.5 c 128,-1,5
 937.8 -29 937.8 -29 684 -29 c 0,6,7
 436.5 -29 436.5 -29 290.25 117.5 c 128,-1,8
 144 264 144 264 144 508 c 0,9,10
 144 738 144 738 287.55 889 c 128,-1,11
 431.1 1040 431.1 1040 650.7 1040 c 0,12,13
 688.5 1040 688.5 1040 727.2 1034 c 128,-1,14
 765.9 1028 765.9 1028 805.5 1016 c 1,15,16
 786.6 1079 786.6 1079 757.35 1134 c 128,-1,17
 728.1 1189 728.1 1189 685.8 1241 c 1,18,-1
 398.7 1092 l 1,19,-1
 353.7 1192 l 1,20,-1
 604.8 1323 l 1,21,22
 558 1361 558 1361 489.15 1392 c 128,-1,23
 420.3 1423 420.3 1423 330.3 1446 c 1,24,-1
 355.5 1556 l 1,25,26
 481.5 1539 481.5 1539 586.8 1502.5 c 128,-1,27
 692.1 1466 692.1 1466 774 1411 c 1,28,-1
 1071 1565 l 1,29,-1
 1113.3 1462 l 1,30,-1
 873.9 1337 l 1,0,1
822.6 891 m 1,31,32
 780.3 910 780.3 910 746.55 919 c 128,-1,33
 712.8 928 712.8 928 684 928 c 0,34,35
 584.1 928 584.1 928 541.8 832.5 c 128,-1,36
 499.5 737 499.5 737 499.5 508 c 0,37,38
 499.5 274 499.5 274 541.8 179 c 128,-1,39
 584.1 84 584.1 84 684 84 c 0,40,41
 783.9 84 783.9 84 825.3 178 c 128,-1,42
 866.7 272 866.7 272 866.7 508 c 0,43,44
 866.7 615 866.7 615 855.45 710.5 c 128,-1,45
 844.2 806 844.2 806 822.6 891 c 1,31,32
EndSplineSet
KernsSLIFO: 46 -36 0 0
EndChar
StartChar: divide
Encoding: 247 247 247
Width: 1630
Flags: W
Fore
723.9 1012 m 0,0,1
 723.9 1073 723.9 1073 763.5 1117 c 128,-1,2
 803.1 1161 803.1 1161 858 1161 c 0,3,4
 913.8 1161 913.8 1161 953.4 1117 c 128,-1,5
 993 1073 993 1073 993 1012 c 0,6,7
 993 950 993 950 953.4 906 c 128,-1,8
 913.8 862 913.8 862 858 862 c 0,9,10
 803.1 862 803.1 862 763.5 906 c 128,-1,11
 723.9 950 723.9 950 723.9 1012 c 0,0,1
723.9 272 m 0,12,13
 723.9 334 723.9 334 763.5 378 c 128,-1,14
 803.1 422 803.1 422 858 422 c 0,15,16
 913.8 422 913.8 422 953.4 378 c 128,-1,17
 993 334 993 334 993 272 c 0,18,19
 993 211 993 211 953.4 167 c 128,-1,20
 913.8 123 913.8 123 858 123 c 0,21,22
 803.1 123 803.1 123 763.5 167 c 128,-1,23
 723.9 211 723.9 211 723.9 272 c 0,12,13
281.1 756 m 1,24,-1
 1434.9 756 l 1,25,-1
 1434.9 528 l 1,26,-1
 281.1 528 l 1,27,-1
 281.1 756 l 1,24,-1
EndSplineSet
EndChar
StartChar: oslash
Encoding: 248 248 248
Width: 1297
Flags: W
Fore
501.2 416 m 1,0,-1
 849.5 801 l 1,1,2
 834.2 891 834.2 891 793.7 935 c 128,-1,3
 753.2 979 753.2 979 683.9 979 c 0,4,5
 584.9 979 584.9 979 543.05 883.5 c 128,-1,6
 501.2 788 501.2 788 501.2 553 c 2,7,-1
 501.2 416 l 1,0,-1
518.3 262 m 1,8,9
 531.8 173 531.8 173 573.2 128.5 c 128,-1,10
 614.6 84 614.6 84 683.9 84 c 0,11,12
 782 84 782 84 823.4 178 c 128,-1,13
 864.8 272 864.8 272 864.8 508 c 2,14,-1
 864.8 649 l 1,15,-1
 518.3 262 l 1,8,9
1104.2 913 m 1,16,17
 1163.6 841 1163.6 841 1193.75 745.5 c 128,-1,18
 1223.9 650 1223.9 650 1223.9 532 c 0,19,20
 1223.9 270 1223.9 270 1080.35 120.5 c 128,-1,21
 936.8 -29 936.8 -29 683.9 -29 c 0,22,23
 584 -29 584 -29 500.3 -4.5 c 128,-1,24
 416.6 20 416.6 20 344.6 70 c 1,25,-1
 189.8 -102 l 1,26,-1
 114.2 -16 l 1,27,-1
 261.8 147 l 1,28,29
 203.3 222 203.3 222 173.6 318.5 c 128,-1,30
 143.9 415 143.9 415 143.9 532 c 0,31,32
 143.9 795 143.9 795 287.45 943.5 c 128,-1,33
 431 1092 431 1092 683.9 1092 c 0,34,35
 788.3 1092 788.3 1092 873.35 1067 c 128,-1,36
 958.4 1042 958.4 1042 1023.2 993 c 1,37,-1
 1174.4 1161 l 1,38,-1
 1251.8 1075 l 1,39,-1
 1104.2 913 l 1,16,17
EndSplineSet
KernsSLIFO: 46 -36 0 0
EndChar
StartChar: thorn
Encoding: 254 254 254
Width: 1358
Flags: W
Fore
567.55 584 m 2,0,-1
 567.55 479 l 2,1,2
 567.55 293 567.55 293 610.3 210 c 128,-1,3
 653.05 127 653.05 127 748.45 127 c 0,4,5
 846.55 127 846.55 127 886.6 215 c 128,-1,6
 926.65 303 926.65 303 926.65 532 c 0,7,8
 926.65 761 926.65 761 886.6 848.5 c 128,-1,9
 846.55 936 846.55 936 748.45 936 c 0,10,11
 653.05 936 653.05 936 610.3 853 c 128,-1,12
 567.55 770 567.55 770 567.55 584 c 2,0,-1
248.95 1436 m 1,13,-1
 112.15 1436 l 1,14,-1
 112.15 1556 l 1,15,-1
 567.55 1556 l 1,16,-1
 567.55 928 l 1,17,18
 608.05 1011 608.05 1011 676.45 1051.5 c 128,-1,19
 744.85 1092 744.85 1092 845.65 1092 c 0,20,21
 1049.95 1092 1049.95 1092 1167.4 942.5 c 128,-1,22
 1284.85 793 1284.85 793 1284.85 532 c 0,23,24
 1284.85 271 1284.85 271 1167.4 121 c 128,-1,25
 1049.95 -29 1049.95 -29 845.65 -29 c 0,26,27
 744.85 -29 744.85 -29 676.45 11.5 c 128,-1,28
 608.05 52 608.05 52 567.55 135 c 1,29,-1
 567.55 -305 l 1,30,-1
 715.15 -305 l 1,31,-1
 715.15 -426 l 1,32,-1
 112.15 -426 l 1,33,-1
 112.15 -305 l 1,34,-1
 248.95 -305 l 1,35,-1
 248.95 1436 l 1,13,-1
EndSplineSet
KernsSLIFO: 46 -102 0 0 44 -36 0 0
EndChar
StartChar: Dcroat
Encoding: 272 272 272
Width: 1700
Flags: W
Fore
706.9 121 m 1,0,-1
 832 121 l 2,1,2
 1042.6 121 1042.6 121 1139.35 270.5 c 128,-1,3
 1236.1 420 1236.1 420 1236.1 748 c 0,4,5
 1236.1 1074 1236.1 1074 1139.35 1223 c 128,-1,6
 1042.6 1372 1042.6 1372 832 1372 c 2,7,-1
 706.9 1372 l 1,8,-1
 706.9 850 l 1,9,-1
 1005.7 850 l 1,10,-1
 1005.7 713 l 1,11,-1
 706.9 713 l 1,12,-1
 706.9 121 l 1,0,-1
187.6 0 m 1,13,-1
 187.6 121 l 1,14,-1
 360.4 121 l 1,15,-1
 360.4 713 l 1,16,-1
 168.7 713 l 1,17,-1
 168.7 850 l 1,18,-1
 360.4 850 l 1,19,-1
 360.4 1372 l 1,20,-1
 187.6 1372 l 1,21,-1
 187.6 1493 l 1,22,-1
 878.8 1493 l 2,23,24
 1238.8 1493 1238.8 1493 1430.05 1301.5 c 128,-1,25
 1621.3 1110 1621.3 1110 1621.3 748 c 0,26,27
 1621.3 385 1621.3 385 1430.05 192.5 c 128,-1,28
 1238.8 0 1238.8 0 878.8 0 c 2,29,-1
 187.6 0 l 1,13,-1
EndSplineSet
KernsSLIFO: 86 -36 0 0 46 -73 0 0 45 38 0 0 44 -73 0 0
EndChar
StartChar: dcroat
Encoding: 273 273 273
Width: 1363
Flags: W
Fore
865.55 479 m 2,0,-1
 865.55 584 l 2,1,2
 865.55 770 865.55 770 822.35 853 c 128,-1,3
 779.15 936 779.15 936 684.65 936 c 0,4,5
 585.65 936 585.65 936 545.6 848.5 c 128,-1,6
 505.55 761 505.55 761 505.55 532 c 0,7,8
 505.55 303 505.55 303 546.05 215 c 128,-1,9
 586.55 127 586.55 127 684.65 127 c 0,10,11
 779.15 127 779.15 127 822.35 210 c 128,-1,12
 865.55 293 865.55 293 865.55 479 c 2,0,-1
1184.15 121 m 1,13,-1
 1320.05 121 l 1,14,-1
 1320.05 0 l 1,15,-1
 865.55 0 l 1,16,-1
 865.55 135 l 1,17,18
 825.05 52 825.05 52 756.2 11.5 c 128,-1,19
 687.35 -29 687.35 -29 586.55 -29 c 0,20,21
 383.15 -29 383.15 -29 266.6 121 c 128,-1,22
 150.05 271 150.05 271 150.05 532 c 0,23,24
 150.05 794 150.05 794 266.6 943 c 128,-1,25
 383.15 1092 383.15 1092 586.55 1092 c 0,26,27
 687.35 1092 687.35 1092 756.2 1051.5 c 128,-1,28
 825.05 1011 825.05 1011 865.55 928 c 1,29,-1
 865.55 1223 l 1,30,-1
 573.95 1223 l 1,31,-1
 573.95 1343 l 1,32,-1
 865.55 1343 l 1,33,-1
 865.55 1436 l 1,34,-1
 728.75 1436 l 1,35,-1
 728.75 1556 l 1,36,-1
 1184.15 1556 l 1,37,-1
 1184.15 1343 l 1,38,-1
 1338.95 1343 l 1,39,-1
 1338.95 1223 l 1,40,-1
 1184.15 1223 l 1,41,-1
 1184.15 121 l 1,13,-1
EndSplineSet
EndChar
StartChar: Hbar
Encoding: 294 294 294
Width: 1838
Flags: W
Fore
183.35 0 m 1,0,-1
 183.35 121 l 1,1,-1
 355.25 121 l 1,2,-1
 355.25 1053 l 1,0,0
 183.35 1053 l 1,0,0
 183.35 1190 l 1,0,0
 355.25 1190 l 1,0,0
 355.25 1372 l 1,3,-1
 183.35 1372 l 1,4,-1
 183.35 1493 l 1,5,-1
 874.55 1493 l 1,6,-1
 874.55 1372 l 1,7,-1
 701.75 1372 l 1,8,-1
 701.75 1190 l 1,0,0
 1236.35 1190 l 1,0,0
 1236.35 1372 l 1,11,-1
 1064.45 1372 l 1,12,-1
 1064.45 1493 l 1,13,-1
 1755.65 1493 l 1,14,-1
 1755.65 1372 l 1,15,-1
 1582.85 1372 l 1,16,-1
 1582.85 1190 l 1,0,0
 1755.65 1190 l 1,0,0
 1755.65 1053 l 1,0,0
 1582.85 1053 l 1,0,0
 1582.85 121 l 1,17,-1
 1755.65 121 l 1,18,-1
 1755.65 0 l 1,19,-1
 1064.45 0 l 1,20,-1
 1064.45 121 l 1,21,-1
 1236.35 121 l 1,22,-1
 1236.35 733 l 1,23,-1
 701.75 733 l 1,24,-1
 701.75 121 l 1,25,-1
 874.55 121 l 1,26,-1
 874.55 0 l 1,27,-1
 183.35 0 l 1,0,-1
701.75 870 m 1,9,-1
 1236.35 870 l 1,10,-1
 1236.35 1053 l 1,0,0
 701.75 1053 l 1,0,0
 701.75 870 l 1,9,-1
EndSplineSet
EndChar
StartChar: hbar
Encoding: 295 295 295
Width: 1415
Flags: W
Fore
138.25 0 m 1,0,-1
 138.25 121 l 1,1,-1
 274.15 121 l 1,2,-1
 274.15 1196 l 1,0,0
 131.95 1196 l 1,0,0
 131.95 1333 l 1,0,0
 274.15 1333 l 1,0,0
 274.15 1436 l 1,3,-1
 131.95 1436 l 1,4,-1
 131.95 1556 l 1,5,-1
 592.75 1556 l 1,6,-1
 592.75 1333 l 1,0,0
 915.85 1333 l 1,0,0
 915.85 1196 l 1,0,0
 592.75 1196 l 1,0,0
 592.75 913 l 1,7,8
 650.35 1008 650.35 1008 724.15 1050 c 128,-1,9
 797.95 1092 797.95 1092 910.45 1092 c 0,10,11
 1071.55 1092 1071.55 1092 1153.9 986.5 c 128,-1,12
 1236.25 881 1236.25 881 1236.25 676 c 2,13,-1
 1236.25 121 l 1,14,-1
 1373.05 121 l 1,15,-1
 1373.05 0 l 1,16,-1
 801.55 0 l 1,17,-1
 801.55 121 l 1,18,-1
 917.65 121 l 1,19,-1
 917.65 686 l 2,20,21
 917.65 821 917.65 821 886.6 873.5 c 128,-1,22
 855.55 926 855.55 926 779.05 926 c 0,23,24
 682.75 926 682.75 926 637.75 847.5 c 128,-1,25
 592.75 769 592.75 769 592.75 598 c 2,26,-1
 592.75 121 l 1,27,-1
 709.75 121 l 1,28,-1
 709.75 0 l 1,29,-1
 138.25 0 l 1,0,-1
EndSplineSet
EndChar
StartChar: dotlessi
Encoding: 305 305 305
Width: 740
Flags: W
Fore
557.35 121 m 1,0,-1
 694.15 121 l 1,1,-1
 694.15 0 l 1,2,-1
 102.85 0 l 1,3,-1
 102.85 121 l 1,4,-1
 238.75 121 l 1,5,-1
 238.75 942 l 1,6,-1
 102.85 942 l 1,7,-1
 102.85 1063 l 1,8,-1
 557.35 1063 l 1,9,-1
 557.35 121 l 1,0,-1
EndSplineSet
EndChar
StartChar: kgreenlandic
Encoding: 312 312 312
Width: 1353
Flags: W
Fore
714.3 0 m 1,0,-1
 139.2 0 l 1,1,-1
 139.2 121 l 1,2,-1
 275.1 121 l 1,3,-1
 275.1 939 l 1,4,-1
 139.2 939 l 1,5,-1
 139.2 1060 l 1,6,-1
 593.7 1060 l 1,7,-1
 593.7 556 l 1,8,-1
 979.8 939 l 1,9,-1
 865.5 939 l 1,10,-1
 865.5 1060 l 1,11,-1
 1302 1060 l 1,12,-1
 1302 939 l 1,13,-1
 1124.7 939 l 1,14,-1
 878.1 695 l 1,15,-1
 1281.3 121 l 1,16,-1
 1384.8 121 l 1,17,-1
 1384.8 0 l 1,18,-1
 835.8 0 l 1,19,-1
 835.8 121 l 1,20,-1
 948.3 121 l 1,21,-1
 682.8 499 l 1,22,-1
 593.7 411 l 1,23,-1
 593.7 121 l 1,24,-1
 714.3 121 l 1,25,-1
 714.3 0 l 1,0,-1
EndSplineSet
EndChar
StartChar: Lslash
Encoding: 321 321 321
Width: 1379
Flags: W
Fore
169.35 0 m 1,0,-1
 169.35 121 l 1,1,-1
 342.15 121 l 1,2,-1
 342.15 549 l 1,3,-1
 148.65 422 l 1,4,-1
 85.6504 539 l 1,5,-1
 342.15 707 l 1,6,-1
 342.15 1372 l 1,7,-1
 169.35 1372 l 1,8,-1
 169.35 1493 l 1,9,-1
 860.55 1493 l 1,10,-1
 860.55 1372 l 1,11,-1
 688.65 1372 l 1,12,-1
 688.65 938 l 1,13,-1
 994.65 1139 l 1,14,-1
 1057.65 1022 l 1,15,-1
 688.65 778 l 1,16,-1
 688.65 137 l 1,17,-1
 1217.85 137 l 1,18,-1
 1217.85 373 l 1,19,-1
 1339.35 373 l 1,20,-1
 1339.35 0 l 1,21,-1
 169.35 0 l 1,0,-1
EndSplineSet
KernsSLIFO: 366 -112 0 0 356 -167 0 0 253 -73 0 0 221 -131 0 0 217 -112 0 0 219 -112 0 0 218 -112 0 0 376 -131 0 0 255 -73 0 0 8217 -311 0 0 8221 -301 0 0 220 -112 0 0 121 -73 0 0 89 -131 0 0 87 -139 0 0 86 -243 0 0 85 -112 0 0 84 -167 0 0
EndChar
StartChar: lslash
Encoding: 322 322 322
Width: 749
Flags: W
Fore
562.35 121 m 1,0,-1
 698.25 121 l 1,1,-1
 698.25 0 l 1,2,-1
 106.95 0 l 1,3,-1
 106.95 121 l 1,4,-1
 242.85 121 l 1,5,-1
 242.85 653 l 1,6,-1
 103.35 557 l 1,7,-1
 47.5498 662 l 1,8,-1
 242.85 795 l 1,9,-1
 242.85 1436 l 1,10,-1
 106.95 1436 l 1,11,-1
 106.95 1556 l 1,12,-1
 562.35 1556 l 1,13,-1
 562.35 999 l 1,14,-1
 701.85 1096 l 1,15,-1
 759.45 991 l 1,16,-1
 562.35 858 l 1,17,-1
 562.35 121 l 1,0,-1
EndSplineSet
EndChar
StartChar: Eng
Encoding: 330 330 330
Width: 1778
Flags: W
Fore
175 0 m 1,0,-1
 175 121 l 1,1,-1
 346.9 121 l 1,2,-1
 346.9 1372 l 1,3,-1
 175 1372 l 1,4,-1
 175 1493 l 1,5,-1
 595.3 1493 l 1,6,-1
 1406.2 436 l 1,7,-1
 1406.2 1372 l 1,8,-1
 1235.2 1372 l 1,9,-1
 1235.2 1493 l 1,10,-1
 1705 1493 l 1,11,-1
 1705 1372 l 1,12,-1
 1533.1 1372 l 1,13,-1
 1533.1 0 l 2,16,17
 1533.1 -289.5 1533.1 -289.5 1456.6 -367.5 c 128,-1,18
 1368.85 -455 1368.85 -455 1172.2 -455 c 0,19,20
 1118.2 -455 1118.2 -455 1057 -445 c 128,-1,21
 995.8 -435 995.8 -435 930.1 -416 c 1,22,-1
 930.1 -191 l 1,23,-1
 1031.8 -191 l 1,24,25
 1033.6 -271 1033.6 -271 1060.15 -306.5 c 128,-1,26
 1086.7 -342 1086.7 -342 1146.1 -342 c 0,27,28
 1235.65 -342 1235.65 -342 1269.4 -289 c 128,-1,29
 1297.75 -243 1297.75 -243 1297.3 0 c 1,15,-1
 473.8 1079 l 1,16,-1
 473.8 121 l 1,17,-1
 644.8 121 l 1,18,-1
 644.8 0 l 1,19,-1
 175 0 l 1,0,-1
EndSplineSet
EndChar
StartChar: eng
Encoding: 331 331 331
Width: 1408
Flags: W
Fore
131 0 m 1,0,-1
 131 121 l 1,1,-1
 266.9 121 l 1,2,-1
 266.9 942 l 1,3,-1
 131 942 l 1,4,-1
 131 1063 l 1,5,-1
 585.5 1063 l 1,6,-1
 585.5 913 l 1,7,8
 643.1 1008 643.1 1008 716.9 1050 c 128,-1,9
 790.7 1092 790.7 1092 903.2 1092 c 0,10,11
 1064.3 1092 1064.3 1092 1146.65 986.5 c 128,-1,12
 1229 881 1229 881 1229 676 c 2,13,-1
 1229 -125 l 2,16,17
 1229 -288 1229 -288 1125.05 -371.5 c 128,-1,18
 1021.1 -455 1021.1 -455 818.6 -455 c 0,19,20
 764.6 -455 764.6 -455 703.4 -445 c 128,-1,21
 642.2 -435 642.2 -435 576.5 -416 c 1,22,-1
 576.5 -191 l 1,23,-1
 678.2 -191 l 1,24,25
 680 -271 680 -271 706.55 -306.5 c 128,-1,26
 733.1 -342 733.1 -342 792.5 -342 c 0,27,28
 858.2 -342 858.2 -342 884.3 -295 c 128,-1,29
 910.4 -248 910.4 -248 910.4 -125 c 2,30,-1
 910.4 686 l 2,20,21
 910.4 821 910.4 821 879.35 873.5 c 128,-1,22
 848.3 926 848.3 926 771.8 926 c 0,23,24
 675.5 926 675.5 926 630.5 847.5 c 128,-1,25
 585.5 769 585.5 769 585.5 598 c 2,26,-1
 585.5 121 l 1,27,-1
 702.5 121 l 1,28,-1
 702.5 0 l 1,29,-1
 131 0 l 1,0,-1
EndSplineSet
EndChar
StartChar: OE
Encoding: 338 338 338
Width: 2295
Flags: W
Fore
1168.4 121 m 1,0,-1
 1168.4 1372 l 1,1,-1
 1054.1 1372 l 2,2,3
 816.5 1372 816.5 1372 695.9 1215 c 128,-1,4
 575.3 1058 575.3 1058 575.3 748 c 0,5,6
 575.3 434 575.3 434 695 277.5 c 128,-1,7
 814.7 121 814.7 121 1054.1 121 c 2,8,-1
 1168.4 121 l 1,0,-1
2200.7 0 m 1,9,-1
 1011.8 0 l 2,10,11
 825.5 0 825.5 0 703.55 26 c 128,-1,12
 581.6 52 581.6 52 490.7 109 c 1,13,14
 349.4 195 349.4 195 273.35 361 c 128,-1,15
 197.3 527 197.3 527 197.3 748 c 0,16,17
 197.3 968 197.3 968 273.35 1132.5 c 128,-1,18
 349.4 1297 349.4 1297 490.7 1384 c 1,19,20
 580.7 1442 580.7 1442 701.3 1467.5 c 128,-1,21
 821.9 1493 821.9 1493 1011.8 1493 c 2,22,-1
 2184.5 1493 l 1,23,-1
 2184.5 1141 l 1,24,-1
 2061.2 1141 l 1,25,-1
 2061.2 1356 l 1,26,-1
 1516.7 1356 l 1,27,-1
 1516.7 877 l 1,28,-1
 1847 877 l 1,29,-1
 1847 1067 l 1,30,-1
 1970.3 1067 l 1,31,-1
 1970.3 551 l 1,32,-1
 1847 551 l 1,33,-1
 1847 741 l 1,34,-1
 1516.7 741 l 1,35,-1
 1516.7 137 l 1,36,-1
 2077.4 137 l 1,37,-1
 2077.4 352 l 1,38,-1
 2200.7 352 l 1,39,-1
 2200.7 0 l 1,9,-1
EndSplineSet
KernsSLIFO: 45 38 0 0
EndChar
StartChar: oe
Encoding: 339 339 339
Width: 1999
Flags: W
Fore
720.55 84 m 0,0,1
 821.35 84 821.35 84 862.3 180 c 128,-1,2
 903.25 276 903.25 276 903.25 532 c 0,3,4
 903.25 788 903.25 788 862.75 883.5 c 128,-1,5
 822.25 979 822.25 979 720.55 979 c 0,6,7
 618.85 979 618.85 979 577.45 882.5 c 128,-1,8
 536.05 786 536.05 786 536.05 532 c 0,9,10
 536.05 278 536.05 278 577.45 181 c 128,-1,11
 618.85 84 618.85 84 720.55 84 c 0,0,1
1566.55 600 m 1,12,13
 1566.55 810 1566.55 810 1531 894.5 c 128,-1,14
 1495.45 979 1495.45 979 1411.75 979 c 0,15,16
 1330.75 979 1330.75 979 1295.65 897 c 128,-1,17
 1260.55 815 1260.55 815 1260.55 618 c 2,18,-1
 1260.55 600 l 1,19,-1
 1566.55 600 l 1,12,13
1081.45 936 m 1,20,21
 1148.95 1016 1148.95 1016 1232.65 1054 c 128,-1,22
 1316.35 1092 1316.35 1092 1422.55 1092 c 0,23,24
 1656.55 1092 1656.55 1092 1783.45 935 c 128,-1,25
 1910.35 778 1910.35 778 1918.45 482 c 1,26,-1
 1260.55 481 l 1,27,-1
 1260.55 473 l 2,28,29
 1260.55 266 1260.55 266 1315.45 175 c 128,-1,30
 1370.35 84 1370.35 84 1494.55 84 c 0,31,32
 1598.05 84 1598.05 84 1661.95 145 c 128,-1,33
 1725.85 206 1725.85 206 1743.85 322 c 1,34,-1
 1893.25 322 l 1,35,36
 1858.15 148 1858.15 148 1744.75 59.5 c 128,-1,37
 1631.35 -29 1631.35 -29 1443.25 -29 c 0,38,39
 1324.45 -29 1324.45 -29 1235.35 9.5 c 128,-1,40
 1146.25 48 1146.25 48 1081.45 127 c 1,41,42
 1018.45 50 1018.45 50 923.05 10.5 c 128,-1,43
 827.65 -29 827.65 -29 706.15 -29 c 0,44,45
 463.15 -29 463.15 -29 321.85 122 c 128,-1,46
 180.55 273 180.55 273 180.55 532 c 0,47,48
 180.55 795 180.55 795 324.1 943.5 c 128,-1,49
 467.65 1092 467.65 1092 720.55 1092 c 0,50,51
 834.85 1092 834.85 1092 924.4 1053.5 c 128,-1,52
 1013.95 1015 1013.95 1015 1081.45 936 c 1,20,21
EndSplineSet
EndChar
StartChar: Tbar
Encoding: 358 358 358
Width: 1447
Flags: W
TeX: 0 0 0 0
Fore
410.2 0 m 1,0,-1
 410.2 121 l 1,1,-1
 588.4 121 l 1,2,-1
 588.4 659 l 1,0,0
 366.1 659 l 1,0,0
 366.1 851 l 1,0,0
 588.4 851 l 1,0,0
 588.4 1356 l 1,3,-1
 220.3 1356 l 1,4,-1
 220.3 1120 l 1,5,-1
 97 1120 l 1,6,-1
 97 1493 l 1,7,-1
 1429 1493 l 1,8,-1
 1429 1120 l 1,9,-1
 1307.5 1120 l 1,10,-1
 1307.5 1356 l 1,11,-1
 936.7 1356 l 1,12,-1
 936.7 851 l 1,0,0
 1159 851 l 1,0,0
 1159 659 l 1,0,0
 936.7 659 l 1,0,0
 936.7 121 l 1,13,-1
 1115.8 121 l 1,14,-1
 1115.8 0 l 1,15,-1
 410.2 0 l 1,0,-1
EndSplineSet
EndChar
StartChar: tbar
Encoding: 359 359 359
Width: 900
Flags: W
TeX: 0 0 0 0
Fore
231.95 942 m 1,0,-1
 93.3496 942 l 1,1,-1
 93.3496 1063 l 1,2,-1
 231.95 1063 l 1,3,-1
 231.95 1393 l 1,4,-1
 550.55 1393 l 1,5,-1
 550.55 1063 l 1,6,-1
 816.05 1063 l 1,7,-1
 816.05 942 l 1,8,-1
 550.55 942 l 1,9,-1
 550.55 665 l 1,0,0
 716.15 665 l 1,0,0
 716.15 473 l 1,0,0
 550.55 473 l 1,0,0
 550.55 291 l 2,10,11
 550.55 152 550.55 152 570.35 118 c 128,-1,12
 590.15 84 590.15 84 642.35 84 c 0,13,14
 699.95 84 699.95 84 727.85 127 c 128,-1,15
 755.75 170 755.75 170 757.55 260 c 1,16,-1
 891.65 260 l 1,17,18
 883.55 100 883.55 100 812.45 36 c 128,-1,19
 742.25 -29 742.25 -29 569.45 -29 c 0,20,21
 372.35 -29 372.35 -29 302.15 40 c 128,-1,22
 231.95 108 231.95 108 231.95 291 c 2,23,-1
 231.95 473 l 1,0,0
 98.75 473 l 1,0,0
 98.75 665 l 1,0,0
 231.95 665 l 1,0,0
 231.95 942 l 1,0,-1
EndSplineSet
EndChar
StartChar: longs
Encoding: 383 383 383
Width: 845
Flags: W
TeX: 0 0 0 0
Fore
570.2 121 m 1,12,-1
 754.7 121 l 1,13,-1
 754.7 0 l 1,14,-1
 115.7 0 l 1,15,-1
 115.7 121 l 1,16,-1
 251.6 121 l 1,17,-1
 251.6 942 l 1,18,-1
 109.4 942 l 1,19,-1
 109.4 1063 l 1,20,-1
 251.6 1063 l 1,21,-1
 251.6 1196 l 2,22,23
 251.6 1373 251.6 1373 353.3 1464.5 c 128,-1,24
 455 1556 455 1556 652.1 1556 c 0,25,26
 728.6 1556 728.6 1556 801.5 1546.5 c 128,-1,27
 874.4 1537 874.4 1537 944.6 1518 c 1,28,-1
 944.6 1290 l 1,0,-1
 843.8 1290 l 1,1,2
 836.6 1368 836.6 1368 802.85 1406 c 128,-1,3
 769.1 1444 769.1 1444 707 1444 c 0,4,5
 635 1444 635 1444 602.6 1386.5 c 128,-1,6
 570.2 1324.33 570.2 1324.33 570.2 1200 c 2,7,-1
 570.2 121 l 1,12,-1
EndSplineSet
EndChar
StartChar: uni0186
Encoding: 390 390 390
Width: 1547
Flags: W
TeX: 117 0 0 0
Fore
158 426 m 1,0,1
 337.1 426 l 1,26,-1
 375.8 258 375.8 258 460.85 175 c 128,-1,25
 545.9 92 545.9 92 680 92 c 0,23,24
 878 92 878 92 973.4 252 c 128,-1,22
 1068.8 412 1068.8 412 1068.8 745 c 0,20,21
 1068.8 1078 1068.8 1078 973.4 1238.5 c 128,-1,19
 878 1399 878 1399 681.8 1399 c 0,17,18
 529.7 1399 529.7 1399 437 1305.5 c 128,-1,16
 344.3 1212 344.3 1212 309.2 1024 c 1,14,15
 194.9 1024 l 1,13,-1
 194.9 1391 l 1,12,-1
 339.8 1456 339.8 1456 469.4 1488 c 128,-1,11
 599 1520 599 1520 718.7 1520 c 0,9,10
 1058.9 1520 1058.9 1520 1256.45 1311.5 c 128,-1,8
 1454 1103 1454 1103 1454 745 c 0,6,7
 1454 388 1454 388 1256.45 179.5 c 128,-1,5
 1058.9 -29 1058.9 -29 718.7 -29 c 0,3,4
 486.5 -29 486.5 -29 348.8 83 c 128,-1,2
 211.1 195 211.1 195 158 426 c 1,0,1
EndSplineSet
EndChar
StartChar: uni0190
Encoding: 400 400 400
Width: 1354
Flags: W
TeX: 117 0 0 0
Fore
1206.75 1450 m 1,0,1
 1206.75 1151 l 1,42,-1
 1097.85 1151 l 1,41,-1
 1085.25 1274 1085.25 1274 1023.15 1338.5 c 128,-1,40
 961.05 1403 961.05 1403 854.85 1403 c 0,38,39
 737.85 1403 737.85 1403 675.3 1335.5 c 128,-1,37
 612.75 1268 612.75 1268 612.75 1141 c 0,35,36
 612.75 1006 612.75 1006 679.35 938 c 128,-1,34
 745.95 870 745.95 870 878.25 870 c 2,32,33
 925.05 870 l 1,31,-1
 925.05 750 l 1,30,-1
 865.65 750 l 2,29,-1
 722.55 750 722.55 750 644.7 662 c 128,-1,28
 566.85 574 566.85 574 566.85 412 c 0,26,27
 566.85 257 566.85 257 641.55 172.5 c 128,-1,25
 716.25 88 716.25 88 853.05 88 c 0,23,24
 977.25 88 977.25 88 1047.45 162.5 c 128,-1,22
 1117.65 237 1117.65 237 1127.55 379 c 1,20,21
 1236.45 379 l 1,19,-1
 1236.45 51 l 1,18,-1
 1113.15 11 1113.15 11 1000.2 -9 c 128,-1,17
 887.25 -29 887.25 -29 781.05 -29 c 0,15,16
 498.45 -29 498.45 -29 349.5 82.5 c 128,-1,14
 200.55 194 200.55 194 200.55 403 c 0,12,13
 200.55 580 200.55 580 286.95 682 c 128,-1,11
 373.35 784 373.35 784 548.85 815 c 1,9,10
 404.85 844 404.85 844 330.15 928 c 128,-1,8
 255.45 1012 255.45 1012 255.45 1147 c 0,6,7
 255.45 1327 255.45 1327 385.5 1423.5 c 128,-1,5
 515.55 1520 515.55 1520 758.55 1520 c 0,3,4
 864.75 1520 864.75 1520 976.35 1502.5 c 128,-1,2
 1087.95 1485 1087.95 1485 1206.75 1450 c 1,0,1
EndSplineSet
EndChar
StartChar: florin
Encoding: 402 402 402
Width: 1349
Flags: W
Fore
572.15 1135 m 1,0,1
 592.85 1323 592.85 1323 697.25 1421.5 c 128,-1,2
 801.65 1520 801.65 1520 981.65 1520 c 0,3,4
 1041.95 1520 1041.95 1520 1110.8 1508 c 128,-1,5
 1179.65 1496 1179.65 1496 1259.75 1473 c 1,6,-1
 1259.75 1239 l 1,7,-1
 1150.85 1239 l 1,8,9
 1150.85 1329 1150.85 1329 1127.45 1368 c 128,-1,10
 1104.05 1407 1104.05 1407 1050.05 1407 c 0,11,12
 982.55 1407 982.55 1407 951.05 1350 c 128,-1,13
 919.55 1293 919.55 1293 900.65 1112 c 1,14,-1
 869.15 821 l 1,15,-1
 1104.95 821 l 1,16,-1
 1104.95 700 l 1,17,-1
 856.55 700 l 1,18,-1
 774.65 -47 l 1,19,20
 755.75 -234 755.75 -234 650 -333 c 128,-1,21
 544.25 -432 544.25 -432 364.25 -432 c 0,22,23
 302.15 -432 302.15 -432 233.3 -420.5 c 128,-1,24
 164.45 -409 164.45 -409 85.25 -385 c 1,25,-1
 85.25 -152 l 1,26,-1
 194.15 -152 l 1,27,28
 194.15 -241 194.15 -241 218.45 -280 c 128,-1,29
 242.75 -319 242.75 -319 295.85 -319 c 0,30,31
 364.25 -319 364.25 -319 395.75 -262.5 c 128,-1,32
 427.25 -206 427.25 -206 447.05 -25 c 2,33,-1
 526.25 700 l 1,34,-1
 308.45 700 l 1,35,-1
 308.45 821 l 1,36,-1
 538.85 821 l 1,37,-1
 572.15 1135 l 1,0,1
EndSplineSet
EndChar
StartChar: uni0194
Encoding: 404 404 404
Width: 1499
Flags: W
TeX: 0 0 0 0
Fore
686.185 710 m 0,0,0
 253.915 1386 l 1,8,-1
 88.3154 1386 l 1,9,-1
 88.3154 1493 l 1,10,-1
 701.035 1493 l 1,11,-1
 701.035 1386 l 1,12,-1
 650.815 1386 l 1,13,-1
 891.385 966 l 1,14,-1
 1171.06 1386 l 1,15,-1
 991.87 1386 l 1,16,-1
 991.87 1493 l 1,17,-1
 1497.99 1493 l 1,18,-1
 1497.99 1386 l 1,19,-1
 1324.1 1386 l 1,20,-1
 960.685 855 l 0,0,0
 1469.19 90 1469.19 90 1299.26 -44 c 0,0,0
 1117.68 -188 1117.68 -188 773.485 -188 c 16,0,0
 407.096 -188 407.096 -188 342.924 12 c 0,0,0
 284.671 193 284.671 193 686.185 710 c 0,0,0
762.685 595 m 1,0,0
 477.024 212.406 477.024 212.406 479.185 80 c 24,0,0
 481.628 -69.7031 481.628 -69.7031 773.485 -67 c 16,0,0
 1033.08 -64.5957 1033.08 -64.5957 1019.18 85 c 16,0,0
 1008.29 202.221 1008.29 202.221 762.685 595 c 1,0,0
EndSplineSet
EndChar
StartChar: uni01A9
Encoding: 425 425 425
Width: 1372
Flags: W
TeX: 117 0 0 0
Fore
144.35 0 m 9,0,-1
 741.95 748 l 17,1,-1
 144.35 1493 l 1,2,-1
 1248.65 1493 l 1,3,-1
 1248.65 1161 l 1,4,-1
 1137.95 1161 l 1,5,-1
 1137.95 1356 l 9,6,-1
 678.05 1356 l 17,7,-1
 1036.25 886 l 1,8,-1
 543.05 278 l 9,9,-1
 1137.95 278 l 17,10,-1
 1137.95 422 l 1,11,-1
 1248.65 422 l 1,12,-1
 1248.65 0 l 1,13,-1
 144.35 0 l 9,0,-1
EndSplineSet
EndChar
StartChar: dotlessj
Encoding: 567 567 567
Width: 687
Flags: W
Fore
218.15 942 m 1,12,-1
 82.25 942 l 1,13,-1
 82.25 1063 l 1,14,-1
 536.75 1063 l 1,15,-1
 536.75 -125 l 2,16,17
 536.75 -288 536.75 -288 432.8 -371.5 c 128,-1,18
 328.85 -455 328.85 -455 126.35 -455 c 0,19,20
 72.3496 -455 72.3496 -455 11.1504 -445 c 128,-1,21
 -50.0498 -435 -50.0498 -435 -115.75 -416 c 1,22,-1
 -115.75 -190 l 1,23,-1
 -14.0498 -191 l 1,24,25
 -12.25 -271 -12.25 -271 14.2998 -306.5 c 128,-1,26
 40.8496 -342 40.8496 -342 100.25 -342 c 0,27,28
 165.95 -342 165.95 -342 192.05 -295 c 128,-1,29
 218.15 -248 218.15 -248 218.15 -125 c 2,30,-1
 218.15 942 l 1,12,-1
EndSplineSet
EndChar
StartChar: uni0250
Encoding: 592 592 592
Width: 1262
Flags: W
Fore
280.6 410 m 2,0,-1
 280.6 942 l 1,1,-1
 143.8 942 l 1,2,-1
 143.8 1063 l 1,3,-1
 599.2 1063 l 1,4,-1
 599.2 928 l 1,5,6
 662.2 1012 662.2 1012 739.6 1052 c 128,-1,7
 817 1092 817 1092 916 1092 c 0,8,9
 1062.7 1092 1062.7 1092 1141.45 1004.5 c 128,-1,10
 1220.2 917 1220.2 917 1220.2 754 c 0,11,12
 1220.2 575 1220.2 575 1107.25 486 c 128,-1,13
 994.3 397 994.3 397 766.6 397 c 2,14,-1
 599.2 397 l 1,15,-1
 599.2 334 l 2,16,17
 599.2 205 599.2 205 654.1 143.5 c 128,-1,18
 709 82 709 82 824.2 82 c 0,19,20
 919.6 82 919.6 82 971.35 125.5 c 128,-1,21
 1023.1 169 1023.1 169 1044.7 268 c 1,22,-1
 1146.4 268 l 1,23,-1
 1146.4 39 l 1,24,25
 1060.9 5 1060.9 5 969.1 -12 c 128,-1,26
 877.3 -29 877.3 -29 775.6 -29 c 0,27,28
 519.1 -29 519.1 -29 399.85 77 c 128,-1,29
 280.6 183 280.6 183 280.6 410 c 2,0,-1
599.2 729 m 2,30,-1
 599.2 516 l 1,31,-1
 718.9 516 l 2,32,33
 808 516 808 516 855.7 570 c 128,-1,34
 903.4 624 903.4 624 903.4 725 c 0,35,36
 903.4 826 903.4 826 868.75 876 c 128,-1,37
 834.1 926 834.1 926 763 926 c 0,38,39
 689.2 926 689.2 926 644.2 872 c 128,-1,40
 599.2 818 599.2 818 599.2 729 c 2,30,-1
EndSplineSet
EndChar
StartChar: uni0251
Encoding: 593 593 593
Width: 1362
Flags: W
TeX: 0 0 0 0
Fore
864.5 479 m 2,0,-1
 864.5 584 l 2,1,2
 864.5 770 864.5 770 821.3 853 c 128,-1,3
 778.1 936 778.1 936 683.6 936 c 0,4,5
 584.6 936 584.6 936 544.55 848.5 c 128,-1,6
 504.5 761 504.5 761 504.5 532 c 0,7,8
 504.5 303 504.5 303 545 215 c 128,-1,9
 585.5 127 585.5 127 683.6 127 c 0,10,11
 778.1 127 778.1 127 821.3 210 c 128,-1,12
 864.5 293 864.5 293 864.5 479 c 2,0,-1
864.5 1064 m 1,32,-1
 1319 1064 l 1,15,-1
 1319 943 l 1,14,-1
 1183.1 943 l 1,33,-1
 1183.1 121 l 1,13,-1
 1319 121 l 1,14,-1
 1319 0 l 1,15,-1
 864.5 0 l 1,16,-1
 864.5 135 l 1,17,18
 824 52 824 52 755.15 11.5 c 128,-1,19
 686.3 -29 686.3 -29 585.5 -29 c 0,20,21
 382.1 -29 382.1 -29 265.55 121 c 128,-1,22
 149 271 149 271 149 532 c 0,23,24
 149 794 149 794 265.55 943 c 128,-1,25
 382.1 1092 382.1 1092 585.5 1092 c 0,26,27
 686.3 1092 686.3 1092 755.15 1051.5 c 128,-1,28
 824 1011 824 1011 864.5 928 c 1,29,-1
 864.5 944 l 1,31,-1
 864.5 1064 l 1,32,-1
EndSplineSet
EndChar
StartChar: uni0252
Encoding: 594 594 594
Width: 1362
Flags: W
TeX: 0 0 0 0
Fore
603.5 584 m 2,0,-1
 603.5 479 l 2,1,2
 603.5 293 603.5 293 646.7 210 c 128,-1,3
 689.9 127 689.9 127 784.4 127 c 0,4,5
 883.4 127 883.4 127 923.45 214.5 c 128,-1,6
 963.5 302 963.5 302 963.5 531 c 0,7,8
 963.5 760 963.5 760 923 848 c 128,-1,9
 882.5 936 882.5 936 784.4 936 c 0,10,11
 689.9 936 689.9 936 646.7 853 c 128,-1,12
 603.5 770 603.5 770 603.5 584 c 2,0,-1
603.5 -1 m 1,32,-1
 149 -1 l 1,15,-1
 149 120 l 1,14,-1
 284.9 120 l 1,33,-1
 284.9 942 l 1,13,-1
 149 942 l 1,14,-1
 149 1063 l 1,15,-1
 603.5 1063 l 1,16,-1
 603.5 928 l 1,17,18
 644 1011 644 1011 712.85 1051.5 c 128,-1,19
 781.7 1092 781.7 1092 882.5 1092 c 0,20,21
 1085.9 1092 1085.9 1092 1202.45 942 c 128,-1,22
 1319 792 1319 792 1319 531 c 0,23,24
 1319 269 1319 269 1202.45 120 c 128,-1,25
 1085.9 -29 1085.9 -29 882.5 -29 c 0,26,27
 781.7 -29 781.7 -29 712.85 11.5 c 128,-1,28
 644 52 644 52 603.5 135 c 1,29,-1
 603.5 119 l 1,31,-1
 603.5 -1 l 1,32,-1
EndSplineSet
EndChar
StartChar: uni0253
Encoding: 595 595 595
Width: 1358
Flags: W
TeX: 0 0 0 0
Fore
567.55 479 m 2,0,1
 567.55 293 567.55 293 610.3 210 c 0,2,3
 653.05 127 653.05 127 748.45 127 c 0,4,5
 846.55 127 846.55 127 886.6 215 c 0,6,7
 926.65 303 926.65 303 926.65 532 c 0,8,9
 926.65 761 926.65 761 886.6 848.5 c 0,10,11
 846.55 936 846.55 936 748.45 936 c 0,12,13
 653.05 936 653.05 936 610.3 853 c 0,14,15
 567.55 770 567.55 770 567.55 584 c 2,16,-1
 567.55 479 l 2,0,1
248.95 121 m 1,17,-1
 248.95 1164 l 1,18,-1
 249.85 1164 l 1,19,-1
 249.85 1226 l 2,20,21
 249.85 1389.01 249.85 1389.01 353.8 1472.5 c 0,22,23
 457.756 1556 457.756 1556 660.25 1556 c 0,24,25
 714.25 1556 714.25 1556 775.45 1546 c 0,26,27
 836.65 1536 836.65 1536 902.35 1517 c 1,28,-1
 902.35 1292 l 1,29,-1
 800.65 1292 l 1,30,31
 798.85 1372 798.85 1372 772.3 1407.5 c 0,32,33
 745.75 1443 745.75 1443 686.35 1443 c 0,34,35
 620.65 1443 620.65 1443 594.55 1396 c 0,36,37
 568.45 1348.91 568.45 1348.91 568.45 1226 c 2,38,-1
 568.45 929.832 l 1,39,40
 608.807 1011.45 608.807 1011.45 676.45 1051.5 c 0,41,42
 744.85 1092 744.85 1092 845.65 1092 c 0,43,44
 1049.95 1092 1049.95 1092 1167.4 942.5 c 0,45,46
 1284.85 793 1284.85 793 1284.85 532 c 0,47,48
 1284.85 271 1284.85 271 1167.4 121 c 0,49,50
 1049.95 -29 1049.95 -29 845.65 -29 c 0,51,52
 744.85 -29 744.85 -29 676.45 11.5 c 0,53,54
 608.05 52 608.05 52 567.55 135 c 1,55,-1
 567.55 0 l 1,56,-1
 112.15 0 l 1,57,-1
 112.15 121 l 1,58,-1
 248.95 121 l 1,17,-1
EndSplineSet
EndChar
StartChar: uni0254
Encoding: 596 596 596
Width: 1184
Flags: W
Fore
137.55 332 m 1,0,1
 286.95 332 l 1,26,-1
 299.55 212 299.55 212 357.6 148 c 128,-1,25
 415.65 84 415.65 84 511.95 84 c 0,23,24
 636.15 84 636.15 84 691.05 187.5 c 128,-1,22
 745.95 291 745.95 291 745.95 532 c 0,20,21
 745.95 779 745.95 779 689.7 879 c 128,-1,19
 633.45 979 633.45 979 500.25 979 c 0,17,18
 397.65 979 397.65 979 340.95 913.5 c 128,-1,16
 284.25 848 284.25 848 269.85 713 c 1,14,15
 169.05 713 l 1,13,-1
 169.05 1008 l 1,12,-1
 274.35 1050 274.35 1050 376.05 1071 c 128,-1,11
 477.75 1092 477.75 1092 577.65 1092 c 0,9,10
 824.25 1092 824.25 1092 962.85 944 c 128,-1,8
 1101.45 796 1101.45 796 1101.45 532 c 0,6,7
 1101.45 265 1101.45 265 961.05 118 c 128,-1,5
 820.65 -29 820.65 -29 565.05 -29 c 0,3,4
 383.25 -29 383.25 -29 277.5 60.5 c 128,-1,2
 171.75 150 171.75 150 137.55 332 c 1,0,1
EndSplineSet
EndChar
StartChar: uni0255
Encoding: 597 597 597
Width: 1183
Flags: W
TeX: 0 0 0 0
Fore
538.995 222 m 1,0,1
 622.694 69 622.694 69 763.095 70 c 0,2,3
 887.295 69.1465 887.295 69.1465 887.295 176 c 0,4,5
 887.295 300.811 887.295 300.811 806.295 300 c 0,6,7
 576.51 298 576.51 298 538.995 222 c 1,0,1
505.694 316 m 1,8,9
 635.295 388 635.295 388 854.895 390 c 0,10,11
 1096.14 390.211 1096.14 390.211 1091.59 158 c 0,12,13
 1087.99 -41 1087.99 -41 685.335 -41 c 0,14,15
 520.095 -41 520.095 -41 404.535 30 c 1,16,17
 394.814 -2 394.814 -2 395.895 -87 c 1,18,-1
 395.895 -231 l 1,19,-1
 272.774 -231 l 1,20,-1
 273.854 -87 l 1,21,22
 277.095 14 277.095 14 303.015 93 c 1,23,24
 292.215 103 292.215 103 282.495 112 c 0,25,26
 130.215 266 130.215 266 130.215 520 c 0,27,28
 130.215 775 130.215 775 282.495 928 c 0,29,30
 434.774 1080 434.774 1080 685.335 1080 c 0,31,32
 830.271 1080 830.271 1080 909.471 1056 c 0,33,34
 988.671 1033 988.671 1033 1068.66 985 c 1,35,-1
 1068.66 713 l 1,36,-1
 983.919 713 l 1,37,38
 967.287 853 967.287 853 911.847 917 c 0,39,40
 855.614 981 855.614 981 752.295 981 c 0,41,42
 618.194 981 618.194 981 549.795 866 c 0,43,44
 479.228 746.326 479.228 746.326 481.395 520 c 0,45,46
 482.295 426 482.295 426 505.694 316 c 1,8,9
EndSplineSet
EndChar
StartChar: uni0256
Encoding: 598 598 598
Width: 1373
Flags: W
TeX: 0 0 0 0
Fore
875.45 479 m 2,0,-1
 875.45 584 l 2,1,2
 875.45 770 875.45 770 832.25 853 c 0,3,4
 789.05 936 789.05 936 694.55 936 c 0,5,6
 595.55 936 595.55 936 555.5 848.5 c 0,7,8
 515.45 761 515.45 761 515.45 532 c 0,9,10
 515.45 303 515.45 303 555.95 215 c 0,11,12
 596.45 127 596.45 127 694.55 127 c 0,13,14
 789.05 127 789.05 127 832.25 210 c 0,15,16
 875.45 293 875.45 293 875.45 479 c 2,0,-1
874.55 133.168 m 1,17,18
 834.188 51.5518 834.188 51.5518 766.1 11.5 c 0,19,20
 697.25 -29 697.25 -29 596.45 -29 c 0,21,22
 393.05 -29 393.05 -29 276.5 121 c 0,23,24
 159.95 271 159.95 271 159.95 532 c 0,25,26
 159.95 794 159.95 794 276.5 943 c 0,27,28
 393.05 1092 393.05 1092 596.45 1092 c 0,29,30
 697.25 1092 697.25 1092 766.1 1051.5 c 0,31,32
 834.95 1011 834.95 1011 875.45 928 c 1,33,-1
 875.45 1436 l 1,34,-1
 738.65 1436 l 1,35,-1
 738.65 1556 l 1,36,-1
 1194.05 1556 l 1,37,-1
 1194.05 0 l 1,38,-1
 1193.15 0 l 1,39,-1
 1193.15 -125 l 2,40,41
 1193.15 -247.91 1193.15 -247.91 1219.25 -295 c 0,42,43
 1245.35 -342 1245.35 -342 1311.05 -342 c 0,44,45
 1370.45 -342 1370.45 -342 1397 -306.5 c 0,46,47
 1423.55 -271 1423.55 -271 1425.35 -191 c 1,48,-1
 1527.05 -191 l 1,49,-1
 1527.05 -416 l 1,50,51
 1461.35 -435 1461.35 -435 1400.15 -445 c 0,52,53
 1338.95 -455 1338.95 -455 1284.95 -455 c 0,54,55
 1082.45 -455 1082.45 -455 978.5 -371.5 c 0,56,57
 874.55 -288.003 874.55 -288.003 874.55 -125 c 2,58,-1
 874.55 133.168 l 1,17,18
EndSplineSet
EndChar
StartChar: uni0257
Encoding: 599 599 599
Width: 1429
Flags: W
TeX: 0 0 0 0
Fore
1194.15 121 m 1,0,-1
 1330.05 121 l 1,1,-1
 1330.05 0 l 1,2,-1
 875.55 0 l 1,3,-1
 875.55 135 l 1,4,5
 835.05 52 835.05 52 766.2 11.5 c 0,6,7
 697.35 -29 697.35 -29 596.55 -29 c 0,8,9
 393.15 -29 393.15 -29 276.6 121 c 0,10,11
 160.05 271 160.05 271 160.05 532 c 0,12,13
 160.05 794 160.05 794 276.6 943 c 0,14,15
 393.15 1092 393.15 1092 596.55 1092 c 0,16,17
 697.35 1092 697.35 1092 766.2 1051.5 c 0,18,19
 835.05 1011 835.05 1011 875.55 928 c 1,20,-1
 875.55 1116 l 1,21,-1
 876.45 1116 l 1,22,-1
 876.45 1226 l 2,23,24
 876.45 1389 876.45 1389 980.4 1472.5 c 0,25,26
 1084.36 1556 1084.36 1556 1286.85 1556 c 0,27,28
 1340.85 1556 1340.85 1556 1402.05 1546 c 0,29,30
 1463.25 1536 1463.25 1536 1528.95 1517 c 1,31,-1
 1528.95 1292 l 1,32,-1
 1427.25 1292 l 1,33,34
 1425.45 1372 1425.45 1372 1398.9 1407.5 c 0,35,36
 1372.35 1443 1372.35 1443 1312.95 1443 c 0,37,38
 1247.25 1443 1247.25 1443 1221.15 1396 c 0,39,40
 1195.05 1348.91 1195.05 1348.91 1195.05 1226 c 2,41,-1
 1195.05 816 l 1,42,-1
 1194.15 816 l 1,43,-1
 1194.15 121 l 1,0,-1
875.55 479 m 2,44,-1
 875.55 584 l 2,45,46
 875.55 770 875.55 770 832.35 853 c 0,47,48
 789.15 936 789.15 936 694.65 936 c 0,49,50
 595.65 936 595.65 936 555.6 848.5 c 0,51,52
 515.55 761 515.55 761 515.55 532 c 0,53,54
 515.55 303 515.55 303 556.05 215 c 0,55,56
 596.55 127 596.55 127 694.65 127 c 0,57,58
 789.15 127 789.15 127 832.35 210 c 0,59,60
 875.55 293 875.55 293 875.55 479 c 2,44,-1
EndSplineSet
EndChar
StartChar: uni0258
Encoding: 600 600 600
Width: 1237
Flags: W
Fore
490.4 600 m 1,0,1
 798.2 600 l 1,7,-1
 798.2 618 l 2,6,-1
 798.2 813 798.2 813 762.65 896 c 128,-1,5
 727.1 979 727.1 979 645.2 979 c 0,3,4
 560.6 979 560.6 979 525.5 894.5 c 128,-1,2
 490.4 810 490.4 810 490.4 600 c 1,0,1
140.3 481 m 1,8,-1
 148.4 781 148.4 781 275.3 936.5 c 128,-1,28
 402.2 1092 402.2 1092 639.8 1092 c 0,26,27
 881.9 1092 881.9 1092 1017.8 944 c 128,-1,25
 1153.7 796 1153.7 796 1153.7 532 c 0,23,24
 1153.7 262 1153.7 262 1020.95 116.5 c 128,-1,22
 888.2 -29 888.2 -29 639.8 -29 c 0,20,21
 432.8 -29 432.8 -29 317.6 56 c 128,-1,19
 202.4 141 202.4 141 163.7 322 c 1,17,18
 313.1 322 l 1,16,-1
 331.1 206 331.1 206 395 145 c 128,-1,15
 458.9 84 458.9 84 562.4 84 c 0,13,14
 686.6 84 686.6 84 742.4 175.5 c 128,-1,12
 798.2 267 798.2 267 798.2 473 c 2,10,11
 798.2 481 l 1,9,-1
 140.3 481 l 1,8,-1
EndSplineSet
EndChar
StartChar: uni0259
Encoding: 601 601 601
Width: 1237
Flags: W
Fore
490.4 463 m 1,0,1
 490.4 253 490.4 253 525.5 168.5 c 128,-1,2
 560.6 84 560.6 84 645.2 84 c 0,3,4
 727.1 84 727.1 84 762.65 167 c 128,-1,5
 798.2 250 798.2 250 798.2 445 c 2,6,-1
 798.2 463 l 1,7,-1
 490.4 463 l 1,0,1
140.3 582 m 1,8,-1
 798.2 582 l 1,9,-1
 798.2 590 l 2,10,11
 798.2 796 798.2 796 742.4 887.5 c 128,-1,12
 686.6 979 686.6 979 562.4 979 c 0,13,14
 458.9 979 458.9 979 395 918 c 128,-1,15
 331.1 857 331.1 857 313.1 741 c 1,16,-1
 163.7 741 l 1,17,18
 202.4 922 202.4 922 317.6 1007 c 128,-1,19
 432.8 1092 432.8 1092 639.8 1092 c 0,20,21
 888.2 1092 888.2 1092 1020.95 946.5 c 128,-1,22
 1153.7 801 1153.7 801 1153.7 531 c 0,23,24
 1153.7 267 1153.7 267 1017.8 119 c 128,-1,25
 881.9 -29 881.9 -29 639.8 -29 c 0,26,27
 402.2 -29 402.2 -29 275.3 126.5 c 128,-1,28
 148.4 282 148.4 282 140.3 582 c 1,8,-1
EndSplineSet
EndChar
StartChar: uni025A
Encoding: 602 602 602
Width: 1770
Flags: W
TeX: 0 0 0 0
Fore
831.9 606 m 1,0,-1
 524.629 408.85 l 1,1,2
 528.715 241.827 528.715 241.827 559.2 168.5 c 0,3,4
 594.33 84 594.33 84 678.9 84 c 0,5,6
 760.8 84 760.8 84 796.35 167 c 0,7,8
 831.534 249.161 831.534 249.161 831.9 445 c 2,9,-1
 831.9 606 l 1,0,-1
822.835 737.559 m 1,10,11
 809.41 832.893 809.41 832.893 776.1 887.5 c 0,12,13
 720.285 979 720.285 979 596.1 979 c 0,14,15
 492.6 979 492.6 979 428.7 918 c 0,16,17
 364.8 857 364.8 857 346.8 741 c 1,18,-1
 197.4 741 l 1,19,20
 236.1 922 236.1 922 351.3 1007 c 0,21,22
 466.5 1092 466.5 1092 673.5 1092 c 0,23,24
 921.9 1092 921.9 1092 1054.65 946.5 c 0,25,26
 1071.55 927.975 1071.55 927.975 1086.3 907.431 c 1,27,-1
 1271.1 1025 l 1,28,-1
 1428.52 1022.43 l 1,29,-1
 1428.52 978.82 l 2,30,31
 1428.52 885.226 1428.52 885.226 1470.68 842.97 c 0,32,33
 1514.92 798.64 1514.92 798.64 1567.76 798.64 c 0,34,35
 1656.78 798.64 1656.78 798.64 1664.46 830.815 c 1,36,-1
 1770.6 679 l 1,37,38
 1701.37 631.119 1701.37 631.119 1698.6 630 c 0,39,40
 1656.51 613 1656.51 613 1570.94 613 c 0,41,42
 1466.47 613 1466.47 613 1382.61 706 c 0,43,44
 1309.58 787.302 1309.58 787.302 1299.9 907 c 1,45,-1
 1141.66 805.075 l 1,46,47
 1187.4 689.486 1187.4 689.486 1187.4 531 c 0,48,49
 1187.4 267 1187.4 267 1051.5 119 c 0,50,51
 915.6 -29 915.6 -29 673.5 -29 c 0,52,53
 435.9 -29 435.9 -29 309 126.5 c 0,54,55
 239.811 211.902 239.811 211.902 205.6 341.602 c 1,56,-1
 366.093 444.558 l 1,57,-1
 822.835 737.559 l 1,10,11
EndSplineSet
EndChar
StartChar: uni025B
Encoding: 603 603 603
Width: 1094
Flags: W
TeX: 0 0 0 0
Fore
666.24 -36 m 0,3,4
 392.55 -36 392.55 -36 263.76 41 c 128,-1,5
 134.97 118 134.97 118 134.97 259 c 0,6,7
 134.97 362 134.97 362 226.095 433 c 128,-1,8
 318.435 504 318.435 504 482.46 528 c 1,9,10
 318.435 552 318.435 552 226.095 624 c 128,-1,8
 134.97 695 134.97 695 134.97 797 c 0,6,7
 134.97 938 134.97 938 263.76 1015 c 128,-1,5
 392.55 1092 392.55 1092 641.04 1092 c 0,3,4
 718.845 1092 718.845 1092 808.62 1073 c 128,-1,2
 898.395 1055 898.395 1055 996.675 1018 c 1,0,1
 996.675 803 l 1,42,-1
 892.14 803 l 1,41,-1
 883.14 896 883.14 896 827.34 941 c 128,-1,40
 771.54 987 771.54 987 666.24 987 c 0,38,39
 569.04 987 569.04 987 516.84 935 c 128,-1,37
 465.54 884 465.54 884 465.54 789 c 0,35,36
 465.54 713.4 465.54 713.4 528.54 651 c 128,-1,34
 592.44 587.4 592.44 587.4 716.64 587.4 c 2,32,33
 750.84 587.4 l 1,31,-1
 750.84 467.4 l 17,0,0
 716.64 467.4 l 2,32,33
 590.352 467.4 590.352 467.4 528.54 405 c 128,-1,34
 465.54 341.4 465.54 341.4 465.54 268 c 0,35,36
 465.54 172 465.54 172 516.84 121 c 128,-1,37
 568.14 71 568.14 71 666.24 70 c 0,23,24
 769.74 69 769.74 69 825.54 115 c 128,-1,25
 881.34 161 881.34 161 899.34 285 c 1,26,-1
 1052.43 285 l 1,0,1
 1031.64 156 1031.64 156 945.645 59 c 128,-1,2
 861.54 -36 861.54 -36 666.24 -36 c 0,3,4
EndSplineSet
EndChar
StartChar: uni025C
Encoding: 604 604 604
Width: 1094
Flags: W
TeX: 0 0 0 0
Fore
521.16 -36 m 0,3,4
 325.86 -36 325.86 -36 241.754 59 c 128,-1,2
 155.76 156 155.76 156 134.97 285 c 1,0,1
 288.06 285 l 1,26,-1
 306.06 161 306.06 161 361.86 115 c 128,-1,25
 417.66 69 417.66 69 521.16 70 c 0,23,24
 619.26 71 619.26 71 670.56 121 c 128,-1,37
 721.86 172 721.86 172 721.86 268 c 0,35,36
 721.86 341.4 721.86 341.4 658.86 405 c 128,-1,34
 597.048 467.4 597.048 467.4 470.76 467.4 c 2,32,33
 436.56 467.4 l 9,0,0
 436.56 587.4 l 1,31,-1
 470.76 587.4 l 2,32,33
 594.96 587.4 594.96 587.4 658.86 651 c 128,-1,34
 721.86 713.4 721.86 713.4 721.86 789 c 0,35,36
 721.86 884 721.86 884 670.56 935 c 128,-1,37
 618.36 987 618.36 987 521.16 987 c 0,38,39
 415.86 987 415.86 987 360.06 941 c 128,-1,40
 304.26 896 304.26 896 295.26 803 c 1,41,-1
 190.724 803 l 1,42,-1
 190.724 1018 l 1,0,1
 289.004 1055 289.004 1055 378.779 1073 c 128,-1,2
 468.554 1092 468.554 1092 546.36 1092 c 0,3,4
 794.849 1092 794.849 1092 923.64 1015 c 128,-1,5
 1052.43 938 1052.43 938 1052.43 797 c 0,6,7
 1052.43 695 1052.43 695 961.305 624 c 128,-1,8
 868.965 552 868.965 552 704.94 528 c 1,9,10
 868.965 504 868.965 504 961.305 433 c 128,-1,8
 1052.43 362 1052.43 362 1052.43 259 c 0,6,7
 1052.43 118 1052.43 118 923.64 41 c 128,-1,5
 794.849 -36 794.849 -36 521.16 -36 c 0,3,4
EndSplineSet
EndChar
StartChar: uni025D
Encoding: 605 605 605
Width: 1769
Flags: W
TeX: 0 0 0 0
Fore
558.89 -36 m 0,0,1
 363.647 -36 363.647 -36 279.484 59 c 0,2,3
 193.477 156.081 193.477 156.081 172.7 285 c 1,4,-1
 325.79 285 l 1,5,6
 343.79 161 343.79 161 399.59 115 c 0,7,8
 455.39 69 455.39 69 558.89 70 c 0,9,10
 656.99 71 656.99 71 708.29 121 c 0,11,12
 759.59 172 759.59 172 759.59 268 c 0,13,14
 759.59 341.4 759.59 341.4 696.59 405 c 0,15,16
 634.778 467.4 634.778 467.4 508.49 467.4 c 2,17,-1
 474.29 467.4 l 1,18,-1
 474.29 587.4 l 1,19,-1
 508.49 587.4 l 2,20,21
 632.534 587.4 632.534 587.4 696.59 651 c 0,22,23
 759.59 713.552 759.59 713.552 759.59 789 c 0,24,25
 759.59 883.948 759.59 883.948 708.29 935 c 0,26,27
 656.037 987 656.037 987 558.89 987 c 0,28,29
 453.59 987 453.59 987 397.79 941 c 0,30,31
 341.99 896 341.99 896 332.99 803 c 1,32,-1
 228.454 803 l 1,33,-1
 228.454 1018 l 1,34,35
 326.734 1055 326.734 1055 416.509 1073 c 0,36,37
 506.284 1092 506.284 1092 584.09 1092 c 0,38,39
 832.579 1092 832.579 1092 961.37 1015 c 0,40,41
 1064.57 953.296 1064.57 953.296 1085.08 850.492 c 1,42,-1
 1269.8 1025 l 1,43,-1
 1427.22 1022.43 l 1,44,-1
 1427.22 978.82 l 2,45,46
 1427.22 885.226 1427.22 885.226 1469.38 842.97 c 0,47,48
 1513.62 798.64 1513.62 798.64 1566.46 798.64 c 0,49,50
 1655.48 798.64 1655.48 798.64 1663.16 830.815 c 1,51,-1
 1769.3 679 l 1,52,53
 1700.07 631.119 1700.07 631.119 1697.3 630 c 0,54,55
 1655.21 613 1655.21 613 1569.64 613 c 0,56,57
 1465.17 613 1465.17 613 1381.31 706 c 0,58,59
 1308.28 787.302 1308.28 787.302 1298.6 907 c 1,60,-1
 1039.91 662.614 l 2,61,62
 1022.49 642.281 1022.49 642.281 999.035 624 c 0,63,64
 906.652 551.994 906.652 551.994 742.67 528 c 1,65,66
 906.695 504 906.695 504 999.035 433 c 0,67,68
 1090.16 362 1090.16 362 1090.16 259 c 0,69,70
 1090.16 118 1090.16 118 961.37 41 c 0,71,72
 832.579 -36 832.579 -36 558.89 -36 c 0,0,1
EndSplineSet
EndChar
StartChar: uni025E
Encoding: 606 606 606
Width: 1399
Flags: W
TeX: 0 0 0 0
Fore
785.117 70 m 24,3,4
 883.218 71 883.218 71 934.518 121 c 128,-1,37
 985.817 172 985.817 172 985.817 268 c 0,35,36
 985.817 341.4 985.817 341.4 922.817 405 c 128,-1,34
 861.007 467.4 861.007 467.4 734.718 467.4 c 2,32,33
 700.518 467.4 l 9,0,0
 700.518 587.4 l 1,31,-1
 734.718 587.4 l 2,32,33
 858.918 587.4 858.918 587.4 922.817 651 c 128,-1,34
 985.817 713.4 985.817 713.4 985.817 789 c 0,35,36
 985.817 884 985.817 884 934.518 935 c 128,-1,37
 882.317 987 882.317 987 785.117 987 c 24,3,4
 770.538 987 770.538 987 704.117 969 c 128,-1,2
 670.907 960 670.907 960 613.397 923 c 0,0,0
 418.997 800 418.997 800 418.997 525 c 0,0,0
 418.997 273.449 418.997 273.449 613.397 127 c 0,0,0
 647.691 101.165 647.691 101.165 704.117 81 c 128,-1,2
 734.897 70 734.897 70 785.117 70 c 24,3,4
810.317 1092 m 24,3,4
 1058.81 1092 1058.81 1092 1187.6 1015 c 128,-1,5
 1316.39 938 1316.39 938 1316.39 797 c 0,6,7
 1316.39 695 1316.39 695 1225.26 624 c 128,-1,8
 1132.92 552 1132.92 552 968.897 528 c 1,9,10
 1132.92 504 1132.92 504 1225.26 433 c 128,-1,8
 1316.39 362 1316.39 362 1316.39 259 c 0,6,7
 1316.39 118 1316.39 118 1187.6 41 c 128,-1,5
 1058.81 -36 1058.81 -36 782.328 -36 c 24,3,4
 763.368 -36 763.368 -36 634.862 -17 c 128,-1,2
 581.973 -9.17969 581.973 -9.17969 480.314 38 c 0,0,0
 148.862 191.829 148.862 191.829 148.862 528 c 0,0,0
 148.862 836 148.862 836 480.314 1018 c 0,0,0
 542.106 1051.98 542.106 1051.98 634.862 1074 c 128,-1,2
 710.68 1092 710.68 1092 810.317 1092 c 24,3,4
EndSplineSet
EndChar
StartChar: uni025F
Encoding: 607 607 607
Width: 742
Flags: W
Fore
226.55 942 m 1,0,-1
 90.6504 942 l 1,1,-1
 90.6504 1063 l 1,2,-1
 545.15 1063 l 1,3,-1
 545.15 121 l 1,4,-1
 696.35 121 l 1,5,-1
 696.35 0 l 1,6,-1
 545.15 -0 l 1,7,-1
 545.15 -125 l 2,8,9
 545.15 -288 545.15 -288 441.2 -371.5 c 0,10,11
 337.25 -455 337.25 -455 134.75 -455 c 0,12,13
 80.75 -455 80.75 -455 19.5498 -445 c 0,14,15
 -41.6504 -435 -41.6504 -435 -107.35 -416 c 1,16,-1
 -107.35 -190 l 1,17,-1
 -5.65039 -191 l 1,18,19
 -3.84961 -271 -3.84961 -271 22.7002 -306.5 c 0,20,21
 49.25 -342 49.25 -342 108.65 -342 c 0,22,23
 174.35 -342 174.35 -342 200.45 -295 c 0,24,25
 226.55 -248 226.55 -248 226.55 -125 c 2,26,-1
 226.55 0 l 1,27,-1
 92.4502 0 l 1,28,-1
 92.4502 121 l 1,29,-1
 226.55 121 l 1,30,-1
 226.55 942 l 1,0,-1
EndSplineSet
EndChar
StartChar: uni0260
Encoding: 608 608 608
Width: 1373
Flags: W
TeX: 0 0 0 0
Fore
876.45 936 m 1,0,-1
 694.65 936 l 2,1,2
 595.65 936 595.65 936 555.6 848.5 c 0,3,4
 515.55 761 515.55 761 515.55 532 c 0,5,6
 515.55 303 515.55 303 556.05 215 c 0,7,8
 596.55 127 596.55 127 694.65 127 c 0,9,10
 789.15 127 789.15 127 832.35 210 c 0,11,12
 875.55 293 875.55 293 875.55 479 c 2,13,-1
 875.55 584 l 1,14,-1
 876.45 936 l 1,0,-1
1194.15 816 m 1,15,-1
 1194.15 14 l 2,16,17
 1194.15 -210 1194.15 -210 1050.6 -332.5 c 0,18,19
 907.05 -455 907.05 -455 645.15 -455 c 0,20,21
 549.75 -455 549.75 -455 451.65 -438.5 c 0,22,23
 353.55 -422 353.55 -422 250.05 -389 c 1,24,-1
 250.05 -135 l 1,25,-1
 351.75 -135 l 1,26,27
 365.25 -240 365.25 -240 427.8 -291 c 0,28,29
 490.35 -342 490.35 -342 606.45 -342 c 0,30,31
 754.05 -342 754.05 -342 814.8 -263.5 c 0,32,33
 875.55 -185 875.55 -185 875.55 14 c 2,34,-1
 875.55 135 l 1,35,36
 835.05 52 835.05 52 766.2 11.5 c 0,37,38
 697.35 -29 697.35 -29 596.55 -29 c 0,39,40
 393.15 -29 393.15 -29 276.6 121 c 0,41,42
 160.05 271 160.05 271 160.05 532 c 0,43,44
 160.05 761.548 160.05 761.548 279.3 914 c 0,45,46
 395.85 1063 395.85 1063 599.25 1063 c 2,47,-1
 876.45 1063 l 1,48,-1
 876.45 1226 l 2,49,50
 876.45 1389 876.45 1389 980.4 1472.5 c 0,51,52
 1084.36 1556 1084.36 1556 1286.85 1556 c 0,53,54
 1340.85 1556 1340.85 1556 1402.05 1546 c 0,55,56
 1463.25 1536 1463.25 1536 1528.95 1517 c 1,57,-1
 1528.95 1292 l 1,58,-1
 1427.25 1292 l 1,59,60
 1425.45 1372 1425.45 1372 1398.9 1407.5 c 0,61,62
 1372.35 1443 1372.35 1443 1312.95 1443 c 0,63,64
 1247.25 1443 1247.25 1443 1221.15 1396 c 0,65,66
 1195.05 1348.91 1195.05 1348.91 1195.05 1226 c 2,67,-1
 1195.05 816 l 1,68,-1
 1194.15 816 l 1,15,-1
EndSplineSet
EndChar
StartChar: uni0261
Encoding: 609 609 609
Width: 1362
Flags: W
TeX: 0 0 0 0
Fore
588.2 1063 m 0,25,26
 1319 1063 l 1,30,-1
 1319 942 l 1,31,-1
 1183.1 942 l 1,0,-1
 1183.1 14 l 2,1,2
 1183.1 -210 1183.1 -210 1039.55 -332.5 c 128,-1,3
 896 -455 896 -455 634.1 -455 c 0,4,5
 538.7 -455 538.7 -455 440.6 -438.5 c 128,-1,6
 342.5 -422 342.5 -422 239 -389 c 1,7,-1
 239 -135 l 1,8,-1
 340.7 -135 l 1,9,10
 354.2 -240 354.2 -240 416.75 -291 c 128,-1,11
 479.3 -342 479.3 -342 595.4 -342 c 0,12,13
 743 -342 743 -342 803.75 -263.5 c 128,-1,14
 864.5 -185 864.5 -185 864.5 14 c 2,15,-1
 864.5 135 l 1,16,17
 824 52 824 52 755.15 11.5 c 128,-1,18
 686.3 -29 686.3 -29 585.5 -29 c 0,19,20
 382.1 -29 382.1 -29 265.55 121 c 128,-1,21
 149 271 149 271 149 532 c 0,22,23
 149 761.548 149 761.548 268.25 914 c 128,-1,24
 384.8 1063 384.8 1063 588.2 1063 c 0,25,26
864.5 584 m 2,32,33
 865.4 936 l 129,-1,34
 683.6 936 l 1,35,36
 584.6 936 584.6 936 544.55 848.5 c 128,-1,37
 504.5 761 504.5 761 504.5 532 c 0,38,39
 504.5 303 504.5 303 545 215 c 128,-1,40
 585.5 127 585.5 127 683.6 127 c 0,41,42
 778.1 127 778.1 127 821.3 210 c 128,-1,43
 864.5 293 864.5 293 864.5 479 c 2,44,-1
 864.5 584 l 2,32,33
EndSplineSet
EndChar
StartChar: uni0262
Encoding: 610 610 610
Width: 1219
Flags: W
TeX: 0 0 0 0
Fore
970.2 720 m 1,0,1
 950.068 834.618 950.068 834.618 860.4 919 c 128,-1,2
 795.579 980 795.579 980 726.3 980 c 0,3,4
 621.9 980 621.9 980 554.4 871 c 128,-1,5
 486 762 486 762 486 527 c 0,6,7
 486 293.58 486 293.58 550.8 185 c 128,-1,8
 616.447 75 616.447 75 713.7 75 c 0,9,10
 757.8 75 757.8 75 810 115 c 1,12,-1
 810.9 411 l 1,13,-1
 680.4 411 l 1,14,-1
 680.4 495 l 1,15,-1
 1116 495 l 1,16,-1
 1116 98 l 1,17,18
 1010.7 44 1010.7 44 906.3 17 c 128,-1,19
 801.9 -9 801.9 -9 693 -9 c 0,20,21
 453.6 -9 453.6 -9 316.8 134 c 128,-1,22
 180 278 180 278 180 527 c 0,23,24
 180 777 180 777 316.8 920 c 128,-1,25
 453.6 1064 453.6 1064 693 1064 c 0,26,27
 792.9 1064 792.9 1064 889.2 1042 c 128,-1,28
 985.5 1019 985.5 1019 1083.6 974 c 1,29,-1
 1083.6 720 l 1,30,-1
 970.2 720 l 1,0,1
EndSplineSet
EndChar
StartChar: uni0263
Encoding: 611 611 611
Width: 1383
Flags: W
TeX: 0 0 0 0
Fore
702.5 305 m 1,0,0
 467.6 -44.207 467.6 -44.207 467.6 -172 c 0,0,0
 467.6 -299.423 467.6 -299.423 644 -300 c 0,0,0
 868.546 -301.065 868.546 -301.065 867.2 -180 c 0,0,0
 864.19 82.4023 864.19 82.4023 702.5 305 c 1,0,0
647.6 404 m 0,0,0
 292.1 942 l 1,22,-1
 185 942 l 1,23,-1
 185 1063 l 1,24,-1
 769.1 1063 l 1,25,-1
 769.1 942 l 1,26,-1
 653 942 l 1,27,-1
 823.1 678 l 1,0,-1
 992.3 942 l 1,1,-1
 874.4 942 l 1,2,-1
 874.4 1063 l 1,3,-1
 1247 1063 l 1,4,-1
 1247 942 l 1,5,-1
 1120.1 942 l 1,6,-1
 876.2 563 l 0,0,0
 1171.68 92.998 1171.68 92.998 1173.2 -276 c 0,0,0
 1173.97 -445.703 1173.97 -445.703 680 -448 c 0,0,0
 257.431 -450.6 257.431 -450.6 363.2 -101 c 0,0,0
 427.296 110.856 427.296 110.856 647.6 404 c 0,0,0
EndSplineSet
EndChar
StartChar: uni0264
Encoding: 612 612 612
Width: 1222
Flags: W
TeX: 0 0 0 0
Fore
771.75 692 m 1,0,0
 1025 1049.76 1025 1049.76 1105.65 1065 c 0,0,0
 1166.43 1076.48 1166.43 1076.48 1181.25 970 c 1,0,0
 1180.35 818 l 25,0,0
 1085.85 818 l 25,0,0
 1085.85 837 l 26,0,0
 1083.21 922.043 1083.21 922.043 1063.35 908 c 0,0,0
 1023.75 880 1023.75 880 829.35 588 c 1,0,0
 1116.27 143.177 1116.27 143.177 1033.65 56 c 16,0,0
 907.563 -77.04 907.563 -77.04 714.15 -76 c 0,0,0
 431.814 -74.4814 431.814 -74.4814 350.55 0 c 0,0,0
 253.841 86.8184 253.841 86.8184 575.55 465 c 1,0,0
 491.906 645.146 491.906 645.146 310.95 880 c 0,0,0
 244.35 966.438 244.35 966.438 244.35 840 c 26,0,0
 244.35 818 l 25,0,0
 141.75 818 l 25,0,0
 141.75 974 l 17,0,0
 151.213 1061.5 151.213 1061.5 330.75 1064 c 0,0,0
 536.92 1067 536.92 1067 771.75 692 c 1,0,0
631.35 348 m 1,0,0
 495.393 197.548 495.393 197.548 494.55 156 c 0,0,0
 492.19 78.2627 492.19 78.2627 613.35 76 c 0,0,0
 700.414 74.3535 700.414 74.3535 721.35 152 c 0,0,0
 737.098 216.206 737.098 216.206 631.35 348 c 1,0,0
EndSplineSet
EndChar
StartChar: uni0265
Encoding: 613 613 613
Width: 1413
Flags: W
Fore
1214.85 1063 m 1,0,-1
 1214.85 -306 l 1,3,-1
 1357.05 -306 l 1,4,-1
 1357.05 -426 l 1,5,-1
 896.25 -426 l 1,6,-1
 896.25 150 l 1,7,8
 838.65 55 838.65 55 764.85 13 c 128,-1,9
 691.05 -29 691.05 -29 578.55 -29 c 0,10,11
 417.45 -29 417.45 -29 335.1 76.5 c 128,-1,12
 252.75 182 252.75 182 252.75 387 c 2,13,-1
 252.75 942 l 1,14,-1
 115.95 942 l 1,15,-1
 115.95 1063 l 1,16,-1
 687.45 1063 l 1,17,-1
 687.45 942 l 1,18,-1
 571.35 942 l 1,19,-1
 571.35 377 l 2,20,21
 571.35 242 571.35 242 602.4 189.5 c 128,-1,22
 633.45 137 633.45 137 709.95 137 c 0,23,24
 806.25 137 806.25 137 851.25 215.5 c 128,-1,25
 896.25 294 896.25 294 896.25 465 c 2,26,-1
 896.25 942 l 1,27,-1
 779.25 942 l 1,28,-1
 779.25 1063 l 1,29,-1
 1214.85 1063 l 1,0,-1
EndSplineSet
EndChar
StartChar: uni0266
Encoding: 614 614 614
Width: 1415
Flags: W
Fore
138.6 0 m 1,0,-1
 138.6 121 l 1,1,-1
 274.5 121 l 1,2,-1
 274.5 1086 l 1,3,-1
 275.4 1086 l 1,4,-1
 275.4 1226 l 2,5,6
 275.4 1389.01 275.4 1389.01 379.35 1472.5 c 0,7,8
 483.307 1556 483.307 1556 685.8 1556 c 0,9,10
 739.8 1556 739.8 1556 801 1546 c 0,11,12
 862.2 1536 862.2 1536 927.9 1517 c 1,13,-1
 927.9 1292 l 1,14,-1
 826.2 1292 l 1,15,16
 824.4 1372 824.4 1372 797.85 1407.5 c 0,17,18
 771.3 1443 771.3 1443 711.9 1443 c 0,19,20
 646.2 1443 646.2 1443 620.1 1396 c 0,21,22
 594 1348.91 594 1348.91 594 1226 c 2,23,-1
 594 914.479 l 1,24,25
 651.276 1008.33 651.276 1008.33 724.5 1050 c 0,26,27
 798.3 1092 798.3 1092 910.8 1092 c 0,28,29
 1071.9 1092 1071.9 1092 1154.25 986.5 c 0,30,31
 1236.6 881 1236.6 881 1236.6 676 c 2,32,-1
 1236.6 121 l 1,33,-1
 1373.4 121 l 1,34,-1
 1373.4 0 l 1,35,-1
 801.9 0 l 1,36,-1
 801.9 121 l 1,37,-1
 918 121 l 1,38,-1
 918 686 l 2,39,40
 918 821 918 821 886.95 873.5 c 0,41,42
 855.9 926 855.9 926 779.4 926 c 0,43,44
 683.1 926 683.1 926 638.1 847.5 c 0,45,46
 593.1 769 593.1 769 593.1 598 c 2,47,-1
 593.1 121 l 1,48,-1
 710.1 121 l 1,49,-1
 710.1 0 l 1,50,-1
 138.6 0 l 1,0,-1
EndSplineSet
EndChar
StartChar: uni0267
Encoding: 615 615 615
Width: 1408
Flags: W
Fore
131 0 m 1,0,-1
 131 121 l 1,1,-1
 266.9 121 l 1,2,-1
 266.9 1086 l 1,3,-1
 267.8 1086 l 1,4,-1
 267.8 1226 l 2,5,6
 267.8 1389.01 267.8 1389.01 371.75 1472.5 c 0,7,8
 475.706 1556 475.706 1556 678.2 1556 c 0,9,10
 732.2 1556 732.2 1556 793.4 1546 c 0,11,12
 854.6 1536 854.6 1536 920.3 1517 c 1,13,-1
 920.3 1292 l 1,14,-1
 818.6 1292 l 1,15,16
 816.8 1372 816.8 1372 790.25 1407.5 c 0,17,18
 763.7 1443 763.7 1443 704.3 1443 c 0,19,20
 638.6 1443 638.6 1443 612.5 1396 c 0,21,22
 586.4 1348.91 586.4 1348.91 586.4 1226 c 2,23,-1
 586.4 914.479 l 1,24,25
 643.676 1008.33 643.676 1008.33 716.9 1050 c 0,26,27
 790.7 1092 790.7 1092 903.2 1092 c 0,28,29
 1064.3 1092 1064.3 1092 1146.65 986.5 c 0,30,31
 1229 881 1229 881 1229 676 c 2,32,-1
 1229 285 l 1,33,-1
 1229 121 l 1,34,-1
 1229 0 l 1,35,-1
 1229 -125 l 2,36,37
 1229 -288.003 1229 -288.003 1125.05 -371.5 c 0,38,39
 1021.1 -455 1021.1 -455 818.6 -455 c 0,40,41
 764.6 -455 764.6 -455 703.4 -445 c 0,42,43
 642.2 -435 642.2 -435 576.5 -416 c 1,44,-1
 576.5 -191 l 1,45,-1
 678.2 -191 l 1,46,47
 680 -271 680 -271 706.55 -306.5 c 0,48,49
 733.1 -342 733.1 -342 792.5 -342 c 0,50,51
 858.2 -342 858.2 -342 884.3 -295 c 0,52,53
 910.4 -247.91 910.4 -247.91 910.4 -125 c 2,54,-1
 910.4 0 l 1,55,-1
 910.4 121 l 1,56,-1
 910.4 285 l 1,57,-1
 910.4 686 l 2,58,59
 910.4 821 910.4 821 879.35 873.5 c 0,60,61
 848.3 926 848.3 926 771.8 926 c 0,62,63
 675.5 926 675.5 926 630.5 847.5 c 0,64,65
 585.5 769 585.5 769 585.5 598 c 2,66,-1
 585.5 121 l 1,67,-1
 702.5 121 l 1,68,-1
 702.5 0 l 1,69,-1
 131 0 l 1,0,-1
EndSplineSet
EndChar
StartChar: uni0268
Encoding: 616 616 616
Width: 740
Flags: W
Fore
557.35 121 m 1,0,-1
 694.15 121 l 1,1,-1
 694.15 0 l 1,2,-1
 102.85 0 l 1,3,-1
 102.85 121 l 1,4,-1
 238.75 121 l 1,5,-1
 238.75 479 l 1,6,-1
 102.85 479 l 1,7,-1
 102.85 600 l 1,8,-1
 238.75 600 l 1,9,-1
 238.75 942 l 1,10,-1
 102.85 942 l 1,11,-1
 102.85 1063 l 1,12,-1
 557.35 1063 l 1,13,-1
 557.35 600 l 1,14,-1
 694.15 600 l 1,15,-1
 694.15 479 l 1,16,-1
 557.35 479 l 1,17,-1
 557.35 121 l 1,0,-1
209.05 1364 m 0,18,19
 209.05 1445 209.05 1445 259.45 1500.5 c 0,20,21
 309.85 1556 309.85 1556 382.75 1556 c 0,22,23
 453.85 1556 453.85 1556 503.8 1500.5 c 0,24,25
 553.75 1445 553.75 1445 553.75 1364 c 0,26,27
 553.75 1285 553.75 1285 503.8 1229.5 c 0,28,29
 453.85 1174 453.85 1174 382.75 1174 c 0,30,31
 309.85 1174 309.85 1174 259.45 1229 c 0,32,33
 209.05 1284 209.05 1284 209.05 1364 c 0,18,19
EndSplineSet
EndChar
StartChar: uni0269
Encoding: 617 617 617
Width: 740
Flags: W
TeX: 0 0 0 0
Fore
209.05 1364 m 0,0,1
 209.05 1445 209.05 1445 259.45 1500.5 c 128,-1,2
 309.85 1556 309.85 1556 382.75 1556 c 0,3,4
 453.85 1556 453.85 1556 503.8 1500.5 c 128,-1,5
 553.75 1445 553.75 1445 553.75 1364 c 0,6,7
 553.75 1285 553.75 1285 503.8 1229.5 c 128,-1,8
 453.85 1174 453.85 1174 382.75 1174 c 0,9,10
 309.85 1174 309.85 1174 259.45 1229 c 128,-1,11
 209.05 1284 209.05 1284 209.05 1364 c 0,0,1
557.35 121 m 1,12,-1
 694.15 121 l 1,13,-1
 694.15 0 l 1,14,-1
 102.85 0 l 1,15,-1
 102.85 121 l 1,16,-1
 238.75 121 l 1,17,-1
 238.75 942 l 1,18,-1
 102.85 942 l 1,19,-1
 102.85 1063 l 1,20,-1
 557.35 1063 l 1,21,-1
 557.35 121 l 1,12,-1
EndSplineSet
EndChar
StartChar: uni026A
Encoding: 618 618 618
Width: 740
Flags: W
TeX: 0 0 0 0
Fore
238.75 942 m 1,18,-1
102.85 1063 m 1,20,-1
 694.15 1063 l 1,15,-1
 694.15 942 l 1,16,-1
 558.25 942 l 1,21,-1
 557.35 121 l 1,12,-1
 694.15 121 l 1,13,-1
 694.15 0 l 1,14,-1
 102.85 0 l 1,15,-1
 102.85 121 l 1,16,-1
 238.75 121 l 1,17,-1
 238.75 942 l 1,18,-1
 102.85 942 l 1,19,-1
 102.85 1063 l 1,20,-1
EndSplineSet
EndChar
StartChar: uni026B
Encoding: 619 619 619
Width: 795
Flags: W
Fore
594.1 121 m 1,0,-1
 730.9 121 l 1,1,-1
 730.9 0 l 1,2,-1
 139.6 0 l 1,3,-1
 139.6 121 l 1,4,-1
 275.5 121 l 1,5,-1
 275.5 821.736 l 1,6,7
 242.984 818.959 242.984 818.959 222.85 787 c 0,8,9
 200.8 752 200.8 752 200.8 691 c 1,10,-1
 101.8 691 l 1,11,-1
 101.8 707 l 2,12,13
 101.8 853 101.8 853 149.5 928.5 c 0,14,15
 193.629 998.347 193.629 998.347 275.5 1003.58 c 1,16,-1
 275.5 1436 l 1,17,-1
 139.6 1436 l 1,18,-1
 139.6 1556 l 1,19,-1
 594.1 1556 l 1,20,-1
 594.1 876.948 l 1,21,22
 612.19 885.429 612.19 885.429 625.15 906 c 0,23,24
 647.2 941 647.2 941 647.2 1002 c 1,25,-1
 746.2 1002 l 1,26,-1
 746.2 986 l 2,27,28
 746.2 840 746.2 840 698.5 764.5 c 0,29,30
 660.382 704.166 660.382 704.166 594.1 692.046 c 1,31,-1
 594.1 121 l 1,0,-1
EndSplineSet
EndChar
StartChar: uni026C
Encoding: 620 620 620
Width: 1000
Flags: W
TeX: 0 0 0 0
Fore
796.6 121 m 1,0,-1
 933.4 121 l 1,1,-1
 933.4 0 l 1,2,-1
 342.1 0 l 1,3,-1
 342.1 121 l 1,4,-1
 478 121 l 1,5,-1
 478 657 l 1,6,-1
 336.7 657 l 2,7,8
 112.6 659.742 112.6 659.742 112.6 831 c 0,9,10
 112.6 1082 112.6 1082 374.5 1082 c 0,11,12
 433.543 1082 433.543 1082 478 1069.6 c 1,13,-1
 478 1436 l 1,14,-1
 342.1 1436 l 1,15,-1
 342.1 1556 l 1,16,-1
 796.6 1556 l 1,17,-1
 796.6 777 l 1,18,-1
 951.4 777 l 1,19,-1
 951.4 657 l 1,20,-1
 796.6 657 l 1,21,-1
 796.6 121 l 1,0,-1
478 917.535 m 2,22,23
 468.96 991.235 468.96 991.235 369.1 978 c 0,24,25
 244.9 961.537 244.9 961.537 244.9 867 c 0,26,27
 244.9 770.746 244.9 770.746 347.5 777 c 2,28,-1
 478 777 l 1,29,-1
 478 917.535 l 2,22,23
EndSplineSet
EndChar
StartChar: uni026D
Encoding: 621 621 621
Width: 751
Flags: W
Fore
250.65 -0 m 1,0,-1
 249.75 0 l 1,1,-1
 249.75 1436 l 1,2,-1
 113.85 1436 l 1,3,-1
 113.85 1556 l 1,4,-1
 568.35 1556 l 1,5,-1
 569.25 285 l 1,6,-1
 569.25 -125 l 2,7,8
 569.25 -247.91 569.25 -247.91 595.35 -295 c 0,9,10
 621.45 -342 621.45 -342 687.15 -342 c 0,11,12
 746.55 -342 746.55 -342 773.1 -306.5 c 0,13,14
 799.65 -271 799.65 -271 801.45 -191 c 1,15,-1
 903.15 -191 l 1,16,-1
 903.15 -416 l 1,17,18
 837.45 -435 837.45 -435 776.25 -445 c 0,19,20
 715.05 -455 715.05 -455 661.05 -455 c 0,21,22
 458.554 -455 458.554 -455 354.6 -371.5 c 0,23,24
 250.65 -288.003 250.65 -288.003 250.65 -125 c 2,25,-1
 250.65 -0 l 1,0,-1
EndSplineSet
EndChar
StartChar: uni026E
Encoding: 622 622 622
Width: 1407
Flags: W
TeX: 0 0 0 0
Fore
130.65 0 m 1,0,-1
 130.65 121 l 1,1,-1
 266.55 121 l 1,2,-1
 266.55 1436 l 1,3,-1
 124.35 1436 l 1,4,-1
 124.35 1556 l 1,5,-1
 585.15 1556 l 1,6,-1
 585.15 913 l 1,7,8
 642.75 1008 642.75 1008 716.55 1050 c 0,9,10
 790.35 1092 790.35 1092 902.85 1092 c 0,11,12
 1063.95 1092 1063.95 1092 1146.3 986.5 c 0,13,14
 1228.65 881 1228.65 881 1228.65 676 c 2,15,-1
 1228.65 285 l 1,16,-1
 1228.65 0 l 1,17,-1
 1228.65 -125 l 2,18,19
 1228.65 -288.003 1228.65 -288.003 1124.7 -371.5 c 0,20,21
 1020.75 -455 1020.75 -455 818.25 -455 c 0,22,23
 764.25 -455 764.25 -455 703.05 -445 c 0,24,25
 641.85 -435 641.85 -435 576.15 -416 c 1,26,-1
 576.15 -191 l 1,27,-1
 677.85 -191 l 1,28,29
 679.65 -271 679.65 -271 706.2 -306.5 c 0,30,31
 732.75 -342 732.75 -342 792.15 -342 c 0,32,33
 857.85 -342 857.85 -342 883.95 -295 c 0,34,35
 910.05 -247.91 910.05 -247.91 910.05 -125 c 2,36,-1
 910.05 0 l 1,37,-1
 910.05 285 l 1,38,-1
 910.05 686 l 2,39,40
 910.05 821 910.05 821 879 873.5 c 0,41,42
 847.95 926 847.95 926 771.45 926 c 0,43,44
 675.15 926 675.15 926 630.15 847.5 c 0,45,46
 585.15 769 585.15 769 585.15 598 c 2,47,-1
 585.15 121 l 1,48,-1
 702.15 121 l 1,49,-1
 702.15 0 l 1,50,-1
 130.65 0 l 1,0,-1
EndSplineSet
EndChar
StartChar: uni026F
Encoding: 623 623 623
Width: 2057
Flags: W
Fore
938.8 174 m 1,0,1
 872.2 68 872.2 68 794.8 19.5 c 128,-1,2
 717.4 -29 717.4 -29 613.9 -29 c 0,3,4
 449.2 -29 449.2 -29 367.75 74.5 c 128,-1,5
 286.3 178 286.3 178 286.3 387 c 2,6,-1
 286.3 942 l 1,7,-1
 149.5 942 l 1,8,-1
 149.5 1063 l 1,9,-1
 719.2 1063 l 1,10,-1
 719.2 942 l 1,11,-1
 604.9 942 l 1,12,-1
 604.9 440 l 2,13,14
 604.9 241 604.9 241 632.35 189 c 128,-1,15
 659.8 137 659.8 137 734.5 137 c 0,16,17
 819.1 137 819.1 137 865.9 209.5 c 128,-1,18
 912.7 282 912.7 282 912.7 416 c 2,19,-1
 912.7 942 l 1,20,-1
 798.4 942 l 1,21,-1
 798.4 1063 l 1,22,-1
 1345.6 1063 l 1,23,-1
 1345.6 942 l 1,24,-1
 1231.3 942 l 1,25,-1
 1231.3 440 l 2,26,27
 1231.3 241 1231.3 241 1259.2 189 c 128,-1,28
 1287.1 137 1287.1 137 1360.9 137 c 0,29,30
 1446.4 137 1446.4 137 1493.2 209.5 c 128,-1,31
 1540 282 1540 282 1540 416 c 2,32,-1
 1540 942 l 1,33,-1
 1425.7 942 l 1,34,-1
 1425.7 1063 l 1,35,-1
 1994.5 1063 l 1,36,-1
 1994.5 942 l 1,37,-1
 1858.6 942 l 1,38,-1
 1858.6 121 l 1,39,-1
 1994.5 121 l 1,40,-1
 1994.5 0 l 1,41,-1
 1540 0 l 1,42,-1
 1540 150 l 1,43,44
 1484.2 57 1484.2 57 1412.2 14 c 128,-1,45
 1340.2 -29 1340.2 -29 1241.2 -29 c 0,46,47
 1124.2 -29 1124.2 -29 1051.3 20.5 c 128,-1,48
 978.4 70 978.4 70 938.8 174 c 1,0,1
EndSplineSet
EndChar
StartChar: uni0270
Encoding: 624 624 624
Width: 2057
Flags: W
Fore
938.8 174 m 1,0,1
 872.2 68 872.2 68 794.8 19.5 c 128,-1,2
 717.4 -29 717.4 -29 613.9 -29 c 0,3,4
 449.2 -29 449.2 -29 367.75 74.5 c 128,-1,5
 286.3 178 286.3 178 286.3 387 c 2,6,-1
 286.3 942 l 1,7,-1
 149.5 942 l 1,8,-1
 149.5 1063 l 1,9,-1
 719.2 1063 l 1,10,-1
 719.2 942 l 1,11,-1
 604.9 942 l 1,12,-1
 604.9 440 l 2,13,14
 604.9 241 604.9 241 632.35 189 c 128,-1,15
 659.8 137 659.8 137 734.5 137 c 0,16,17
 819.1 137 819.1 137 865.9 209.5 c 128,-1,18
 912.7 282 912.7 282 912.7 416 c 2,19,-1
 912.7 942 l 1,20,-1
 798.4 942 l 1,21,-1
 798.4 1063 l 1,22,-1
 1345.6 1063 l 1,23,-1
 1345.6 942 l 1,24,-1
 1231.3 942 l 1,25,-1
 1231.3 440 l 2,26,27
 1231.3 241 1231.3 241 1259.2 189 c 128,-1,28
 1287.1 137 1287.1 137 1360.9 137 c 0,29,30
 1446.4 137 1446.4 137 1493.2 209.5 c 128,-1,31
 1540 282 1540 282 1540 416 c 2,32,-1
 1540 942 l 1,33,-1
 1425.7 942 l 1,34,-1
 1425.7 1063 l 1,35,-1
 1994.5 1063 l 1,36,-1
 1994.5 942 l 1,37,-1
 1858.6 942 l 1,38,-1
 1858.6 -305 l 1,39,-1
 1994.5 -305 l 1,40,-1
 1994.5 -426 l 1,41,-1
 1540 -426 l 1,42,-1
 1540 150 l 1,43,44
 1484.2 57 1484.2 57 1412.2 14 c 128,-1,45
 1340.2 -29 1340.2 -29 1241.2 -29 c 0,46,47
 1124.2 -29 1124.2 -29 1051.3 20.5 c 128,-1,48
 978.4 70 978.4 70 938.8 174 c 1,0,1
EndSplineSet
EndChar
StartChar: uni0271
Encoding: 625 625 625
Width: 2052
Flags: W
Fore
1220.6 889 m 1,0,1
 1287.2 995 1287.2 995 1364.6 1043.5 c 0,2,3
 1442 1092 1442 1092 1545.5 1092 c 0,4,5
 1710.2 1092 1710.2 1092 1791.65 988.5 c 0,6,7
 1873.1 885 1873.1 885 1873.1 676 c 2,8,-1
 1873.1 285 l 1,9,-1
 1873.1 0 l 1,10,-1
 1873.1 -125 l 2,11,12
 1873.1 -288.003 1873.1 -288.003 1769.15 -371.5 c 0,13,14
 1665.2 -455 1665.2 -455 1462.7 -455 c 0,15,16
 1408.7 -455 1408.7 -455 1347.5 -445 c 0,17,18
 1286.3 -435 1286.3 -435 1220.6 -416 c 1,19,-1
 1220.6 -191 l 1,20,-1
 1322.3 -191 l 1,21,22
 1324.1 -271 1324.1 -271 1350.65 -306.5 c 0,23,24
 1377.2 -342 1377.2 -342 1436.6 -342 c 0,25,26
 1502.3 -342 1502.3 -342 1528.4 -295 c 0,27,28
 1554.5 -247.91 1554.5 -247.91 1554.5 -125 c 2,29,-1
 1554.5 0 l 1,30,-1
 1554.5 285 l 1,31,-1
 1554.5 623 l 2,32,33
 1554.5 822 1554.5 822 1527.05 874 c 0,34,35
 1499.6 926 1499.6 926 1424.9 926 c 0,36,37
 1340.3 926 1340.3 926 1293.5 853.5 c 0,38,39
 1246.7 781 1246.7 781 1246.7 647 c 2,40,-1
 1246.7 121 l 1,41,-1
 1361 121 l 1,42,-1
 1361 0 l 1,43,-1
 813.8 0 l 1,44,-1
 813.8 121 l 1,45,-1
 928.1 121 l 1,46,-1
 928.1 623 l 2,47,48
 928.1 822 928.1 822 900.2 874 c 0,49,50
 872.3 926 872.3 926 798.5 926 c 0,51,52
 713 926 713 926 666.2 853.5 c 0,53,54
 619.4 781 619.4 781 619.4 647 c 2,55,-1
 619.4 121 l 1,56,-1
 733.7 121 l 1,57,-1
 733.7 0 l 1,58,-1
 164.9 0 l 1,59,-1
 164.9 121 l 1,60,-1
 300.8 121 l 1,61,-1
 300.8 942 l 1,62,-1
 164.9 942 l 1,63,-1
 164.9 1063 l 1,64,-1
 619.4 1063 l 1,65,-1
 619.4 913 l 1,66,67
 675.2 1006 675.2 1006 747.2 1049 c 0,68,69
 819.2 1092 819.2 1092 918.2 1092 c 0,70,71
 1035.2 1092 1035.2 1092 1108.1 1042.5 c 0,72,73
 1181 993 1181 993 1220.6 889 c 1,0,1
EndSplineSet
EndChar
StartChar: uni0272
Encoding: 626 626 626
Width: 1404
Flags: W
Fore
263.45 942 m 1,0,-1
 127.55 942 l 1,1,-1
 127.55 1063 l 1,2,-1
 582.05 1063 l 1,3,-1
 582.05 913 l 1,4,5
 639.65 1008 639.65 1008 713.45 1050 c 0,6,7
 787.25 1092 787.25 1092 899.75 1092 c 0,8,9
 1060.85 1092 1060.85 1092 1143.2 986.5 c 0,10,11
 1225.55 881 1225.55 881 1225.55 676 c 2,12,-1
 1225.55 121 l 1,13,-1
 1362.35 121 l 1,14,-1
 1362.35 0 l 1,15,-1
 790.85 0 l 1,16,-1
 790.85 121 l 1,17,-1
 906.95 121 l 1,18,-1
 906.95 686 l 2,19,20
 906.95 821 906.95 821 875.9 873.5 c 0,21,22
 844.85 926 844.85 926 768.35 926 c 0,23,24
 672.05 926 672.05 926 627.05 847.5 c 0,25,26
 582.05 769 582.05 769 582.05 598 c 2,27,-1
 582.05 0 l 1,28,-1
 581.15 0 l 1,29,-1
 581.15 -125 l 2,30,31
 581.15 -288.003 581.15 -288.003 477.2 -371.5 c 0,32,33
 373.246 -455 373.246 -455 170.75 -455 c 0,34,35
 116.75 -455 116.75 -455 55.5498 -445 c 0,36,37
 -5.65039 -435 -5.65039 -435 -71.3496 -416 c 1,38,-1
 -71.3496 -191 l 1,39,-1
 30.3496 -191 l 1,40,41
 32.1504 -271 32.1504 -271 58.7002 -306.5 c 0,42,43
 85.25 -342 85.25 -342 144.65 -342 c 0,44,45
 210.35 -342 210.35 -342 236.45 -295 c 0,46,47
 262.55 -247.91 262.55 -247.91 262.55 -125 c 2,48,-1
 262.55 285 l 1,49,-1
 263.45 942 l 1,0,-1
EndSplineSet
EndChar
StartChar: uni0273
Encoding: 627 627 627
Width: 1426
Flags: W
Fore
149.45 0 m 1,0,-1
 149.45 121 l 1,1,-1
 285.35 121 l 1,2,-1
 285.35 942 l 1,3,-1
 149.45 942 l 1,4,-1
 149.45 1063 l 1,5,-1
 603.95 1063 l 1,6,-1
 603.95 913 l 1,7,8
 661.55 1008 661.55 1008 735.35 1050 c 0,9,10
 809.15 1092 809.15 1092 921.65 1092 c 0,11,12
 1082.75 1092 1082.75 1092 1165.1 986.5 c 0,13,14
 1247.45 881 1247.45 881 1247.45 676 c 2,15,-1
 1247.45 0 l 1,16,-1
 1245.65 0 l 1,17,-1
 1245.65 -125 l 2,18,19
 1245.65 -247.91 1245.65 -247.91 1271.75 -295 c 0,20,21
 1297.85 -342 1297.85 -342 1363.55 -342 c 0,22,23
 1422.95 -342 1422.95 -342 1449.5 -306.5 c 0,24,25
 1476.05 -271 1476.05 -271 1477.85 -191 c 1,26,-1
 1579.55 -191 l 1,27,-1
 1579.55 -416 l 1,28,29
 1513.85 -435 1513.85 -435 1452.65 -445 c 0,30,31
 1391.45 -455 1391.45 -455 1337.45 -455 c 0,32,33
 1134.95 -455 1134.95 -455 1031 -371.5 c 0,34,35
 927.05 -288.003 927.05 -288.003 927.05 -125 c 2,36,37
 927.158 234.626 l 2,38,39
 927.779 261.108 927.779 261.108 928.85 285 c 2,40,-1
 928.85 686 l 2,41,42
 928.85 821 928.85 821 897.8 873.5 c 0,43,44
 866.75 926 866.75 926 790.25 926 c 0,45,46
 693.95 926 693.95 926 648.95 847.5 c 0,47,48
 603.95 769 603.95 769 603.95 598 c 2,49,-1
 603.95 121 l 1,50,-1
 720.95 121 l 1,51,-1
 720.95 0 l 1,52,-1
 149.45 0 l 1,0,-1
EndSplineSet
EndChar
StartChar: uni0274
Encoding: 628 628 628
Width: 1386
Flags: W
TeX: 0 0 0 0
Fore
188.8 0 m 1,0,-1
 188.8 122 l 1,1,-1
 312.1 122 l 1,2,-1
 312.1 942 l 1,3,-1
 188.8 942 l 1,4,-1
 188.8 1067 l 1,5,-1
 489.4 1067 l 1,6,-1
 1039.3 443 l 1,7,-1
 1039.3 942 l 1,8,-1
 946.6 942 l 1,9,-1
 946.6 1067 l 1,10,-1
 1283.2 1067 l 1,11,-1
 1283.2 942 l 1,12,-1
 1159.9 942 l 1,13,-1
 1159.9 0 l 1,14,-1
 991.6 0 l 1,15,-1
 431.8 639 l 1,16,-1
 431.8 122 l 1,17,-1
 524.5 122 l 1,18,-1
 524.5 0 l 1,19,-1
 188.8 0 l 1,0,-1
EndSplineSet
EndChar
StartChar: uni0275
Encoding: 629 629 629
Width: 1297
Flags: W
Fore
684 -29 m 0,0,1
 431.1 -29 431.1 -29 287.55 120.5 c 0,2,3
 144 270 144 270 144 532 c 0,4,5
 144 795 144 795 287.55 943.5 c 0,6,7
 431.1 1092 431.1 1092 684 1092 c 0,8,9
 937.8 1092 937.8 1092 1080.9 943.5 c 0,10,11
 1224 795 1224 795 1224 532 c 0,12,13
 1224 270 1224 270 1080.45 120.5 c 0,14,15
 936.9 -29 936.9 -29 684 -29 c 0,0,1
684 84 m 0,16,17
 784.8 84 784.8 84 825.75 180 c 0,18,19
 862.314 265.718 862.314 265.718 866.23 479 c 1,20,-1
 499.982 479 l 1,21,22
 503.969 267.531 503.969 267.531 540.9 181 c 0,23,24
 582.3 84 582.3 84 684 84 c 0,16,17
500.311 600 m 1,25,-1
 865.919 600 l 1,26,27
 861.076 801.261 861.076 801.261 826.2 883.5 c 0,28,29
 785.7 979 785.7 979 684 979 c 0,30,31
 582.3 979 582.3 979 540.9 882.5 c 0,32,33
 505.293 799.503 505.293 799.503 500.311 600 c 1,25,-1
EndSplineSet
EndChar
StartChar: uni0276
Encoding: 630 630 630
Width: 2065
Flags: W
TeX: 0 0 0 0
Fore
1034.5 86.5146 m 1,0,-1
 1034.5 980.98 l 1,1,-1
 920.2 980.98 l 2,2,3
 844.916 980.98 844.916 980.98 769.9 924 c 128,-1,4
 602.5 796.847 602.5 796.847 602.5 534.82 c 0,5,6
 602.5 290.392 602.5 290.392 759.1 144 c 128,-1,7
 820.594 86.5146 820.594 86.5146 920.2 86.5146 c 2,8,-1
 1034.5 86.5146 l 1,0,-1
1961.5 0 m 1,9,-1
 1039 0 l 2,10,11
 852.7 0 852.7 0 730.75 18.5898 c 128,-1,12
 608.8 37.1797 608.8 37.1797 517.9 77.9346 c 1,13,14
 376.6 139.425 376.6 139.425 300.55 258.115 c 128,-1,15
 224.5 376.805 224.5 376.805 224.5 534.82 c 0,16,17
 224.5 692.12 224.5 692.12 300.55 809.737 c 128,-1,18
 376.6 927.355 376.6 927.355 517.9 989.56 c 1,19,20
 607.9 1031.03 607.9 1031.03 728.5 1049.26 c 128,-1,21
 849.103 1067.5 849.103 1067.5 1039 1067.5 c 2,22,-1
 1945.3 1067.5 l 1,23,-1
 1945.3 815.814 l 1,24,-1
 1822 815.814 l 1,25,-1
 1822 969.54 l 1,26,-1
 1382.8 969.54 l 1,27,-1
 1382.8 627.055 l 1,28,-1
 1607.8 627.055 l 1,29,-1
 1607.8 762.905 l 1,30,-1
 1731.1 762.905 l 1,31,-1
 1731.1 393.965 l 1,32,-1
 1607.8 393.965 l 1,33,-1
 1607.8 529.815 l 1,34,-1
 1382.8 529.815 l 1,35,-1
 1382.8 97.9551 l 1,36,-1
 1838.2 97.9551 l 1,37,-1
 1838.2 251.68 l 1,38,-1
 1961.5 251.68 l 1,39,-1
 1961.5 0 l 1,9,-1
EndSplineSet
EndChar
StartChar: uni0277
Encoding: 631 631 631
Width: 1456
Flags: W
TeX: 0 0 0 0
Fore
873.862 529 m 17,0,0
 873.862 489 l 2,32,33
 873.862 369 873.862 369 909.052 263 c 128,-1,34
 973.223 66 973.223 66 1000.65 66 c 0,35,36
 1082.64 65.9951 1082.64 65.9951 1080.75 430 c 0,3,4
 1079.85 603 1079.85 603 1030.35 772 c 1,0,0
 947.55 969 947.55 969 761.25 973 c 0,0,0
 581.25 977 581.25 977 494.85 772 c 1,0,0
 445.35 603 445.35 603 444.45 430 c 0,3,4
 444.45 66 444.45 66 524.55 66 c 0,35,36
 550.748 66 550.748 66 616.147 263 c 128,-1,34
 651.338 369 651.338 369 651.338 489 c 2,32,33
 651.338 529 l 1,31,-1
 873.862 529 l 17,0,0
760.98 272 m 1,9,10
 735.06 130 735.06 130 658.38 50 c 128,-1,8
 581.7 -29 581.7 -29 470.46 -29 c 0,6,7
 318.18 -29 318.18 -29 235.02 83 c 128,-1,5
 151.86 194 151.86 194 151.86 400 c 0,3,4
 151.86 479 151.86 479 172.38 560 c 128,-1,2
 198.3 666 198.3 666 231.78 727 c 0,0,0
 428.339 1085 428.339 1085 760.98 1085 c 0,0,0
 1096.86 1085 1096.86 1085 1293.42 727 c 0,0,0
 1326.9 666 1326.9 666 1352.82 560 c 128,-1,2
 1373.34 479 1373.34 479 1373.34 400 c 0,3,4
 1373.34 194 1373.34 194 1290.18 83 c 128,-1,5
 1207.02 -29 1207.02 -29 1054.74 -29 c 0,6,7
 943.5 -29 943.5 -29 866.819 50 c 128,-1,8
 790.139 130 790.139 130 760.98 272 c 1,9,10
EndSplineSet
EndChar
StartChar: uni0278
Encoding: 632 632 632
Width: 1297
Flags: W
TeX: 0 0 0 0
Fore
384.3 1556 m 1,0,-1
 975.6 1556 l 1,1,-1
 975.6 1435 l 1,2,-1
 799.763 1435 l 1,3,-1
 799.628 1085.61 l 1,4,5
 1010.02 1061.19 1010.02 1061.19 1140.43 943.5 c 0,6,7
 1305 795 1305 795 1305 532 c 0,8,9
 1305 270 1305 270 1139.92 120.5 c 0,10,11
 1009.06 1.99805 1009.06 1.99805 799.2 -22.5723 c 1,12,-1
 799.088 -315 l 1,13,-1
 975.6 -315 l 1,14,-1
 975.6 -436 l 1,15,-1
 384.3 -436 l 1,16,-1
 384.3 -315 l 1,17,-1
 560.138 -315 l 1,18,-1
 560.138 -21.5146 l 1,19,20
 356.225 4.45312 356.225 4.45312 228.082 120.5 c 0,21,22
 63 270 63 270 63 532 c 0,23,24
 63 795 63 795 228.082 943.5 c 0,25,26
 356.225 1058.77 356.225 1058.77 560.138 1084.56 c 1,27,-1
 560.138 1435 l 1,28,-1
 384.3 1435 l 1,29,-1
 384.3 1556 l 1,0,-1
560.138 113.457 m 1,30,-1
 560.138 949.695 l 1,31,32
 519.485 925.822 519.485 925.822 494.906 882.5 c 0,33,34
 440.154 785.998 440.154 785.998 440.154 532 c 0,35,36
 440.154 278.002 440.154 278.002 494.906 181 c 0,37,38
 519.485 137.454 519.485 137.454 560.138 113.457 c 1,30,-1
799.577 954.532 m 1,39,-1
 799.251 108.817 l 1,40,41
 844.997 132.81 844.997 132.81 871.619 180 c 0,42,43
 925.776 276 925.776 276 925.777 532 c 0,44,45
 925.777 788 925.777 788 872.215 883.5 c 0,46,47
 845.765 930.661 845.765 930.661 799.577 954.532 c 1,39,-1
EndSplineSet
EndChar
StartChar: uni0279
Encoding: 633 633 633
Width: 1110
Flags: W
Fore
111.05 -12 m 1,0,-1
 111.05 305 l 1,1,-1
 212.75 305 l 1,2,3
 218.15 220 218.15 220 254.15 178.5 c 128,-1,4
 290.15 137 290.15 137 358.55 137 c 0,5,6
 462.95 137 462.95 137 523.25 239 c 128,-1,7
 583.55 341 583.55 341 583.55 522 c 2,8,-1
 583.55 942 l 1,9,-1
 409.85 942 l 1,10,-1
 409.85 1063 l 1,11,-1
 1038.05 1063 l 1,12,-1
 1038.05 942 l 1,13,-1
 902.15 942 l 1,14,-1
 902.15 121 l 1,15,-1
 1047.95 121 l 1,16,-1
 1047.95 0 l 1,17,-1
 583.55 0 l 1,18,-1
 583.55 189 l 1,19,20
 536.75 78 536.75 78 459.8 24.5 c 128,-1,21
 382.85 -29 382.85 -29 271.25 -29 c 0,22,23
 243.35 -29 243.35 -29 203.3 -24.5 c 128,-1,24
 163.25 -20 163.25 -20 111.05 -12 c 1,0,-1
EndSplineSet
EndChar
StartChar: uni027A
Encoding: 634 634 634
Width: 1110
Flags: W
Fore
111.05 -12 m 1,0,-1
 111.05 305 l 1,1,-1
 212.75 305 l 1,2,3
 218.15 220 218.15 220 254.15 178.5 c 128,-1,4
 290.15 137 290.15 137 358.55 137 c 0,5,6
 462.95 137 462.95 137 523.25 239 c 128,-1,7
 583.55 343.047 583.55 343.047 583.55 522 c 2,8,-1
 583.55 1436 l 1,9,-1
 409.85 1436 l 1,10,-1
 409.85 1557 l 1,11,-1
 1038.05 1557 l 1,12,-1
 1038.05 1436 l 1,13,-1
 902.15 1436 l 1,14,-1
 902.15 121 l 1,15,-1
 1047.95 121 l 1,16,-1
 1047.95 0 l 1,17,-1
 583.55 0 l 1,18,-1
 583.55 189 l 1,19,20
 536.75 78 536.75 78 459.8 24.5 c 128,-1,21
 382.85 -29 382.85 -29 271.25 -29 c 0,22,23
 243.35 -29 243.35 -29 203.3 -24.5 c 128,-1,24
 163.25 -20 163.25 -20 111.05 -12 c 1,0,-1
EndSplineSet
EndChar
StartChar: uni027B
Encoding: 635 635 635
Width: 1121
Flags: W
Fore
121.55 -12 m 1,0,-1
 121.55 305 l 1,1,-1
 223.25 305 l 1,2,3
 228.65 220 228.65 220 264.65 178.5 c 0,4,5
 300.65 137 300.65 137 369.05 137 c 0,6,7
 473.45 137 473.45 137 533.75 239 c 0,8,9
 594.05 341 594.05 341 594.05 522 c 2,10,-1
 594.05 942 l 1,11,-1
 420.35 942 l 1,12,-1
 420.35 1063 l 1,13,-1
 1048.55 1063 l 1,14,-1
 1048.55 942 l 1,15,-1
 912.65 942 l 1,16,-1
 913.55 -125 l 2,17,18
 913.55 -247.91 913.55 -247.91 939.65 -295 c 0,19,20
 965.75 -342 965.75 -342 1031.45 -342 c 0,21,22
 1090.85 -342 1090.85 -342 1117.4 -306.5 c 0,23,24
 1143.95 -271 1143.95 -271 1145.75 -191 c 1,25,-1
 1247.45 -191 l 1,26,-1
 1247.45 -416 l 1,27,28
 1181.75 -435 1181.75 -435 1120.55 -445 c 0,29,30
 1059.35 -455 1059.35 -455 1005.35 -455 c 0,31,32
 802.854 -455 802.854 -455 698.9 -371.5 c 0,33,34
 594.95 -288.003 594.95 -288.003 594.95 -125 c 2,35,-1
 594.95 -0 l 1,36,-1
 594.05 0 l 1,37,-1
 594.05 189 l 1,38,39
 547.25 78 547.25 78 470.3 24.5 c 0,40,41
 393.35 -29 393.35 -29 281.75 -29 c 0,42,43
 253.85 -29 253.85 -29 213.8 -24.5 c 0,44,45
 173.75 -20 173.75 -20 121.55 -12 c 1,0,-1
EndSplineSet
EndChar
StartChar: uni027C
Encoding: 636 636 636
Width: 1029
Flags: W
Fore
1047.95 1075 m 1,0,-1
 1047.95 758 l 1,1,-1
 946.25 758 l 1,2,3
 940.85 843 940.85 843 904.85 884.5 c 128,-1,4
 868.85 926 868.85 926 800.45 926 c 0,5,6
 696.05 926 696.05 926 635.75 824 c 128,-1,7
 575.45 719.953 575.45 719.953 575.45 541 c 2,8,-1
 575.45 -303 l 1,9,-1
 749.15 -303 l 1,10,-1
 749.15 -424 l 1,11,-1
 120.95 -424 l 1,12,-1
 120.95 -303 l 1,13,-1
 256.85 -303 l 1,14,-1
 256.85 942 l 1,15,-1
 111.05 942 l 1,16,-1
 111.05 1063 l 1,17,-1
 575.45 1063 l 1,18,-1
 575.45 874 l 1,19,20
 622.25 985 622.25 985 699.2 1038.5 c 128,-1,21
 776.15 1092 776.15 1092 887.75 1092 c 0,22,23
 915.65 1092 915.65 1092 955.7 1087.5 c 128,-1,24
 995.75 1083 995.75 1083 1047.95 1075 c 1,0,-1
EndSplineSet
EndChar
StartChar: uni027D
Encoding: 637 637 637
Width: 1029
Flags: W
Fore
1047.95 1075 m 1,0,-1
 1047.95 758 l 1,1,-1
 946.25 758 l 1,2,3
 940.85 843 940.85 843 904.85 884.5 c 0,4,5
 868.85 926 868.85 926 800.45 926 c 0,6,7
 696.05 926 696.05 926 635.75 824 c 0,8,9
 575.45 722 575.45 722 575.45 541 c 2,10,-1
 575.45 0 l 1,11,-1
 575.45 -125 l 2,12,13
 575.45 -247.91 575.45 -247.91 601.55 -295 c 0,14,15
 627.65 -342 627.65 -342 693.35 -342 c 0,16,17
 752.75 -342 752.75 -342 779.3 -306.5 c 0,18,19
 805.85 -271 805.85 -271 807.65 -191 c 1,20,-1
 909.35 -191 l 1,21,-1
 909.35 -416 l 1,22,23
 843.65 -435 843.65 -435 782.45 -445 c 0,24,25
 721.25 -455 721.25 -455 667.25 -455 c 0,26,27
 464.754 -455 464.754 -455 360.8 -371.5 c 0,28,29
 256.85 -288.003 256.85 -288.003 256.85 -125 c 2,30,-1
 256.85 0 l 1,31,-1
 256.85 942 l 1,32,-1
 111.05 942 l 1,33,-1
 111.05 1063 l 1,34,-1
 575.45 1063 l 1,35,-1
 575.45 874 l 1,36,37
 622.25 985 622.25 985 699.2 1038.5 c 0,38,39
 776.15 1092 776.15 1092 887.75 1092 c 0,40,41
 915.65 1092 915.65 1092 955.7 1087.5 c 0,42,43
 995.75 1083 995.75 1083 1047.95 1075 c 1,0,-1
EndSplineSet
EndChar
StartChar: uni027E
Encoding: 638 638 638
Width: 883
Flags: W
Fore
568.3 121 m 17,20,21
 742 121 l 1,10,-1
 742 0 l 1,11,-1
 113.8 0 l 1,12,-1
 113.8 121 l 1,13,-1
 249.7 121 l 9,0,0
 249.7 762 l 2,16,17
 249.7 925.01 249.7 925.01 353.65 1008.5 c 128,-1,18
 457.6 1092 457.6 1092 660.1 1092 c 0,19,20
 714.1 1092 714.1 1092 775.3 1082 c 128,-1,21
 836.5 1072 836.5 1072 902.2 1053 c 1,22,-1
 902.2 828 l 1,23,-1
 800.5 828 l 1,24,25
 798.7 908 798.7 908 772.15 943.5 c 128,-1,26
 745.6 979 745.6 979 686.2 979 c 0,27,28
 620.5 979 620.5 979 594.4 932 c 128,-1,29
 568.3 882.832 568.3 882.832 568.3 762 c 2,30,-1
 568.3 121 l 17,20,21
EndSplineSet
EndChar
StartChar: uni027F
Encoding: 639 639 639
Width: 948
Flags: W
Fore
447.7 121 m 9,20,21
 447.7 762 l 2,30,-1
 447.7 882.832 447.7 882.832 421.6 932 c 128,-1,29
 395.5 979 395.5 979 329.8 979 c 0,27,28
 270.4 979 270.4 979 243.85 943.5 c 128,-1,26
 217.3 908 217.3 908 215.5 828 c 1,24,25
 113.8 828 l 1,23,-1
 113.8 1053 l 1,22,-1
 179.5 1072 179.5 1072 240.7 1082 c 128,-1,21
 301.9 1092 301.9 1092 355.9 1092 c 0,19,20
 558.4 1092 558.4 1092 662.35 1008.5 c 128,-1,18
 766.3 925.01 766.3 925.01 766.3 762 c 2,16,17
 766.3 121 l 17,0,0
 902.2 121 l 1,13,-1
 902.2 0 l 1,12,-1
 274 0 l 1,11,-1
 274 121 l 1,10,-1
 447.7 121 l 9,20,21
EndSplineSet
EndChar
StartChar: uni0280
Encoding: 640 640 640
Width: 1558
Flags: W
Fore
967.35 519 m 1,0,1
 1041.6 510 1041.6 510 1091.55 477 c 0,2,3
 1142.36 444.314 1142.36 444.314 1179.75 382 c 1,4,-1
 1328.25 86 l 1,5,-1
 1455.15 86 l 1,6,-1
 1455.15 0 l 1,7,-1
 1047.45 0 l 1,8,-1
 882.75 321 l 1,9,10
 830.33 411.753 830.33 411.753 818.945 426.132 c 0,11,12
 807.533 440.544 807.533 440.544 796.35 448 c 0,13,14
 765.697 469.14 765.697 469.14 753.54 472.297 c 0,15,16
 739.282 476 739.282 476 715.35 476 c 2,17,-1
 664.95 476 l 1,18,-1
 664.95 86 l 1,19,-1
 824.25 86 l 1,20,-1
 824.25 0 l 1,21,-1
 197.85 0 l 1,22,-1
 197.85 86 l 1,23,-1
 356.25 86 l 1,24,-1
 356.25 977 l 1,25,-1
 197.85 977 l 1,26,-1
 197.85 1063 l 1,27,-1
 852.15 1063 l 2,28,29
 1015.21 1063 1015.21 1063 1117.6 1009.71 c 0,30,31
 1135.2 1000.55 1135.2 1000.55 1153.65 989 c 0,32,33
 1271.55 913.713 1271.55 913.713 1271.55 777 c 0,34,35
 1271.55 666.5 1271.55 666.5 1187.85 602 c 0,36,37
 1116.37 546.919 1116.37 546.919 1033.63 529.256 c 0,38,39
 1003.81 522.889 1003.81 522.889 967.35 519 c 1,0,1
664.95 561 m 1,28,-1
 773.85 561 l 2,29,30
 840.316 561 840.316 561 876.8 587.262 c 1,31,32
 910.65 615 l 1,33,34
 972.75 669 972.75 669 972.75 770 c 0,35,36
 972.75 870.5 972.75 870.5 910.65 923 c 0,37,38
 868.13 959.188 868.13 959.188 846.751 967.125 c 0,39,40
 820.155 977 820.155 977 773.85 977 c 2,41,-1
 664.95 977 l 1,42,-1
 664.95 561 l 1,28,-1
EndSplineSet
EndChar
StartChar: uni0281
Encoding: 641 641 641
Width: 1558
Flags: W
Fore
967.35 544 m 1,0,1
 1003.81 540.111 1003.81 540.111 1033.63 533.744 c 0,38,39
 1116.37 516.081 1116.37 516.081 1187.85 461 c 0,36,37
 1271.55 396.5 1271.55 396.5 1271.55 286 c 0,34,35
 1271.55 149.287 1271.55 149.287 1153.65 74 c 0,32,33
 1135.2 62.4502 1135.2 62.4502 1117.6 53.29 c 0,30,31
 1015.21 0 1015.21 0 852.15 0 c 2,28,29
 197.85 0 l 1,27,-1
 197.85 86 l 1,26,-1
 356.25 86 l 1,25,-1
 356.25 977 l 1,24,-1
 197.85 977 l 1,23,-1
 197.85 1063 l 1,22,-1
 824.25 1063 l 1,21,-1
 824.25 977 l 1,20,-1
 664.95 977 l 1,19,-1
 664.95 587 l 1,18,-1
 715.35 587 l 2,17,-1
 739.282 587 739.282 587 753.54 590.703 c 0,15,16
 765.697 593.86 765.697 593.86 796.35 615 c 0,13,14
 807.533 622.456 807.533 622.456 818.945 636.868 c 0,11,12
 830.33 651.247 830.33 651.247 882.75 742 c 1,9,10
 1047.45 1063 l 1,8,-1
 1455.15 1063 l 1,7,-1
 1455.15 977 l 1,6,-1
 1328.25 977 l 1,5,-1
 1179.75 681 l 1,4,-1
 1142.36 618.686 1142.36 618.686 1091.55 586 c 0,2,3
 1041.6 553 1041.6 553 967.35 544 c 1,0,1
664.95 502 m 1,28,-1
 664.95 86 l 1,42,-1
 773.85 86 l 2,41,-1
 820.155 86 820.155 86 846.751 95.875 c 0,39,40
 868.13 103.812 868.13 103.812 910.65 140 c 0,37,38
 972.75 192.5 972.75 192.5 972.75 293 c 0,35,36
 972.75 394 972.75 394 910.65 448 c 1,33,34
 876.8 475.738 l 1,31,32
 840.316 502 840.316 502 773.85 502 c 2,29,30
 664.95 502 l 1,28,-1
EndSplineSet
EndChar
StartChar: uni0282
Encoding: 642 642 642
Width: 1095
Flags: W
TeX: 0 0 0 0
Fore
144.25 31 m 1,0,-1
 144.25 285 l 1,1,-1
 144.25 328 l 1,2,-1
 245.95 328 l 1,3,4
 258.55 209 258.55 209 326.05 146.5 c 0,5,6
 393.55 84 393.55 84 509.65 84 c 0,7,8
 606.85 84 606.85 84 658.6 121.5 c 0,9,10
 710.35 159 710.35 159 710.35 229 c 0,11,12
 710.35 293 710.35 293 677.5 328 c 0,13,14
 644.65 363 644.65 363 550.15 389 c 2,15,-1
 418.75 426 l 2,16,17
 269.311 468.08 269.311 468.08 203.65 543.5 c 0,18,19
 137.05 620 137.05 620 137.05 750 c 0,20,21
 137.05 923 137.05 923 245.05 1007.5 c 0,22,23
 353.05 1092 353.05 1092 578.05 1092 c 0,24,25
 662.65 1092 662.65 1092 758.5 1076.5 c 0,26,27
 854.35 1061 854.35 1061 970.45 1028 c 1,28,-1
 970.45 760 l 1,29,-1
 868.75 760 l 1,30,31
 860.65 869 860.65 869 799 924 c 0,32,33
 737.35 979 737.35 979 622.15 979 c 0,34,35
 524.95 979 524.95 979 475 944.5 c 0,36,37
 425.05 910 425.05 910 425.05 844 c 0,38,39
 425.05 790 425.05 790 453.85 759 c 0,40,41
 482.424 728.243 482.424 728.243 557.35 707 c 2,42,-1
 687.85 670 l 2,43,44
 876.364 616.552 876.364 616.552 947.95 539 c 0,45,46
 1019.95 461 1019.95 461 1019.95 322 c 0,47,48
 1019.95 142 1019.95 142 904.3 56.5 c 0,49,50
 788.65 -29 788.65 -29 544.75 -29 c 0,51,52
 504.881 -29 504.881 -29 462.85 -25.9971 c 1,53,-1
 462.85 -125 l 2,54,55
 462.85 -247.907 462.85 -247.907 488.95 -295 c 0,56,57
 515.05 -342 515.05 -342 580.75 -342 c 0,58,59
 640.15 -342 640.15 -342 666.7 -306.5 c 0,60,61
 693.25 -271 693.25 -271 695.05 -191 c 1,62,-1
 796.75 -191 l 1,63,-1
 796.75 -416 l 1,64,65
 731.05 -435 731.05 -435 669.85 -445 c 0,66,67
 608.65 -455 608.65 -455 554.65 -455 c 0,68,69
 352.153 -455 352.153 -455 248.2 -371.5 c 0,70,71
 144.25 -288.003 144.25 -288.003 144.25 -125 c 2,72,-1
 144.25 31 l 1,0,-1
EndSplineSet
EndChar
StartChar: uni0283
Encoding: 643 643 643
Width: 642
Flags: W
Fore
48 1196 m 2,22,23
 24.0723 1370.99 24.0723 1370.99 149.7 1464.5 c 128,-1,24
 251.4 1556 251.4 1556 448.5 1556 c 0,25,26
 525 1556 525 1556 597.9 1546.5 c 128,-1,27
 670.8 1537 670.8 1537 741 1518 c 1,28,-1
 741 1290 l 1,0,-1
 640.2 1290 l 1,1,2
 633 1368 633 1368 599.25 1406 c 128,-1,3
 565.5 1444 565.5 1444 503.4 1444 c 0,4,5
 429.211 1444 429.211 1444 399 1386.5 c 128,-1,6
 349.341 1326.61 349.341 1326.61 366.6 1200 c 2,7,-1
 547.5 -127 l 2,16,17
 567.339 -272.527 567.339 -272.527 443.55 -373.5 c 128,-1,18
 339.6 -457 339.6 -457 137.1 -457 c 0,19,20
 83.0996 -457 83.0996 -457 21.9004 -447 c 128,-1,21
 -39.2998 -437 -39.2998 -437 -105 -418 c 1,22,-1
 -105 -192 l 1,23,-1
 -3.2998 -193 l 1,24,25
 -1.5 -273 -1.5 -273 25.0498 -308.5 c 128,-1,26
 51.5996 -344 51.5996 -344 111 -344 c 0,27,28
 176.7 -344 176.7 -344 202.8 -297 c 128,-1,29
 242.139 -223.824 242.139 -223.824 228.9 -127 c 2,30,-1
 48 1196 l 2,22,23
EndSplineSet
EndChar
StartChar: uni0284
Encoding: 644 644 644
Width: 834
Flags: W
Fore
559.45 121 m 1,0,-1
 743.95 121 l 1,1,-1
 743.95 0 l 1,2,-1
 557.65 -0 l 1,3,-1
 557.65 -125 l 2,4,5
 557.65 -287.63 557.65 -287.63 453.7 -371.5 c 0,6,7
 349.75 -455 349.75 -455 147.25 -455 c 0,8,9
 93.25 -455 93.25 -455 32.0498 -445 c 0,10,11
 -29.1504 -435 -29.1504 -435 -94.8496 -416 c 1,12,-1
 -94.8496 -190 l 1,13,-1
 6.84961 -191 l 1,14,15
 8.65039 -271 8.65039 -271 35.2002 -306.5 c 0,16,17
 61.75 -342 61.75 -342 121.15 -342 c 0,18,19
 186.85 -342 186.85 -342 212.95 -295 c 0,20,21
 239.05 -248 239.05 -248 239.05 -125 c 2,22,-1
 239.05 0 l 1,23,-1
 104.95 0 l 1,24,-1
 104.95 121 l 1,25,-1
 239.05 121 l 1,26,-1
 239.05 942 l 1,27,-1
 98.6504 942 l 1,28,-1
 98.6504 1063 l 1,29,-1
 240.85 1063 l 1,30,-1
 240.85 1196 l 2,31,32
 240.85 1373 240.85 1373 342.55 1464.5 c 0,33,34
 444.25 1556 444.25 1556 641.35 1556 c 0,35,36
 717.85 1556 717.85 1556 790.75 1546.5 c 0,37,38
 863.65 1537 863.65 1537 933.85 1518 c 1,39,-1
 933.85 1290 l 1,40,-1
 833.05 1290 l 1,41,42
 825.85 1368 825.85 1368 792.1 1406 c 0,43,44
 758.35 1444 758.35 1444 696.25 1444 c 0,45,46
 624.25 1444 624.25 1444 591.85 1386.5 c 0,47,48
 559.45 1328.66 559.45 1328.66 559.45 1200 c 2,49,-1
 559.45 121 l 1,0,-1
239.05 942 m 1,50,-1
 240.85 941.593 l 1,51,-1
 239.05 942 l 1,50,-1
EndSplineSet
EndChar
